SplineFontDB: 3.2
FontName: unaScript
FullName: Una Script
FamilyName: Una
Weight: Regular
Copyright: Lol, take it, see if I fucking care. - Una Ada
UComments: "2020-7-9: Created with FontForge (http://fontforge.org)"
Version: 001.000
ItalicAngle: 0
UnderlinePosition: -100
UnderlineWidth: 50
Ascent: 800
Descent: 200
InvalidEm: 0
LayerCount: 2
Layer: 0 0 "Back" 1
Layer: 1 0 "Fore" 0
XUID: [1021 809 -1299049482 11933]
OS2Version: 0
OS2_WeightWidthSlopeOnly: 0
OS2_UseTypoMetrics: 1
CreationTime: 1594321298
ModificationTime: 1594481248
OS2TypoAscent: 0
OS2TypoAOffset: 1
OS2TypoDescent: 0
OS2TypoDOffset: 1
OS2TypoLinegap: 0
OS2WinAscent: 0
OS2WinAOffset: 1
OS2WinDescent: 0
OS2WinDOffset: 1
HheadAscent: 0
HheadAOffset: 1
HheadDescent: 0
HheadDOffset: 1
OS2Vendor: 'PfEd'
Lookup: 258 0 0 "'kern' Horizontal Kerning in Latin lookup 0" { "'kern' Horizontal Kerning in Latin lookup 0-1" [150,15,0] } ['kern' ('DFLT' <'dflt' > 'latn' <'dflt' > ) ]
MarkAttachClasses: 1
DEI: 91125
KernClass2: 1 1 "'kern' Horizontal Kerning in Latin lookup 0-1"
 0 {}
LangName: 1033
Encoding: ISO8859-1
UnicodeInterp: none
NameList: AGL For New Fonts
DisplaySize: -48
AntiAlias: 1
FitToEm: 0
WinInfo: 0 26 10
BeginPrivate: 0
EndPrivate
BeginChars: 256 94

StartChar: exclam
Encoding: 33 33 0
Width: 191
Flags: HW
LayerCount: 2
Fore
SplineSet
100.213867188 390.208984375 m 0
 76.8115234375 390.208984375 57.056640625 408.31640625 55.3720703125 432.022460938 c 0
 49.6982421875 511.879882812 34.8125 584.158203125 13.45703125 635.541015625 c 0
 3.919921875 658.491210938 14.7919921875 684.827148438 37.7412109375 694.365234375 c 0
 60.6923828125 703.90234375 87.0283203125 693.03125 96.5654296875 670.081054688 c 0
 121.911132812 609.096679688 138.7109375 528.983398438 145.145507812 438.400390625 c 0
 146.907226562 413.610351562 128.23828125 392.0859375 103.448242188 390.32421875 c 0
 102.364257812 390.247070312 101.284179688 390.208984375 100.213867188 390.208984375 c 0
136.071289062 235.5078125 m 0
 121.008789062 235.5078125 106.294921875 243.06640625 97.7763671875 256.810546875 c 2
 89.359375 270.396484375 l 2
 76.2685546875 291.522460938 82.7822265625 319.259765625 103.907226562 332.350585938 c 0
 125.03515625 345.443359375 152.771484375 338.926757812 165.862304688 317.801757812 c 2
 174.280273438 304.216796875 l 2
 187.370117188 283.091796875 180.856445312 255.352539062 159.731445312 242.26171875 c 0
 152.350585938 237.688476562 144.159179688 235.5078125 136.071289062 235.5078125 c 0
EndSplineSet
EndChar

StartChar: quotedbl
Encoding: 34 34 1
Width: 245
Flags: HW
HStem: 489.795 206.241
VStem: 11.8025 221.997
LayerCount: 2
Fore
SplineSet
80.7890625 489.794921875 m 0
 57.5966796875 489.794921875 37.912109375 507.607421875 35.9892578125 531.130859375 c 0
 34.5615234375 548.59765625 27.45703125 586.438476562 11.802734375 640.2578125 c 0
 4.861328125 664.122070312 18.5791015625 689.09375 42.4443359375 696.036132812 c 0
 66.30859375 702.973632812 91.2802734375 689.258789062 98.2216796875 665.393554688 c 0
 113.329101562 613.452148438 123.341796875 567.188476562 125.689453125 538.462890625 c 0
 127.71484375 513.693359375 109.276367188 491.970703125 84.505859375 489.946289062 c 0
 83.2607421875 489.845703125 82.017578125 489.794921875 80.7890625 489.794921875 c 0
190.171875 504.90625 m 0
 170.103515625 504.90625 151.811523438 518.42578125 146.608398438 538.762695312 c 0
 145.255859375 544.047851562 143.711914062 550.375 142.079101562 557.07421875 c 0
 136.5703125 579.65625 127.3515625 617.450195312 120.3828125 632.879882812 c 0
 110.151367188 655.529296875 120.21875 682.18359375 142.868164062 692.415039062 c 0
 165.516601562 702.646484375 192.172851562 692.579101562 202.403320312 669.928710938 c 0
 212.026367188 648.624023438 220.375 615.873046875 229.515625 578.40234375 c 0
 231.086914062 571.956054688 232.573242188 565.8671875 233.799804688 561.0703125 c 0
 239.958984375 536.9921875 225.434570312 512.481445312 201.357421875 506.3203125 c 0
 197.6171875 505.364257812 193.862304688 504.90625 190.171875 504.90625 c 0
EndSplineSet
EndChar

StartChar: numbersign
Encoding: 35 35 2
Width: 421
Flags: HW
HStem: 510.19 89.9697<16.8282 54.9685> 607.67 21G<191.894 195.514> 617.31 21G<304.669 314.839>
LayerCount: 2
Fore
SplineSet
370.739257812 533.41015625 m 0xc0
 395.44921875 536.009765625 413.37890625 558.16015625 410.768554688 582.879882812 c 0
 408.168945312 607.58984375 386.018554688 625.509765625 361.298828125 622.91015625 c 0
 342.418945312 620.919921875 323.918945312 619.059570312 305.758789062 617.309570312 c 1xa0
 303.579101562 638.83984375 286.088867188 656.25 263.778320312 657.629882812 c 0
 238.989257812 659.1796875 217.619140625 640.3203125 216.068359375 615.509765625 c 0
 215.94921875 613.509765625 215.818359375 611.5 215.668945312 609.490234375 c 0
 207.548828125 608.849609375 199.508789062 608.25 191.518554688 607.669921875 c 1
 192.268554688 611.389648438 193.028320312 615.16015625 193.7890625 618.969726562 c 0
 198.6484375 643.349609375 182.829101562 667.040039062 158.458984375 671.900390625 c 0
 134.079101562 676.759765625 110.388671875 660.950195312 105.528320312 636.5703125 c 0
 103.159179688 624.700195312 100.829101562 613.190429688 98.5283203125 602.040039062 c 1
 83.2783203125 601.309570312 68.2490234375 600.6796875 53.4189453125 600.16015625 c 0
 28.5888671875 599.290039062 9.1591796875 578.450195312 10.0283203125 553.620117188 c 0
 10.87890625 529.309570312 30.8486328125 510.190429688 54.96875 510.190429688 c 0
 55.4990234375 510.190429688 56.0390625 510.200195312 56.5791015625 510.219726562 c 0
 63.9091796875 510.48046875 71.2783203125 510.759765625 78.708984375 511.0703125 c 1
 75.6591796875 497.940429688 72.6689453125 485.549804688 69.7587890625 473.900390625 c 0
 69.369140625 473.969726562 68.9892578125 474.049804688 68.6083984375 474.129882812 c 0
 44.2587890625 479.099609375 20.4892578125 463.400390625 15.5185546875 439.049804688 c 0
 10.9384765625 416.6796875 23.8291015625 394.799804688 44.8388671875 387.530273438 c 1
 38.87890625 370.469726562 33.2587890625 357.33984375 27.9384765625 348.040039062 c 0
 15.5986328125 326.469726562 23.0888671875 298.969726562 44.6591796875 286.639648438 c 0
 51.708984375 282.610351562 59.37890625 280.690429688 66.958984375 280.690429688 c 0
 82.5791015625 280.690429688 97.7587890625 288.830078125 106.05859375 303.360351562 c 0
 114.369140625 317.889648438 123.909179688 338.330078125 135.739257812 375.5 c 1
 148.478515625 374.830078125 161.62890625 374.5 175.21875 374.5 c 0
 176.548828125 374.5 177.888671875 374.5 179.239257812 374.509765625 c 1
 174.548828125 354.139648438 169.3984375 333.08984375 163.749023438 311.200195312 c 0
 157.5390625 287.139648438 172.008789062 262.599609375 196.079101562 256.389648438 c 0
 199.848632812 255.419921875 203.62890625 254.950195312 207.348632812 254.950195312 c 0
 227.37890625 254.950195312 245.659179688 268.4296875 250.888671875 288.719726562 c 0
 259.068359375 320.419921875 266.268554688 350.509765625 272.548828125 379.379882812 c 1
 298.228515625 381.76953125 325.318359375 385.040039062 353.96875 389.190429688 c 0
 378.55859375 392.759765625 395.608398438 415.58984375 392.0390625 440.1796875 c 0
 388.478515625 464.780273438 365.638671875 481.830078125 341.048828125 478.259765625 c 0
 323.428710938 475.700195312 306.499023438 473.509765625 290.208984375 471.66015625 c 1
 293.21875 490.16015625 295.829101562 508.290039062 298.05859375 526.190429688 c 1
 321.69921875 528.389648438 345.909179688 530.790039062 370.739257812 533.41015625 c 0xc0
197.749023438 464.790039062 m 1
 184.739257812 464.419921875 172.228515625 464.360351562 160.168945312 464.620117188 c 1
 163.978515625 480.23046875 167.96875 497.330078125 172.168945312 516.120117188 c 1
 183.409179688 516.870117188 194.768554688 517.66015625 206.268554688 518.509765625 c 1
 203.829101562 500.959960938 200.999023438 483.099609375 197.749023438 464.790039062 c 1
EndSplineSet
EndChar

StartChar: dollar
Encoding: 36 36 3
Width: 371
Flags: HW
HStem: 276.55 90.8301<41.1958 180.774>
VStem: 175.615 83.1094<183.33 271.749> 181.645 90.0303<208.126 277.48>
LayerCount: 2
Fore
SplineSet
343.90625 336.129882812 m 0xa0
 328.706054688 315.719726562 304.40625 300.690429688 270.42578125 290.830078125 c 1
 271.67578125 291 l 1xa0
 272.8359375 284.790039062 276.185546875 248.1796875 258.725585938 206.16015625 c 0
 251.536132812 188.860351562 234.786132812 178.419921875 217.145507812 178.419921875 c 0
 211.395507812 178.419921875 205.545898438 179.530273438 199.895507812 181.879882812 c 0
 176.9453125 191.419921875 166.076171875 217.75 175.616210938 240.700195312 c 0xc0
 182.515625 257.309570312 181.725585938 269.650390625 181.515625 271.860351562 c 1
 181.576171875 271.469726562 181.625976562 275.259765625 181.645507812 277.48046875 c 1
 180.786132812 277.440429688 179.916015625 277.389648438 179.045898438 277.349609375 c 0
 167.10546875 276.76953125 155.456054688 276.549804688 144.515625 276.549804688 c 0
 105.1953125 276.549804688 75.025390625 279.469726562 73.42578125 279.629882812 c 0
 48.6953125 282.0703125 30.6162109375 304.099609375 33.0654296875 328.830078125 c 0
 35.505859375 353.559570312 57.525390625 371.629882812 82.265625 369.190429688 c 0
 82.6953125 369.150390625 128.385742188 364.76953125 177.416015625 367.379882812 c 0
 249.916015625 371.23046875 268.375976562 386.450195312 271.315429688 389.440429688 c 0
 271.225585938 390.540039062 270.815429688 392.919921875 269.185546875 396.889648438 c 0
 252.935546875 436.599609375 200.295898438 444.76953125 133.166015625 451.330078125 c 0
 108.326171875 453.75 84.85546875 456.040039062 65.6357421875 461.9296875 c 0
 14.8154296875 477.509765625 9.8056640625 514.490234375 10.005859375 529.669921875 c 0
 10.24609375 547.540039062 16.3662109375 574.440429688 44.1455078125 601.030273438 c 0
 58.0361328125 614.330078125 76.49609375 626.75 99.005859375 637.959960938 c 0
 107.366210938 642.129882812 115.706054688 645.830078125 123.5859375 649.0703125 c 1
 121.645507812 651.5 119.92578125 654.169921875 118.485351562 657.0703125 c 2
 92.2861328125 709.639648438 l 2
 81.1953125 731.879882812 90.2353515625 758.900390625 112.475585938 769.990234375 c 0
 134.725585938 781.0703125 161.74609375 772.030273438 172.826171875 749.790039062 c 2
 199.036132812 697.219726562 l 2
 204.595703125 686.0703125 205.095703125 673.719726562 201.40625 662.780273438 c 1
 213.125976562 657.370117188 222.435546875 646.969726562 226.015625 633.51953125 c 0
 232.40625 609.51953125 218.145507812 584.889648438 194.166015625 578.469726562 c 0
 193.786132812 578.370117188 168.916015625 571.58984375 143.3359375 559.450195312 c 0
 131.305664062 553.73046875 122.35546875 548.349609375 115.805664062 543.6796875 c 1
 124.666015625 542.580078125 134.145507812 541.66015625 141.916015625 540.900390625 c 0
 174.735351562 537.700195312 215.5859375 533.709960938 252.635742188 520.610351562 c 0
 301.635742188 503.290039062 335.235351562 473.129882812 352.485351562 430.98046875 c 0
 371.635742188 384.169921875 355.3359375 351.459960938 343.90625 336.129882812 c 0xa0
EndSplineSet
EndChar

StartChar: percent
Encoding: 37 37 4
Width: 625
Flags: HW
VStem: 330.524 89.9404<329.239 381.392>
LayerCount: 2
Fore
SplineSet
196.80078125 279.671875 m 0
 188.857421875 279.671875 180.815429688 281.775390625 173.526367188 286.19140625 c 0
 152.270507812 299.069335938 145.478515625 326.740234375 158.356445312 347.99609375 c 0
 226.639648438 460.702148438 282.58203125 546.779296875 328.701171875 609.829101562 c 1
 309.05859375 610.405273438 288.858398438 612.615234375 268.147460938 616.4609375 c 1
 259.364257812 584.868164062 243.517578125 555.924804688 222.068359375 532.850585938 c 0
 192.615234375 501.1640625 156.423828125 484.440429688 122.797851562 486.98046875 c 0
 119.056640625 487.26171875 115.366210938 488.009765625 111.810546875 489.208007812 c 0
 76.2041015625 501.205078125 52.01171875 516.625 35.6796875 537.735351562 c 0
 15.9111328125 563.286132812 11.6279296875 592.333984375 10.103515625 614.78515625 c 0
 9.890625 617.923828125 10.0068359375 621.077148438 10.4521484375 624.19140625 c 0
 16.248046875 664.793945312 32.958984375 695.55078125 60.12109375 715.606445312 c 0
 90.740234375 738.212890625 131.122070312 745.1640625 183.58203125 736.861328125 c 0
 187.451171875 736.248046875 191.22265625 735.1328125 194.802734375 733.543945312 c 0
 279.842773438 695.795898438 360.811523438 689.526367188 422.791992188 715.884765625 c 0
 442.64453125 724.327148438 465.697265625 717.493164062 477.740234375 699.592773438 c 0
 489.783203125 681.693359375 487.426757812 657.763671875 472.125 642.555664062 c 0
 421.25 591.993164062 343.793945312 480.387695312 235.33203125 301.361328125 c 0
 226.870117188 287.39453125 212.018554688 279.671875 196.80078125 279.671875 c 0
100.291992188 616.030273438 m 0
 101.728515625 601.224609375 104.517578125 595.834960938 106.860351562 592.806640625 c 0
 110.923828125 587.555664062 119.578125 582.366210938 132.63671875 577.338867188 c 0
 137.76171875 578.987304688 147.16015625 584.146484375 157.083984375 595.147460938 c 0
 164.162109375 602.993164062 175.506835938 618.366210938 181.704101562 641.446289062 c 1
 174.547851562 644.249023438 168.581054688 646.774414062 164.004882812 648.764648438 c 0
 140.461914062 651.859375 122.676757812 649.919921875 113.578125 643.202148438 c 0
 107.228515625 638.512695312 102.768554688 629.383789062 100.291992188 616.030273438 c 0
459.171875 234.541992188 m 0
 450.842773438 234.541992188 446.064453125 235.923828125 443.412109375 236.690429688 c 0
 442.486328125 236.9453125 439.51953125 237.549804688 437.352539062 237.993164062 c 0
 422.208984375 241.0859375 396.862304688 246.260742188 374.080078125 262.913085938 c 0
 353.134765625 278.22265625 328.576171875 307.630859375 330.5234375 360.79296875 c 0
 331.5 387.430664062 340.971679688 411.59375 357.91796875 430.669921875 c 0
 370.650390625 445.00390625 387.376953125 456.3828125 407.631835938 464.491210938 c 0
 437.938476562 476.623046875 467.032226562 477.603515625 470.249023438 477.67578125 c 1
 470.568359375 463.365234375 l 1
 495.900390625 474.189453125 528.620117188 468.2578125 560.0703125 446.674804688 c 0
 591.799804688 424.901367188 622.66015625 385.359375 614.1171875 339.680664062 c 0
 610.485351562 320.264648438 597.728515625 291.926757812 557.576171875 267.182617188 c 0
 540.859375 256.881835938 520.27734375 247.822265625 499.622070312 241.668945312 c 0
 480.959960938 236.112304688 468.049804688 234.54296875 459.171875 234.541992188 c 0
468.3515625 323.166992188 m 1
 468.369140625 323.162109375 468.384765625 323.157226562 468.40234375 323.15234375 c 1
 468.384765625 323.157226562 468.368164062 323.162109375 468.3515625 323.166992188 c 1
458.891601562 324.521484375 m 1
 458.891601562 324.521484375 l 1
457.826171875 385.79296875 m 1
 452.295898438 384.697265625 445.833984375 382.986328125 439.596679688 380.325195312 c 0
 421.009765625 372.39453125 420.681640625 363.4296875 420.463867188 357.498046875 c 0
 419.750976562 338.030273438 422.8828125 332.805664062 455.359375 326.173828125 c 0
 457.45703125 325.74609375 459.5 325.329101562 461.508789062 324.8828125 c 0
 467.813476562 325.99609375 482.16015625 329.669921875 497.689453125 336.997070312 c 0
 514.537109375 344.9453125 522.389648438 352.315429688 525 355.741210938 c 0
 523.754882812 358.401367188 520.490234375 363.223632812 514.418945312 368.420898438 c 0
 508.543945312 373.450195312 502.836914062 376.447265625 499.301757812 377.831054688 c 0
 484.984375 373.412109375 469.381835938 376.487304688 457.826171875 385.79296875 c 1
EndSplineSet
EndChar

StartChar: ampersand
Encoding: 38 38 5
Width: 343
Flags: HW
VStem: 144.077 89.1699<165.797 280.69 660.33 745.344>
LayerCount: 2
Fore
SplineSet
305.626953125 317 m 0
 275.987304688 305.16015625 250.147460938 296.309570312 227.506835938 290.26953125 c 1
 232.1171875 282.639648438 234.506835938 273.580078125 233.8671875 264.009765625 c 0
 233.477539062 258.209960938 233.247070312 250.990234375 233.247070312 243.330078125 c 0
 233.247070312 225.129882812 234.557617188 204.41015625 238.1875 194.219726562 c 0
 246.52734375 170.809570312 234.296875 145.0703125 210.887695312 136.740234375 c 0
 205.897460938 134.959960938 200.807617188 134.120117188 195.796875 134.120117188 c 0
 177.296875 134.120117188 159.95703125 145.610351562 153.397460938 164.040039062 c 0
 140.166992188 201.209960938 143.307617188 258.919921875 144.077148438 270.110351562 c 0
 144.327148438 273.83984375 145.037109375 277.440429688 146.126953125 280.849609375 c 1
 131.447265625 282.23046875 118.227539062 285.759765625 106.247070312 291.450195312 c 0
 78.0673828125 304.830078125 58.1669921875 329.51953125 47.09765625 364.830078125 c 0
 46.677734375 366.190429688 46.3173828125 367.559570312 46.017578125 368.950195312 c 0
 39.947265625 397.559570312 46.0771484375 426.650390625 63.267578125 450.860351562 c 0
 68.7568359375 458.580078125 75.216796875 465.719726562 82.6474609375 472.259765625 c 1
 52.376953125 485.719726562 29.3671875 502.219726562 17.767578125 525.1796875 c 0
 8.3076171875 543.889648438 7.45703125 565.209960938 15.3876953125 585.190429688 c 0
 16.7568359375 588.629882812 18.537109375 591.889648438 20.70703125 594.889648438 c 0
 35.947265625 616.040039062 58.107421875 633.469726562 84.787109375 645.299804688 c 0
 101.637695312 652.780273438 119.477539062 657.509765625 136.836914062 659.23046875 c 1
 140.767578125 682.650390625 140.947265625 708.530273438 140.947265625 708.809570312 c 0
 141.006835938 733.629882812 161.147460938 753.709960938 185.947265625 753.709960938 c 2
 186.057617188 753.709960938 l 2
 210.907226562 753.650390625 231.006835938 733.450195312 230.947265625 708.599609375 c 0
 230.947265625 706.969726562 230.77734375 668.940429688 223.8671875 634.969726562 c 1
 233.626953125 626.549804688 241.586914062 616.190429688 247.317382812 604.169921875 c 0
 258.006835938 581.740234375 248.487304688 554.879882812 226.046875 544.190429688 c 0
 203.6171875 533.5 176.756835938 543.01953125 166.067382812 565.459960938 c 0
 164.6875 568.370117188 159.45703125 569.419921875 155.317382812 569.790039062 c 0
 141.84765625 571.009765625 125.086914062 566.08984375 111.6875 558.009765625 c 1
 117.836914062 554.940429688 126.447265625 551.219726562 138.4375 546.950195312 c 0
 164.046875 537.83984375 196.157226562 529.400390625 227.216796875 521.240234375 c 2
 229.8671875 520.540039062 l 2
 250.70703125 515.0703125 264.737304688 495.58984375 263.336914062 474.08984375 c 0
 261.927734375 452.58984375 245.487304688 435.099609375 224.1171875 432.379882812 c 0
 159.256835938 424.129882812 140.767578125 404.549804688 136.647460938 398.740234375 c 0
 134.317382812 395.459960938 133.4375 392.620117188 133.796875 389.280273438 c 0
 138.466796875 375.780273438 143.237304688 373.51953125 144.857421875 372.740234375 c 0
 148.756835938 370.889648438 158.637695312 368.349609375 181.037109375 372.080078125 c 0
 203.997070312 375.91015625 233.827148438 385.23046875 272.227539062 400.5703125 c 0
 295.317382812 409.790039062 321.497070312 398.559570312 330.716796875 375.48046875 c 0
 339.9375 352.400390625 328.70703125 326.219726562 305.626953125 317 c 0
EndSplineSet
EndChar

StartChar: quotesingle
Encoding: 39 39 6
Width: 147
Flags: HW
HStem: 503.836 190.898
LayerCount: 2
Fore
SplineSet
92.9423828125 503.8359375 m 0
 77.1904296875 503.8359375 61.90234375 512.118164062 53.650390625 526.834960938 c 0
 47.9130859375 537.067382812 34.0439453125 574.334960938 12.4287109375 637.602539062 c 0
 4.3935546875 661.12109375 16.9462890625 686.700195312 40.4638671875 694.734375 c 0
 63.986328125 702.76953125 89.560546875 690.216796875 97.595703125 666.69921875 c 0
 111.1015625 627.16796875 128.200195312 579.311523438 132.541992188 570.138671875 c 0
 144.135742188 548.576171875 136.349609375 521.615234375 114.909179688 509.592773438 c 0
 107.94921875 505.690429688 100.392578125 503.8359375 92.9423828125 503.8359375 c 0
132.15234375 570.852539062 m 1
 132.233398438 570.70703125 132.314453125 570.560546875 132.393554688 570.415039062 c 1
 132.307617188 570.575195312 132.2265625 570.719726562 132.15234375 570.852539062 c 1
EndSplineSet
EndChar

StartChar: parenleft
Encoding: 40 40 7
Width: 222
Flags: HW
VStem: 10.9927 199.217
LayerCount: 2
Fore
SplineSet
165.235351562 195.249023438 m 0
 157.447265625 195.248046875 149.560546875 197.26953125 142.372070312 201.521484375 c 0
 107.405273438 222.19921875 71.09375 245.563476562 45.15234375 283.509765625 c 0
 17.59765625 323.817382812 6.4228515625 374.68359375 10.9921875 439.01953125 c 0
 11.064453125 440.030273438 11.169921875 441.037109375 11.3095703125 442.0390625 c 0
 21.486328125 515.124023438 47.228515625 616.591796875 152.811523438 653.797851562 c 0
 176.251953125 662.060546875 201.94921875 649.751953125 210.208984375 626.311523438 c 0
 218.46875 602.872070312 206.162109375 577.173828125 182.723632812 568.9140625 c 0
 136.663085938 552.68359375 112.077148438 511.4453125 100.661132812 431.141601562 c 1
 94.501953125 339.06640625 128.237304688 314.438476562 188.182617188 278.990234375 c 0
 209.575195312 266.33984375 216.661132812 238.743164062 204.010742188 217.349609375 c 0
 195.612304688 203.147460938 180.62109375 195.25 165.235351562 195.249023438 c 0
EndSplineSet
EndChar

StartChar: parenright
Encoding: 41 41 8
Width: 245
Flags: HW
VStem: 13.1341 220.074
LayerCount: 2
Fore
SplineSet
121.055664062 182.971679688 m 0
 110.922851562 182.970703125 100.733398438 186.375 92.3291015625 193.356445312 c 0
 73.2099609375 209.235351562 70.583984375 237.606445312 86.462890625 256.723632812 c 0
 132.303710938 311.91796875 151.729492188 372.859375 144.205078125 437.870117188 c 0
 133.391601562 503.471679688 100.7734375 543.666992188 38.54296875 568.139648438 c 0
 15.4140625 577.235351562 4.0380859375 603.358398438 13.1337890625 626.487304688 c 0
 22.23046875 649.616210938 48.3525390625 660.990234375 71.4814453125 651.897460938 c 0
 163.1484375 615.84765625 217.560546875 548.3515625 233.208007812 451.282226562 c 0
 233.305664062 450.676757812 233.390625 450.0703125 233.462890625 449.4609375 c 0
 239.573242188 398.33984375 233.712890625 348.526367188 216.045898438 301.40234375 c 0
 202.659179688 265.696289062 182.356445312 231.319335938 155.698242188 199.22265625 c 0
 146.798828125 188.506835938 133.973632812 182.971679688 121.055664062 182.971679688 c 0
EndSplineSet
EndChar

StartChar: asterisk
Encoding: 42 42 9
Width: 319
Flags: HW
HStem: 554.47 20.3701G<107.573 119.093 237.078 248.608> 605.49 88.7002<16.5218 68.6258>
VStem: 11.3031 298.34
LayerCount: 2
Fore
SplineSet
309.642578125 669.309570312 m 0
 308.663085938 649.740234375 295.342773438 633.709960938 277.573242188 628.419921875 c 1
 277.962890625 627.950195312 278.333007812 627.490234375 278.703125 627.030273438 c 0
 294.272460938 607.66015625 291.193359375 579.330078125 271.823242188 563.759765625 c 0
 263.512695312 557.080078125 253.552734375 553.83984375 243.663085938 553.83984375 c 0
 230.493164062 553.83984375 217.443359375 559.580078125 208.552734375 570.650390625 c 0
 199.743164062 581.599609375 189.552734375 593.26953125 178.86328125 604.950195312 c 1
 146.262695312 569.16015625 l 2
 137.3828125 559.419921875 125.203125 554.469726562 112.982421875 554.469726562 c 0
 102.163085938 554.469726562 91.3125 558.33984375 82.693359375 566.200195312 c 0
 70.802734375 577.030273438 66.052734375 592.759765625 68.712890625 607.490234375 c 1
 66.8330078125 607.059570312 65.79296875 606.809570312 65.693359375 606.780273438 c 0
 62.11328125 605.91015625 58.5224609375 605.490234375 54.982421875 605.490234375 c 0
 34.732421875 605.490234375 16.3330078125 619.25 11.302734375 639.799804688 c 0
 5.392578125 663.919921875 20.142578125 688.26953125 44.2626953125 694.190429688 c 0
 45.8427734375 694.580078125 59.7724609375 697.950195312 81.7724609375 702.009765625 c 1
 65.953125 719.049804688 65.642578125 745.66015625 81.6630859375 763.0703125 c 0
 98.4931640625 781.360351562 126.953125 782.540039062 145.243164062 765.719726562 c 0
 146.552734375 764.530273438 158.962890625 753.0703125 176.533203125 736.030273438 c 1
 199.573242188 761.330078125 l 2
 216.302734375 779.700195312 244.772460938 781.01953125 263.142578125 764.290039062 c 0
 277.11328125 751.559570312 281.232421875 732.049804688 275.033203125 715.349609375 c 1
 295.79296875 710.490234375 310.743164062 691.360351562 309.642578125 669.309570312 c 0
EndSplineSet
EndChar

StartChar: plus
Encoding: 43 43 10
Width: 365
Flags: HW
HStem: 430.07 88.8301<16.7937 118.632> 462.54 90.9502<212.888 308.974> 476.43 90<214.877 349.198>
VStem: 120.398 89.4502<392.117 444.3 553.49 649.061> 123.438 89.4502<343.421 444.3 553.49 600.887>
LayerCount: 2
Fore
SplineSet
355.95703125 520.8203125 m 0x30
 355.626953125 496.1796875 335.546875 476.419921875 310.977539062 476.419921875 c 0
 310.77734375 476.419921875 310.567382812 476.419921875 310.3671875 476.4296875 c 2
 309.45703125 476.4296875 l 2x30
 292.546875 476.4296875 255.407226562 470.580078125 212.887695312 462.540039062 c 1x48
 215.567382812 381.98046875 l 2
 216.397460938 357.139648438 196.927734375 336.33984375 172.086914062 335.509765625 c 0
 171.586914062 335.490234375 171.067382812 335.48046875 170.567382812 335.48046875 c 0
 146.407226562 335.48046875 126.427734375 354.650390625 125.6171875 378.98046875 c 2
 123.4375 444.299804688 l 1
 102.296875 439.73046875 82.3076171875 435.23046875 65.2275390625 431.25 c 0
 61.787109375 430.450195312 58.357421875 430.0703125 54.9677734375 430.0703125 c 0
 34.52734375 430.0703125 16.02734375 444.08984375 11.1875 464.860351562 c 0
 5.537109375 489.059570312 20.5869140625 513.259765625 44.787109375 518.900390625 c 0x88
 52.546875 520.709960938 82.5869140625 527.66015625 120.397460938 535.700195312 c 1
 117.897460938 610.620117188 l 2
 117.067382812 635.459960938 136.537109375 656.26953125 161.376953125 657.099609375 c 0
 186.197265625 657.9296875 207.017578125 638.459960938 207.84765625 613.620117188 c 2
 209.84765625 553.490234375 l 1x50
 250.467773438 560.849609375 288.407226562 566.4296875 309.997070312 566.4296875 c 0
 310.537109375 566.4296875 311.046875 566.419921875 311.567382812 566.419921875 c 0
 336.416992188 566.080078125 356.296875 545.669921875 355.95703125 520.8203125 c 0x30
EndSplineSet
EndChar

StartChar: comma
Encoding: 44 44 11
Width: 126
Flags: HW
HStem: 193.862 179.659<27.0337 92.1788>
VStem: 19.7509 70.5029<195.982 280.115> 23.4101 86.0332<267.468 369.985>
LayerCount: 2
Fore
SplineSet
54.97265625 193.862304688 m 0xc0
 45.171875 193.862304688 35.3046875 197.047851562 27.03125 203.61328125 c 0
 7.5625 219.060546875 4.302734375 247.3671875 19.7509765625 266.834960938 c 0xc0
 30.2890625 280.115234375 26.12109375 308.466796875 23.41015625 317.291992188 c 0
 16.11328125 341.049804688 29.45703125 366.223632812 53.21484375 373.521484375 c 0
 76.97265625 380.817382812 102.146484375 367.473632812 109.443359375 343.716796875 c 0xa0
 111.90625 335.700195312 132.286132812 263.866210938 90.25390625 210.893554688 c 0
 81.3701171875 199.698242188 68.2333984375 193.862304688 54.97265625 193.862304688 c 0xc0
EndSplineSet
EndChar

StartChar: hyphen
Encoding: 45 45 12
Width: 272
Flags: HW
HStem: 457.78 90.4414<16.8912 239.662>
VStem: 10.0731 252.421
LayerCount: 2
Fore
SplineSet
73.482421875 457.780273438 m 0
 66.5849609375 457.780273438 59.58203125 457.962890625 52.4609375 458.366210938 c 0
 27.6474609375 459.768554688 8.669921875 481.021484375 10.0732421875 505.833984375 c 0
 11.4755859375 530.647460938 32.7236328125 549.625976562 57.541015625 548.221679688 c 0
 92.48046875 546.247070312 125.9140625 551.267578125 161.307617188 556.583984375 c 0
 177.880859375 559.07421875 195.01953125 561.6484375 212.884765625 563.59375 c 0
 237.5859375 566.284179688 259.801757812 548.440429688 262.494140625 523.732421875 c 0
 265.184570312 499.025390625 247.338867188 476.815429688 222.6328125 474.123046875 c 0
 206.58203125 472.374023438 190.362304688 469.938476562 174.67578125 467.58203125 c 0
 142.50390625 462.75 109.412109375 457.780273438 73.482421875 457.780273438 c 0
EndSplineSet
EndChar

StartChar: period
Encoding: 46 46 13
Width: 116
Flags: HW
VStem: 13.2373 89.6396<268.98 361.472>
LayerCount: 2
Fore
SplineSet
61.552734375 260.41015625 m 0
 55.5908203125 260.41015625 49.533203125 261.600585938 43.712890625 264.118164062 c 0
 29.2177734375 270.385742188 18.3955078125 281.796875 13.2373046875 296.25 c 0
 5.2724609375 318.567382812 14.150390625 338.677734375 17.0615234375 344.309570312 c 0
 28.470703125 366.388671875 55.6181640625 375.038085938 77.6982421875 363.625976562 c 0
 92.68359375 355.880859375 101.481445312 340.88671875 102.020507812 325.1484375 c 1
 107.571289062 313.755859375 108.30078125 300.102539062 102.876953125 287.559570312 c 0
 95.53125 270.568359375 78.9580078125 260.41015625 61.552734375 260.41015625 c 0
EndSplineSet
EndChar

StartChar: slash
Encoding: 47 47 14
Width: 219
Flags: HW
LayerCount: 2
Fore
SplineSet
54.9912109375 280.130859375 m 0
 49.115234375 280.130859375 43.1435546875 281.288085938 37.3955078125 283.734375 c 0
 14.5263671875 293.462890625 3.8740234375 319.888671875 13.6025390625 342.758789062 c 0
 72.6181640625 481.486328125 110.682617188 588.120117188 120.813476562 622.748046875 c 0
 127.79296875 646.600585938 152.790039062 660.280273438 176.638671875 653.301757812 c 0
 200.4921875 646.323242188 214.170898438 621.330078125 207.192382812 597.4765625 c 0
 193.768554688 551.59375 150.383789062 434.379882812 96.4208984375 307.528320312 c 0
 89.13671875 290.405273438 72.4931640625 280.130859375 54.9912109375 280.130859375 c 0
EndSplineSet
EndChar

StartChar: zero
Encoding: 48 48 15
Width: 373
Flags: HW
HStem: 272.458 90<115.943 210.839>
VStem: 10.0516 89.9541<386.9 494.659> 273.016 89.9541<421.608 528.593>
LayerCount: 2
Fore
SplineSet
151.197265625 272.458007812 m 0
 101.96875 272.456054688 61.009765625 297.14453125 35.8173828125 342.016601562 c 0
 13.4814453125 381.801757812 10.4482421875 424.837890625 10.0517578125 437.080078125 c 0
 8.408203125 487.669921875 46.44140625 546.015625 58.13671875 562.693359375 c 0
 78.3701171875 591.543945312 120.51171875 641.711914062 175.4140625 653.541015625 c 0
 194.671875 657.690429688 213.69921875 648.84375 223.373046875 632.904296875 c 1
 245.241210938 632.130859375 266.448242188 626.146484375 285.370117188 615.326171875 c 0
 310.013671875 601.235351562 330.393554688 579.44921875 344.309570312 552.323242188 c 0
 357.374023438 526.85546875 363.828125 498.595703125 362.970703125 470.600585938 c 0
 361.529296875 423.510742188 336.073242188 373.743164062 293.129882812 334.057617188 c 0
 250.938476562 295.067382812 199.381835938 272.615234375 151.680664062 272.458984375 c 0
 151.5234375 272.458007812 151.357421875 272.458007812 151.197265625 272.458007812 c 0
140.221679688 522.28515625 m 1
 137.369140625 518.684570312 134.5625 514.921875 131.82421875 511.016601562 c 0
 109.575195312 479.291015625 99.6845703125 449.884765625 100.005859375 440 c 0
 100.45703125 426.061523438 104.471679688 403.576171875 114.296875 386.076171875 c 0
 125.939453125 365.336914062 139.440429688 362.458007812 151.1484375 362.458007812 c 0
 151.228515625 362.458007812 151.307617188 362.458007812 151.387695312 362.458007812 c 0
 176.068359375 362.5390625 206.9765625 376.984375 232.049804688 400.155273438 c 0
 256.631835938 422.87109375 272.328125 450.919921875 273.016601562 473.35546875 c 0
 273.807617188 499.186523438 260.215820312 526.03515625 240.698242188 537.196289062 c 0
 222.98046875 547.327148438 200.887695312 544.19921875 175.037109375 527.900390625 c 0
 164.252929688 521.1015625 151.688476562 519.44921875 140.221679688 522.28515625 c 1
EndSplineSet
EndChar

StartChar: one
Encoding: 49 49 16
Width: 225
Flags: HW
VStem: 123.07 89.8926<291.136 521.612>
LayerCount: 2
Fore
SplineSet
165.04296875 282.569335938 m 0
 140.900390625 282.567382812 120.9296875 301.71484375 120.09765625 326.03125 c 0
 118.301757812 378.516601562 120.834960938 430.153320312 123.0703125 475.709960938 c 0
 123.83984375 491.380859375 124.59375 506.771484375 125.141601562 521.612304688 c 1
 110.00390625 513.033203125 93.060546875 504.35546875 74.1474609375 495.467773438 c 0
 51.6533203125 484.901367188 24.8515625 494.56640625 14.2822265625 517.059570312 c 0
 3.7138671875 539.553710938 13.380859375 566.356445312 35.8740234375 576.924804688 c 0
 85.0419921875 600.02734375 118.532226562 621.241210938 135.4140625 639.98046875 c 0
 147.321289062 653.198242188 165.8984375 658.16015625 182.80859375 652.639648438 c 0
 199.720703125 647.12109375 211.793945312 632.157226562 213.61328125 614.459960938 c 0
 217.92578125 572.478515625 215.514648438 523.33203125 212.962890625 471.298828125 c 0
 210.708984375 425.356445312 208.377929688 377.84765625 210.045898438 329.107421875 c 0
 210.895507812 304.268554688 191.44921875 283.4453125 166.611328125 282.59375 c 0
 166.086914062 282.578125 165.5625 282.569335938 165.04296875 282.569335938 c 0
EndSplineSet
EndChar

StartChar: two
Encoding: 50 50 17
Width: 327
Flags: HW
HStem: 290.444 91.5537<145.745 306.822> 544.099 89.8594<16.6926 143.798>
VStem: 10.0716 306.859
LayerCount: 2
Fore
SplineSet
179.133789062 290.444335938 m 0
 163.115234375 290.444335938 149.068359375 291.1171875 136.849609375 292.458984375 c 0
 117.4609375 294.588867188 102.067382812 298.491210938 89.787109375 304.387695312 c 0
 68.314453125 314.701171875 58.8779296875 329.916015625 54.734375 341.3671875 c 0
 47.6572265625 356.672851562 47.2265625 374.615234375 53.4716796875 394.825195312 c 0
 57.443359375 407.680664062 64.111328125 421.899414062 74.453125 439.568359375 c 0
 91.345703125 468.424804688 116.364257812 503.27734375 142.853515625 540.17578125 c 0
 143.826171875 541.53125 144.801757812 542.890625 145.780273438 544.252929688 c 1
 110.95703125 547.092773438 73.8720703125 545.015625 57.517578125 544.098632812 c 0
 32.697265625 542.708984375 11.4609375 561.69921875 10.0712890625 586.51171875 c 0
 8.681640625 611.326171875 27.669921875 632.568359375 52.484375 633.958007812 c 0
 142.018554688 638.97265625 199.990234375 632.64453125 240.454101562 613.44140625 c 0
 252.388671875 607.77734375 261.23046875 597.155273438 264.637695312 584.391601562 c 0
 268.043945312 571.62890625 265.670898438 558.013671875 258.147460938 547.15625 c 0
 243.997070312 526.736328125 229.747070312 506.885742188 215.96484375 487.689453125 c 0
 195.041992188 458.54296875 175.278320312 431.012695312 160.725585938 408.133789062 c 0
 153.506835938 396.788085938 148.678710938 388.2734375 145.450195312 381.998046875 c 1
 163.4609375 379.930664062 199.216796875 378.927734375 267.744140625 385.662109375 c 0
 292.477539062 388.088867188 314.5 370.012695312 316.930664062 345.279296875 c 0
 319.361328125 320.545898438 301.28125 298.524414062 276.546875 296.092773438 c 0
 238.155273438 292.322265625 205.895507812 290.444335938 179.133789062 290.444335938 c 0
EndSplineSet
EndChar

StartChar: three
Encoding: 51 51 18
Width: 373
Flags: HW
HStem: 301.812 90.6123<81.7938 268.405> 555.27 86.499<15.6766 183.397>
LayerCount: 2
Fore
SplineSet
209.916015625 301.811523438 m 0
 182.30859375 301.811523438 150.137695312 303.551757812 112.671875 306.921875 c 0
 87.9189453125 309.149414062 69.6572265625 331.01953125 71.884765625 355.7734375 c 0
 74.111328125 380.526367188 95.9814453125 398.787109375 120.735351562 396.560546875 c 0
 166.806640625 392.416992188 204.415039062 391.026367188 232.51953125 392.423828125 c 0
 251.630859375 393.375976562 263.510742188 395.453125 270.614257812 397.294921875 c 1
 266.751953125 413.41015625 251.3671875 444.734375 164.698242188 455.467773438 c 0
 145.90234375 457.795898438 130.57421875 471.643554688 126.358398438 490.109375 c 0
 122.141601562 508.57421875 129.938476562 527.702148438 145.860351562 537.958007812 c 0
 167.20703125 551.708007812 178.692382812 562.799804688 184.748046875 571.495117188 c 1
 161.236328125 573.848632812 123.0078125 571.240234375 67.4404296875 555.26953125 c 0
 43.5556640625 548.40625 18.6259765625 562.204101562 11.76171875 586.08984375 c 0
 4.8974609375 609.975585938 18.6953125 634.904296875 42.5810546875 641.768554688 c 0
 110.024414062 661.151367188 202.317382812 676.646484375 258.995117188 640.397460938 c 0
 269.38671875 633.750976562 276.594726562 623.130859375 278.93359375 611.01953125 c 0
 284.786132812 580.715820312 278.6171875 550.668945312 261.088867188 523.76953125 c 1
 277.594726562 516.924804688 292.131835938 508.650390625 304.860351562 498.889648438 c 0
 334.694335938 476.012695312 353.211914062 445.956054688 359.940429688 409.505859375 c 0
 367.18359375 385.147460938 363.211914062 361.643554688 348.588867188 342.932617188 c 0
 326.58203125 314.771484375 285.25 301.811523438 209.916015625 301.811523438 c 0
EndSplineSet
EndChar

StartChar: four
Encoding: 52 52 19
Width: 305
Flags: HW
HStem: 414.77 92.4102<100.728 199.427>
VStem: 11.4674 88.7305<505.807 507.18 508.062 571.031 632.09 655.57> 205.738 89.9502<309.487 426.02 514.034 675.8>
LayerCount: 2
Fore
SplineSet
252.127929688 302.709960938 m 0
 251.6484375 302.700195312 251.16796875 302.690429688 250.688476562 302.690429688 c 0
 226.48828125 302.690429688 206.498046875 321.919921875 205.73828125 346.280273438 c 2
 205.208007812 362.860351562 l 2
 204.547851562 383.790039062 203.877929688 404.879882812 203.288085938 426.01953125 c 1
 176.228515625 418.5 151.0078125 414.76953125 126.658203125 414.76953125 c 0
 97.2177734375 414.76953125 69.0478515625 420.209960938 40.3984375 430.98046875 c 0
 24.408203125 436.990234375 13.1982421875 451.540039062 11.4677734375 468.540039062 c 0
 7.48828125 507.5703125 12.318359375 542.33984375 17.427734375 579.150390625 c 0
 19.7880859375 596.120117188 22.228515625 613.669921875 23.7978515625 632.08984375 c 0
 25.908203125 656.849609375 47.6982421875 675.209960938 72.4677734375 673.08984375 c 0
 97.228515625 670.98046875 115.587890625 649.190429688 113.467773438 624.4296875 c 0
 111.698242188 603.650390625 109.087890625 584.900390625 106.578125 566.76953125 c 0
 103.608398438 545.4296875 100.908203125 525.990234375 100.198242188 507.1796875 c 1
 126.868164062 502.190429688 157.728515625 504.26953125 201.467773438 519.809570312 c 1
 201.137695312 561.120117188 201.59765625 601.900390625 203.498046875 641.26953125 c 0
 204.698242188 666.08984375 225.768554688 685.25 250.618164062 684.049804688 c 0
 275.438476562 682.849609375 294.587890625 661.759765625 293.3984375 636.940429688 c 0
 289.278320312 551.5 292.268554688 457.049804688 295.16796875 365.709960938 c 2
 295.688476562 349.099609375 l 2
 296.467773438 324.259765625 276.967773438 303.490234375 252.127929688 302.709960938 c 0
EndSplineSet
EndChar

StartChar: five
Encoding: 53 53 20
Width: 351
Flags: HW
HStem: 587.82 87.1396<196.224 335.861>
VStem: 12.034 328.09
LayerCount: 2
Fore
SplineSet
337.833984375 414.16015625 m 0
 342.454101562 360.669921875 320.223632812 329.549804688 300.763671875 312.860351562 c 0
 275.053710938 290.809570312 238.404296875 279.8203125 189.963867188 279.8203125 c 0
 154.34375 279.8203125 112.364257812 285.759765625 63.6640625 297.629882812 c 0
 54.5439453125 299.849609375 46.3544921875 304.860351562 40.2236328125 311.969726562 c 0
 15.6240234375 340.51953125 16.984375 385.280273438 43.3037109375 413.879882812 c 0
 60.1435546875 432.16015625 88.6044921875 433.33984375 106.893554688 416.509765625 c 0
 118.1640625 406.129882812 122.93359375 391.33984375 120.994140625 377.240234375 c 1
 211.50390625 360.190429688 237.524414062 377.190429688 242.173828125 381.1796875 c 0
 244.083984375 382.8203125 248.9140625 386.959960938 248.423828125 402.150390625 c 0
 245.93359375 406.3203125 234.944335938 417.3203125 203.32421875 429.040039062 c 0
 166.994140625 442.509765625 115.463867188 452.91015625 50.1640625 459.959960938 c 0
 36.7939453125 461.41015625 24.763671875 468.759765625 17.3837890625 480.009765625 c 0
 9.994140625 491.259765625 8.0341796875 505.219726562 12.0341796875 518.059570312 c 0
 16.154296875 531.299804688 22.8642578125 545.0703125 32.1240234375 559.299804688 c 1
 20.583984375 566.639648438 12.5244140625 579.110351562 11.3740234375 593.780273438 c 0
 9.43359375 618.549804688 27.9541015625 640.209960938 52.7236328125 642.150390625 c 0
 132.534179688 648.400390625 210.383789062 655.610351562 285.303710938 674.959960938 c 0
 309.364257812 681.1796875 333.904296875 666.709960938 340.124023438 642.650390625 c 0
 346.34375 618.580078125 331.874023438 594.040039062 307.814453125 587.8203125 c 0
 256.263671875 574.509765625 204.643554688 566.540039062 152.553710938 560.830078125 c 1
 144.204101562 553.150390625 137.104492188 546.080078125 131.064453125 539.629882812 c 1
 171.82421875 532.620117188 206.484375 523.849609375 234.604492188 513.4296875 c 0
 260.874023438 503.690429688 281.553710938 492.610351562 297.803710938 479.559570312 c 0
 318.954101562 462.559570312 332.143554688 442.4296875 337.00390625 419.709960938 c 0
 337.404296875 417.879882812 337.673828125 416.01953125 337.833984375 414.16015625 c 0
EndSplineSet
EndChar

StartChar: six
Encoding: 54 54 21
Width: 342
Flags: HW
HStem: 234.903 90.0215<175.011 225.108>
VStem: 10.0353 89.9717<406.35 522.503>
LayerCount: 2
Fore
SplineSet
187.46875 234.899414062 m 0
 187.268554688 234.899414062 187.068359375 234.900390625 186.8671875 234.903320312 c 0
 135.665039062 235.587890625 92.2119140625 254.982421875 61.2041015625 290.990234375 c 0
 29.83203125 327.420898438 12.6162109375 379.072265625 10.03515625 444.505859375 c 0
 10.009765625 445.153320312 9.998046875 445.80078125 10 446.450195312 c 0
 10.1708984375 491.866210938 22.19921875 534.576171875 44.78515625 569.96484375 c 0
 67.486328125 605.533203125 100.358398438 633.096679688 139.848632812 649.67578125 c 0
 162.760742188 659.296875 189.138671875 648.51953125 198.760742188 625.603515625 c 0
 208.381835938 602.689453125 197.604492188 576.313476562 174.688476562 566.692382812 c 0
 127.69921875 546.963867188 100.517578125 503.396484375 100.006835938 447.060546875 c 0
 100.649414062 431.936523438 102.297851562 417.998046875 104.903320312 405.409179688 c 1
 113.143554688 420.212890625 123.623046875 433.942382812 136.068359375 446.041992188 c 0
 163.173828125 472.397460938 197.313476562 488.641601562 229.732421875 490.610351562 c 0
 253.154296875 492.03125 274.860351562 486.083007812 292.497070312 473.40625 c 0
 311.30859375 459.884765625 324.4921875 439.336914062 330.624023438 413.983398438 c 0
 330.926757812 412.736328125 331.174804688 411.4765625 331.3671875 410.208984375 c 0
 337.547851562 369.809570312 324.365234375 325.060546875 296.107421875 290.505859375 c 0
 268.421875 256.65234375 230.607421875 236.921875 189.630859375 234.951171875 c 0
 188.911132812 234.916992188 188.189453125 234.899414062 187.46875 234.899414062 c 0
172.799804688 326.157226562 m 1
 177.168945312 325.458007812 181.755859375 325.048828125 186.5703125 324.924804688 c 0
 206.373046875 326.393554688 220.005859375 339.6171875 226.436523438 347.481445312 c 0
 237.950195312 361.559570312 244.184570312 379.852539062 242.646484375 394.68359375 c 0
 241.344726562 399.061523438 239.977539062 400.318359375 239.962890625 400.330078125 c 0
 238.53515625 401.162109375 230.442382812 401.666992188 218.510742188 395.711914062 c 0
 198.916015625 385.932617188 177.591796875 362.735351562 174.120117188 332.955078125 c 0
 173.850585938 330.622070312 173.405273438 328.352539062 172.799804688 326.157226562 c 1
EndSplineSet
EndChar

StartChar: seven
Encoding: 55 55 22
Width: 361
Flags: HW
HStem: 528.04 127.76<22.821 101.952>
LayerCount: 2
Fore
SplineSet
310.565429688 409.01953125 m 0
 292.825195312 407.559570312 274.825195312 405.23046875 257.525390625 402.240234375 c 1
 243.165039062 370.860351562 226.9453125 337.190429688 208.735351562 300.950195312 c 0
 200.834960938 285.219726562 184.96484375 276.139648438 168.485351562 276.139648438 c 0
 161.6953125 276.139648438 154.8046875 277.6796875 148.325195312 280.940429688 c 0
 126.115234375 292.08984375 117.155273438 319.139648438 128.315429688 341.349609375 c 0
 133.28515625 351.25 138.10546875 360.940429688 142.764648438 370.419921875 c 1
 126.254882812 370.469726562 110.375 379.629882812 102.544921875 395.4296875 c 0
 91.5048828125 417.700195312 100.594726562 444.700195312 122.865234375 455.740234375 c 0
 143.365234375 465.91015625 168.145507812 474.190429688 193.985351562 480.75 c 1
 210.174804688 518.290039062 223.125 551.860351562 233.134765625 582.190429688 c 1
 196.53515625 585.940429688 153.844726562 583.5 105.485351562 574.870117188 c 1
 108.325195312 556.259765625 99.21484375 537.120117188 81.5546875 528.040039062 c 0
 59.4453125 516.6796875 32.3154296875 525.389648438 20.955078125 547.5 c 0
 5.4853515625 577.620117188 6.4248046875 609.080078125 23.615234375 636.0703125 c 0
 30.0048828125 646.099609375 40.10546875 653.190429688 51.705078125 655.799804688 c 0
 153.03515625 678.580078125 235.224609375 679.98046875 302.96484375 660.080078125 c 0
 326.235351562 653.25 339.895507812 629.200195312 333.865234375 605.709960938 c 0
 325.594726562 573.51953125 313.935546875 538.0703125 298.46484375 498.3203125 c 1
 300.065429688 498.459960938 301.645507812 498.58984375 303.205078125 498.719726562 c 0
 327.974609375 500.740234375 349.705078125 482.309570312 351.735351562 457.540039062 c 0
 353.764648438 432.76953125 335.334960938 411.049804688 310.565429688 409.01953125 c 0
EndSplineSet
EndChar

StartChar: eight
Encoding: 56 56 23
Width: 342
Flags: HW
HStem: 236.081 90.0107<159.933 240.851>
LayerCount: 2
Fore
SplineSet
200.611328125 236.081054688 m 0
 200.251953125 236.081054688 199.891601562 236.084960938 199.534179688 236.09375 c 0
 141.506835938 237.48046875 104.830078125 249.879882812 84.1103515625 275.116210938 c 0
 70.4208984375 291.7890625 64.89453125 313.297851562 68.4912109375 335.805664062 c 0
 74.599609375 382.48828125 104.12109375 417.319335938 136.385742188 444.024414062 c 1
 119.266601562 455.372070312 100.065429688 467.6171875 78.689453125 480.826171875 c 0
 72.8505859375 484.43359375 68.1259765625 489.159179688 64.619140625 494.555664062 c 1
 44.34375 490.10546875 23.017578125 500.215820312 14.0625 519.8671875 c 0
 3.7568359375 542.482421875 13.7353515625 569.169921875 36.349609375 579.475585938 c 0
 89.3359375 603.623046875 132.49609375 615.959960938 172.176757812 618.302734375 c 0
 226.588867188 621.51171875 272.571289062 605.15234375 308.84375 569.668945312 c 0
 311.633789062 566.939453125 314.057617188 563.858398438 316.052734375 560.502929688 c 0
 322.989257812 548.840820312 329.7265625 529.497070312 322.440429688 503.56640625 c 0
 318.528320312 489.637695312 310.840820312 475.3203125 299.595703125 461.010742188 c 0
 295.159179688 455.365234375 290.197265625 449.737304688 284.747070312 444.159179688 c 1
 319.41796875 411.098632812 332.91796875 383.561523438 332.999023438 353.928710938 c 0
 333 353.686523438 332.998046875 353.4453125 332.995117188 353.203125 c 0
 332.563476562 321.016601562 316.573242188 289.826171875 289.12109375 267.625976562 c 0
 264.444335938 247.670898438 233.202148438 236.46875 201.149414062 236.08203125 c 0
 200.970703125 236.08203125 200.791015625 236.081054688 200.611328125 236.081054688 c 0
159.225585938 331.01953125 m 1
 166.092773438 329.043945312 178.740234375 326.673828125 200.767578125 326.091796875 c 0
 222.630859375 326.666992188 242.165039062 341.749023438 242.977539062 353.787109375 c 0
 242.731445312 354.81640625 240.028320312 363.482421875 218.200195312 383.194335938 c 0
 216.248046875 384.958007812 214.1953125 386.76171875 212.046875 388.60546875 c 0
 181.243164062 366.671875 164.4921875 348.44921875 159.225585938 331.01953125 c 1
172.466796875 528.028320312 m 1
 187.34765625 518.375 201.013671875 509.220703125 213.517578125 500.506835938 c 1
 220.782226562 507.130859375 226.147460938 513.046875 229.810546875 517.817382812 c 1
 216.623046875 525.54296875 198.717773438 530.506835938 172.466796875 528.028320312 c 1
EndSplineSet
EndChar

StartChar: nine
Encoding: 57 57 24
Width: 292
Flags: HW
VStem: 10.0333 89.9893<487.292 528.131>
LayerCount: 2
Fore
SplineSet
229.6015625 263.40625 m 0
 228.307617188 263.40625 227.006835938 263.461914062 225.694335938 263.575195312 c 0
 200.932617188 265.705078125 182.586914062 287.504882812 184.716796875 312.265625 c 0
 187.458007812 344.129882812 189.436523438 372.64453125 190.651367188 397.749023438 c 1
 146.305664062 388.674804688 111.263671875 389.053710938 79.345703125 398.661132812 c 0
 78.654296875 398.869140625 77.9658203125 399.09375 77.2841796875 399.3359375 c 0
 41.98046875 411.845703125 25.8876953125 434.741210938 18.6044921875 451.745117188 c 0
 10.6669921875 470.276367188 9.7939453125 488.53515625 10.033203125 505.504882812 c 0
 10.421875 535.653320312 26.134765625 566.543945312 53.1416015625 590.204101562 c 0
 80.724609375 614.369140625 116.224609375 627.385742188 153.098632812 626.912109375 c 0
 153.998046875 626.900390625 154.897460938 626.861328125 155.793945312 626.794921875 c 0
 193.991210938 623.989257812 222.764648438 612.3359375 243.756835938 591.168945312 c 0
 262.61328125 572.157226562 270.526367188 549.890625 275.780273438 530.618164062 c 0
 276.084960938 529.501953125 276.344726562 528.374023438 276.5625 527.23828125 c 0
 284.553710938 485.471679688 283.862304688 414.711914062 274.383789062 304.551757812 c 0
 272.368164062 281.103515625 252.708007812 263.409179688 229.6015625 263.40625 c 0
106.409179688 484.510742188 m 0
 120.392578125 480.500976562 142.76953125 477.8515625 190.754882812 490.12109375 c 1
 190.178710938 497.16015625 189.416992188 503.346679688 188.470703125 508.6796875 c 0
 186.291992188 516.440429688 183.704101562 523.912109375 179.85546875 527.79296875 c 0
 175.1875 532.5 164.840820312 535.725585938 150.6328125 536.923828125 c 0
 132.0078125 536.791992188 119.125976562 528.203125 113.036132812 523.014648438 c 0
 103.665039062 515.033203125 100.176757812 506.778320312 100.022460938 504.23828125 c 0
 99.93359375 497.806640625 100.08984375 489.67578125 101.333984375 487.170898438 c 0
 101.634765625 486.903320312 102.990234375 485.818359375 106.409179688 484.510742188 c 0
EndSplineSet
EndChar

StartChar: colon
Encoding: 58 58 25
Width: 154
Flags: HW
HStem: 275.988 101.848<61.5277 132.903> 434.054 85.7549<55.2131 107.989>
VStem: 12.1347 102.771<442.572 516.267>
LayerCount: 2
Fore
SplineSet
55.0009765625 431.918945312 m 0
 35.9326171875 431.918945312 18.23046875 444.133789062 12.134765625 463.2734375 c 0
 4.591796875 486.954101562 17.673828125 512.264648438 41.353515625 519.80859375 c 2
 58.37109375 525.23046875 l 2
 82.052734375 532.772460938 107.362304688 519.69140625 114.90625 496.010742188 c 0
 122.44921875 472.330078125 109.368164062 447.018554688 85.6875 439.474609375 c 2
 68.669921875 434.053710938 l 2
 64.12890625 432.607421875 59.525390625 431.918945312 55.0009765625 431.918945312 c 0
99.55078125 275.98828125 m 0
 82.228515625 275.98828125 65.71875 286.046875 58.31640625 302.92578125 c 2
 51.4638671875 318.55078125 l 2
 41.4814453125 341.310546875 51.8408203125 367.853515625 74.6005859375 377.8359375 c 0
 97.3623046875 387.817382812 123.904296875 377.458984375 133.885742188 354.69921875 c 2
 140.73828125 339.07421875 l 2
 150.719726562 316.314453125 140.361328125 289.771484375 117.600585938 279.7890625 c 0
 111.720703125 277.209960938 105.584960938 275.98828125 99.55078125 275.98828125 c 0
EndSplineSet
EndChar

StartChar: semicolon
Encoding: 59 59 26
Width: 159
Flags: HW
VStem: 59.7525 89.9775<194.566 309.461>
LayerCount: 2
Fore
SplineSet
77.857421875 433.864257812 m 0
 58.7900390625 433.86328125 41.0888671875 446.078125 34.9921875 465.217773438 c 0
 30.125 480.495117188 33.84375 496.453125 43.4541015625 507.87890625 c 1
 42.48046875 516.98046875 44.265625 526.4609375 49.1650390625 535.008789062 c 0
 61.5234375 556.5703125 89.0205078125 564.03125 110.584960938 551.670898438 c 0
 130.368164062 540.331054688 141.108398438 518.733398438 138.615234375 495.305664062 c 0
 135.741210938 468.303710938 116.377929688 443.916015625 91.5263671875 436 c 0
 86.986328125 434.552734375 82.3828125 433.865234375 77.857421875 433.864257812 c 0
65.7880859375 473.611328125 m 1
 65.80078125 473.603515625 65.8134765625 473.595703125 65.828125 473.588867188 c 1
 65.814453125 473.596679688 65.80078125 473.603515625 65.7880859375 473.611328125 c 1
55.01171875 96.6806640625 m 0
 42.8837890625 96.6806640625 30.79296875 101.553710938 21.921875 111.171875 c 0
 5.072265625 129.44140625 6.22265625 157.909179688 24.4921875 174.759765625 c 0
 30.111328125 179.943359375 39.716796875 194.053710938 48.2900390625 216.764648438 c 0
 55.6572265625 236.280273438 60.0498046875 256.651367188 59.7529296875 269.927734375 c 0
 59.1982421875 294.774414062 78.8896484375 315.366210938 103.736328125 315.921875 c 0
 104.078125 315.9296875 104.421875 315.932617188 104.760742188 315.932617188 c 0
 129.1484375 315.932617188 149.182617188 296.444335938 149.73046875 271.938476562 c 0
 150.489257812 238.017578125 139.252929688 202.89453125 132.490234375 184.9765625 c 0
 125.341796875 166.04296875 109.732421875 130.9453125 85.509765625 108.6015625 c 0
 76.859375 100.623046875 65.9208984375 96.6806640625 55.01171875 96.6806640625 c 0
EndSplineSet
EndChar

StartChar: less
Encoding: 60 60 27
Width: 293
Flags: HW
LayerCount: 2
Fore
SplineSet
238.807617188 275.202148438 m 0
 233.9140625 275.202148438 228.940429688 276.005859375 224.057617188 277.69921875 c 0
 176.993164062 294.025390625 113.080078125 344.305664062 22.9228515625 435.934570312 c 0
 6.19140625 452.940429688 5.638671875 480.048828125 21.6630859375 497.72265625 c 0
 70.646484375 551.747070312 114.87890625 590.826171875 169.56640625 628.393554688 c 0
 190.049804688 642.465820312 218.065429688 637.268554688 232.137695312 616.784179688 c 0
 246.208984375 596.298828125 241.01171875 568.28515625 220.52734375 554.212890625 c 0
 182.395507812 528.016601562 150.836914062 501.802734375 117.827148438 468.469726562 c 1
 198.688476562 389.915039062 237.169921875 368.412109375 253.553710938 362.728515625 c 0
 277.032226562 354.583984375 289.463867188 328.947265625 281.3203125 305.466796875 c 0
 274.869140625 286.869140625 257.442382812 275.203125 238.807617188 275.202148438 c 0
EndSplineSet
EndChar

StartChar: equal
Encoding: 61 61 28
Width: 276
Flags: HW
HStem: 345.272 89.9648<23.2355 233.85> 492.214 89.248<16.7244 254.832> 586.657 21G<208.444 208.444>
VStem: 10.7676 253.512
LayerCount: 2
Fore
SplineSet
54.95703125 492.213867188 m 0
 33.701171875 492.213867188 14.796875 507.336914062 10.767578125 528.98828125 c 0
 6.220703125 553.421875 22.3408203125 576.915039062 46.7734375 581.461914062 c 0
 63.5263671875 584.580078125 93.34375 584.98828125 140.4609375 585.290039062 c 0
 164.47265625 585.444335938 200.541015625 585.674804688 210.068359375 587.100585938 c 0
 233.41796875 593.01953125 257.448242188 579.434570312 264.279296875 556.129882812 c 0
 271.26953125 532.280273438 257.602539062 507.280273438 233.75390625 500.290039062 c 0
 219.71875 496.17578125 197.180664062 495.65234375 141.037109375 495.291992188 c 0
 114.07421875 495.119140625 73.326171875 494.858398438 63.2421875 492.981445312 c 0
 60.4599609375 492.46484375 57.6865234375 492.213867188 54.95703125 492.213867188 c 0
208.469726562 586.666015625 m 1
 208.458984375 586.663085938 208.44921875 586.66015625 208.438476562 586.657226562 c 1
 208.448242188 586.66015625 208.458984375 586.663085938 208.469726562 586.666015625 c 1
210.559570312 587.180664062 m 1
 210.559570312 587.180664062 210.559570312 587.180664062 210.559570312 587.180664062 c 1
61.4833984375 345.272460938 m 0
 37.4501953125 345.272460938 17.5068359375 364.267578125 16.5498046875 388.49609375 c 0
 15.568359375 413.328125 34.904296875 434.25390625 59.7353515625 435.237304688 c 1
 113.834960938 437.379882812 181.73828125 443.154296875 196.598632812 448.333007812 c 0
 220.071289062 456.513671875 245.723632812 444.119140625 253.903320312 420.651367188 c 0
 262.083984375 397.182617188 249.689453125 371.52734375 226.221679688 363.346679688 c 0
 191.3828125 351.204101562 92.705078125 346.46875 63.291015625 345.306640625 c 0
 62.685546875 345.284179688 62.083984375 345.272460938 61.4833984375 345.272460938 c 0
EndSplineSet
EndChar

StartChar: greater
Encoding: 62 62 29
Width: 363
Flags: HW
LayerCount: 2
Fore
SplineSet
120.680664062 233.610351562 m 0
 111.950195312 233.609375 103.127929688 236.14453125 95.3701171875 241.43359375 c 0
 74.8359375 255.435546875 69.541015625 283.431640625 83.5419921875 303.96484375 c 0
 120.377929688 357.987304688 163.893554688 397.642578125 202.287109375 432.630859375 c 0
 213.459960938 442.813476562 224.370117188 452.755859375 234.712890625 462.680664062 c 1
 214.481445312 472.024414062 194.100585938 480.741210938 174.084960938 489.299804688 c 0
 126.932617188 509.465820312 78.1748046875 530.318359375 31.4404296875 559.044921875 c 0
 10.267578125 572.059570312 3.6552734375 599.774414062 16.669921875 620.947265625 c 0
 29.685546875 642.120117188 57.3984375 648.733398438 78.572265625 635.717773438 c 0
 119.659179688 610.4609375 163.286132812 591.802734375 209.474609375 572.049804688 c 0
 248.913085938 555.18359375 289.692382812 537.744140625 330.224609375 515.413085938 c 0
 341.83984375 509.013671875 350.040039062 497.817382812 352.637695312 484.814453125 c 0
 355.235351562 471.809570312 351.96484375 458.322265625 343.700195312 447.952148438 c 0
 319.775390625 417.934570312 292.15234375 392.76171875 262.908203125 366.111328125 c 0
 226.470703125 332.90625 188.794921875 298.571289062 157.900390625 253.262695312 c 0
 149.189453125 240.487304688 135.059570312 233.610351562 120.680664062 233.610351562 c 0
EndSplineSet
EndChar

StartChar: question
Encoding: 63 63 30
Width: 327
Flags: HW
HStem: 350.863 89.6777<168.427 310.261> 617.622 89.9971<16.8667 177.281>
VStem: 10.002 306.896
LayerCount: 2
Fore
SplineSet
193.58203125 346.080078125 m 0
 182.466796875 346.080078125 171.935546875 346.564453125 161.971679688 347.734375 c 0
 101.89453125 354.78515625 79.978515625 387.314453125 72.171875 413.361328125 c 0
 70.25 419.774414062 69.783203125 426.53515625 70.806640625 433.15234375 c 0
 76.1591796875 467.795898438 105.930664062 509.557617188 150.736328125 569.31640625 c 0
 158.98828125 580.323242188 169.393554688 594.200195312 178.119140625 606.497070312 c 1
 171.192382812 608.151367188 162.3828125 609.86328125 151.254882812 611.443359375 c 0
 125.215820312 615.139648438 91.7880859375 617.27734375 54.5830078125 617.622070312 c 0
 29.7314453125 617.8515625 9.7724609375 638.184570312 10.001953125 663.038085938 c 0
 10.232421875 687.888671875 30.572265625 707.880859375 55.41796875 707.619140625 c 0
 105.211914062 707.157226562 147.267578125 703.887695312 180.415039062 697.901367188 c 0
 215.737304688 691.522460938 264.533203125 678.455078125 280.418945312 638.803710938 c 0
 283.76171875 630.461914062 284.529296875 621.309570312 282.623046875 612.52734375 c 0
 277.565429688 589.213867188 258.612304688 563.165039062 222.743164062 515.326171875 c 0
 207.43359375 494.908203125 191.602539062 473.794921875 179.15234375 454.9296875 c 0
 174.599609375 448.032226562 171.106445312 442.337890625 168.427734375 437.677734375 c 1
 172.993164062 436.951171875 179.228515625 436.340820312 187.646484375 436.15234375 c 0
 209.02734375 435.669921875 236.8828125 438.037109375 266.381835938 440.541015625 c 2
 268.254882812 440.700195312 l 2
 293.021484375 442.798828125 314.796875 424.428710938 316.8984375 399.665039062 c 0
 318.999023438 374.901367188 300.626953125 353.123046875 275.86328125 351.022460938 c 2
 273.993164062 350.86328125 l 2
 244.44921875 348.352539062 217.657226562 346.080078125 193.58203125 346.080078125 c 0
201.7109375 598.052734375 m 1
 201.721679688 598.052734375 l 1
 201.7109375 598.052734375 l 1
159.055664062 216.642578125 m 0
 143.189453125 216.642578125 127.807617188 225.049804688 119.606445312 239.926757812 c 0
 107.608398438 261.692382812 115.525390625 289.061523438 137.290039062 301.059570312 c 2
 165.157226562 316.421875 l 2
 186.91796875 328.418945312 214.291015625 320.50390625 226.290039062 298.73828125 c 0
 238.2890625 276.97265625 230.37109375 249.602539062 208.606445312 237.60546875 c 2
 180.739257812 222.243164062 l 2
 173.8515625 218.4453125 166.401367188 216.642578125 159.055664062 216.642578125 c 0
EndSplineSet
EndChar

StartChar: at
Encoding: 64 64 31
Width: 447
Flags: HW
HStem: 309.46 90.0674<154.405 328.83> 416.618 90.0791<223.852 269.802> 628.753 20G<220.232 236.246> 670.458 89.9922<157.34 334.575>
VStem: 10.0279 89.9941<459.757 616.689> 133.163 89.9893<506.888 551.028>
LayerCount: 2
Fore
SplineSet
229.879882812 309.459960938 m 0
 226.3671875 309.459960938 222.7890625 309.484375 219.129882812 309.533203125 c 0
 186.033203125 309.975585938 155.235351562 317.4296875 127.59375 331.689453125 c 0
 101.5703125 345.114257812 79.0166015625 364.1953125 60.5625 388.40234375 c 0
 27.140625 432.243164062 9.193359375 490.739257812 10.0283203125 553.116210938 c 0
 10.78515625 609.676757812 34.2900390625 662.021484375 76.212890625 700.504882812 c 0
 97.4169921875 719.96875 122.452148438 735.022460938 150.625 745.245117188 c 0
 179.662109375 755.78125 211.342773438 760.893554688 244.807617188 760.450195312 c 0
 291.752929688 759.822265625 331.5703125 751.704101562 363.154296875 736.322265625 c 0
 412.284179688 712.393554688 428.516601562 677.34375 433.484375 652.154296875 c 0
 433.580078125 651.669921875 433.666992188 651.18359375 433.747070312 650.696289062 c 0
 443.080078125 593.494140625 432.90625 544.216796875 405.09765625 511.944335938 c 0
 394.077148438 499.154296875 376.470703125 484.672851562 350.072265625 477.708007812 c 1
 347.328125 472.18359375 344.034179688 466.944335938 340.213867188 462.053710938 c 0
 330.313476562 449.381835938 317.077148438 439.11328125 300.872070312 431.532226562 c 0
 272.076171875 418.061523438 241.1640625 416.413085938 225.302734375 416.618164062 c 0
 169.366210938 417.3671875 132.338867188 459.302734375 133.1640625 520.969726562 c 0
 133.537109375 548.834960938 141.802734375 577.751953125 155.84375 600.306640625 c 0
 175.043945312 631.1484375 204.276367188 648.752929688 236.189453125 648.752929688 c 0
 236.303710938 648.752929688 236.416992188 648.752929688 236.532226562 648.751953125 c 0
 260.407226562 649.11328125 279.572265625 642.1953125 293.510742188 628.19921875 c 0
 302.620117188 619.052734375 313.342773438 602.724609375 312.698242188 576.870117188 c 0
 312.579101562 572.120117188 311.727539062 567.55859375 310.256835938 563.295898438 c 1
 311.99609375 563.475585938 313.770507812 563.5546875 315.552734375 563.534179688 c 0
 330.577148438 563.334960938 335.020507812 568.490234375 336.91796875 570.692382812 c 0
 344.103515625 579.03125 350.5 600.9140625 345.07421875 635.260742188 c 0
 342.943359375 644.3515625 332.34765625 651.219726562 323.749023438 655.408203125 c 0
 304.71875 664.67578125 276.256835938 670.021484375 243.606445312 670.458007812 c 0
 200.349609375 671.034179688 163.543945312 658.5 137.078125 634.205078125 c 0
 113.603515625 612.657226562 100.4453125 583.432617188 100.022460938 551.9140625 c 0
 99.4560546875 509.568359375 110.862304688 470.876953125 132.138671875 442.967773438 c 0
 153.73828125 414.635742188 183.412109375 400.01953125 220.337890625 399.52734375 c 0
 304.861328125 398.392578125 325.155273438 413.047851562 329.721679688 421.8828125 c 0
 341.131835938 443.9609375 368.279296875 452.609375 390.360351562 441.198242188 c 0
 412.4375 429.787109375 421.086914062 402.638671875 409.674804688 380.559570312 c 0
 394.146484375 350.514648438 365.677734375 329.869140625 325.05859375 319.193359375 c 0
 299.922851562 312.587890625 269.47265625 309.459960938 229.879882812 309.459960938 c 0
224.879882812 506.697265625 m 0
 225.306640625 506.653320312 225.84375 506.618164062 226.50390625 506.610351562 c 0
 239.958984375 506.431640625 253.853515625 508.899414062 262.734375 513.052734375 c 0
 269.818359375 516.3671875 269.89453125 518.240234375 269.986328125 520.407226562 c 0
 270.172851562 524.887695312 271.008789062 529.1953125 272.403320312 533.234375 c 1
 270.495117188 533.036132812 268.559570312 532.956054688 266.584960938 533.006835938 c 0
 252.098632812 533.369140625 239.3828125 540.537109375 231.420898438 551.376953125 c 1
 227.309570312 544.008789062 223.321289062 532.349609375 223.153320312 519.765625 c 0
 223.0625 513.004882812 224.106445312 508.720703125 224.879882812 506.697265625 c 0
EndSplineSet
EndChar

StartChar: A
Encoding: 65 65 32
Width: 393
Flags: HW
LayerCount: 2
Fore
SplineSet
377.776367188 345.950195312 m 2
 220.875976562 629.959960938 l 2
 210.5859375 648.580078125 188.666015625 657.450195312 168.31640625 651.23046875 c 0
 147.9765625 645 134.776367188 625.379882812 136.666015625 604.190429688 c 0
 138.125976562 587.870117188 127.125976562 540.73046875 91.3359375 461.58984375 c 0
 84.4560546875 446.370117188 77.556640625 431.959960938 70.916015625 418.700195312 c 0
 68.5166015625 413.91015625 66.15625 409.259765625 63.8359375 404.790039062 c 0
 46.2666015625 370.790039062 31.49609375 346.419921875 25.576171875 338.940429688 c 0
 8.8466796875 324.51953125 4.8759765625 299.620117188 17.1767578125 280.51953125 c 0
 25.7763671875 267.169921875 40.255859375 259.879882812 55.0458984375 259.879882812 c 0
 63.38671875 259.879882812 71.8359375 262.200195312 79.3662109375 267.059570312 c 0
 88.0859375 272.669921875 97.9658203125 281.299804688 122.736328125 324.599609375 c 0
 127.255859375 332.509765625 131.916015625 340.950195312 136.606445312 349.759765625 c 1
 264.8359375 364.259765625 l 1
 298.99609375 302.4296875 l 2
 311.016601562 280.669921875 338.396484375 272.780273438 360.146484375 284.799804688 c 0
 381.90625 296.8203125 389.795898438 324.190429688 377.776367188 345.950195312 c 2
182.646484375 445.540039062 m 1
 188.49609375 459.120117188 193.776367188 472.080078125 198.465820312 484.41015625 c 1
 217.74609375 449.509765625 l 1
 182.646484375 445.540039062 l 1
70.916015625 418.700195312 m 1
 68.5166015625 413.91015625 66.15625 409.259765625 63.8359375 404.790039062 c 1
 65.3759765625 409.83984375 67.7861328125 414.540039062 70.916015625 418.700195312 c 1
EndSplineSet
EndChar

StartChar: B
Encoding: 66 66 33
Width: 424
Flags: HW
HStem: 215.55 112.32<210.88 300.362> 555.077 91.0322<115.393 248.497>
VStem: 324.359 89.6426<307.809 367.324>
LayerCount: 2
Fore
SplineSet
308.307617188 215.549804688 m 0
 278.416015625 215.548828125 242.888671875 224.107421875 201.227539062 241.240234375 c 0
 194.966796875 243.815429688 189.598632812 247.638671875 185.290039062 252.305664062 c 1
 180.330078125 247.2109375 174.087890625 243.221679688 166.84765625 240.892578125 c 0
 143.186523438 233.284179688 117.83984375 246.29296875 110.23046875 269.953125 c 0
 109.491210938 272.254882812 35.93359375 500.899414062 12.3876953125 570.26953125 c 0
 8.11328125 582.864257812 9.62890625 596.704101562 16.52734375 608.075195312 c 0
 23.42578125 619.446289062 35.001953125 627.181640625 48.1455078125 629.208007812 c 0
 50.4130859375 629.556640625 104.302734375 637.818359375 161.157226562 642.750976562 c 0
 195.485351562 645.728515625 223.900390625 646.860351562 245.619140625 646.109375 c 0
 274.666015625 645.107421875 306.205078125 640.805664062 323.01953125 617.456054688 c 0
 351.069335938 583.536132812 351.375 551.055664062 346.572265625 529.587890625 c 0
 341.467773438 506.782226562 327.998046875 484.934570312 306.458984375 464.48046875 c 1
 317.896484375 460.57421875 328.536132812 456.040039062 338.35546875 450.881835938 c 0
 383.021484375 427.424804688 409.875976562 390.745117188 413.969726562 347.598632812 c 0
 413.98046875 347.483398438 413.991210938 347.366210938 414.000976562 347.249023438 c 0
 416.123046875 322.875 414.32421875 302.213867188 408.50390625 284.084960938 c 0
 401.911132812 263.55078125 390.37109375 247.115234375 374.205078125 235.236328125 c 0
 356.348632812 222.1171875 334.489257812 215.549804688 308.307617188 215.549804688 c 0
218.360351562 327.870117188 m 0
 224.0625 327.870117188 229.859375 326.779296875 235.4609375 324.475585938 c 0
 292.086914062 301.188476562 316.743164062 304.697265625 320.913085938 307.763671875 c 0
 322.0625 308.609375 326.275390625 316.862304688 324.358398438 339.2421875 c 0
 323.140625 351.385742188 313.772460938 362.137695312 296.509765625 371.204101562 c 0
 277.90625 380.974609375 242.3828125 392.58984375 178.71484375 392.58984375 c 0
 178.376953125 392.58984375 178.044921875 392.583984375 177.69921875 392.588867188 c 0
 173.166992188 392.588867188 168.766601562 393.264648438 164.604492188 394.53125 c 1
 174.85546875 362.83984375 183.805664062 335.087890625 189.500976562 317.411132812 c 1
 197.55859375 324.125976562 207.796875 327.870117188 218.360351562 327.870117188 c 0
114.840820312 547.403320312 m 1
 122.989257812 522.635742188 132.385742188 493.837890625 141.833984375 464.768554688 c 1
 146.295898438 470.662109375 152.249023438 475.510742188 159.375976562 478.688476562 c 0
 232.665039062 511.364257812 256.319335938 538.411132812 258.744140625 549.2421875 c 0
 259.083007812 550.756835938 258.577148438 552.708007812 257.235351562 555.077148438 c 0
 246.392578125 556.470703125 218.040039062 558.021484375 152.896484375 551.598632812 c 0
 139.544921875 550.284179688 126.588867188 548.825195312 114.840820312 547.403320312 c 1
EndSplineSet
EndChar

StartChar: C
Encoding: 67 67 34
Width: 360
Flags: HW
HStem: 341.781 87.2588<104.919 344.916> 540.341 89.748<128.804 231.081>
LayerCount: 2
Fore
SplineSet
180.494140625 321.48046875 m 0
 133.12890625 321.478515625 96.0458984375 331.763671875 67.298828125 352.834960938 c 0
 32.3388671875 378.4609375 13.0859375 417.591796875 10.076171875 469.141601562 c 0
 9.9326171875 471.59765625 9.9912109375 474.061523438 10.2509765625 476.508789062 c 0
 14.806640625 519.4765625 34.140625 556.590820312 66.162109375 583.837890625 c 0
 97.380859375 610.401367188 139.954101562 626.393554688 189.284179688 630.088867188 c 0
 214.071289062 631.955078125 235.663085938 613.360351562 237.51953125 588.577148438 c 0
 239.375976562 563.79296875 220.790039062 542.198242188 196.006835938 540.340820312 c 0
 163.389648438 537.897460938 108.250976562 525.534179688 100.197265625 470.583984375 c 1
 103.000976562 438.250976562 116.09375 428.65625 120.504882812 425.421875 c 0
 139.225585938 411.701171875 184.68359375 401.190429688 294.9375 429.040039062 c 0
 319.030273438 435.123046875 343.500976562 420.52734375 349.587890625 396.430664062 c 0
 355.673828125 372.334960938 341.073242188 347.8671875 316.978515625 341.78125 c 0
 266.317382812 328.985351562 224.151367188 322.372070312 188.0703125 321.56640625 c 0
 185.518554688 321.5078125 182.990234375 321.48046875 180.494140625 321.48046875 c 0
EndSplineSet
EndChar

StartChar: D
Encoding: 68 68 35
Width: 405
Flags: HW
HStem: 307.196 90.7803<166.905 278.239> 535.711 89.9912<128.355 243.564>
LayerCount: 2
Fore
SplineSet
139.107421875 307.196289062 m 0
 137.766601562 307.196289062 136.424804688 307.19921875 135.073242188 307.206054688 c 0
 113.419921875 307.30859375 94.9072265625 322.8203125 91.0185546875 344.123046875 c 0
 72.958984375 443.032226562 40.921875 518.78515625 16.9609375 556.698242188 c 0
 8.3759765625 570.28125 7.685546875 587.412109375 15.1494140625 601.642578125 c 0
 22.61328125 615.873046875 37.1005859375 625.04296875 53.1552734375 625.702148438 c 0
 135.296875 629.069335938 201.012695312 622.625 254.059570312 605.997070312 c 0
 314.969726562 586.905273438 358.346679688 554.02734375 382.983398438 508.276367188 c 0
 383.897460938 506.580078125 384.701171875 504.826171875 385.389648438 503.02734375 c 0
 406.612304688 447.583007812 392.005859375 408.37890625 376.016601562 385.254882812 c 0
 340.198242188 333.451171875 260.499023438 307.196289062 139.107421875 307.196289062 c 0
128.35546875 535.7109375 m 1
 145.639648438 494.794921875 160.657226562 447.4140625 171.849609375 397.9765625 c 1
 250.138671875 401.860351562 290.33984375 419.588867188 301.991210938 436.440429688 c 0
 304.103515625 439.495117188 309.571289062 447.400390625 302.346679688 468.09765625 c 1
 288.7265625 491.501953125 264.08984375 508.534179688 227.141601562 520.115234375 c 0
 200.131835938 528.583007812 167.060546875 533.79296875 128.35546875 535.7109375 c 1
EndSplineSet
EndChar

StartChar: E
Encoding: 69 69 36
Width: 286
Flags: HW
HStem: 255.835 90.6914<109.286 211.59>
LayerCount: 2
Fore
SplineSet
145.555664062 255.834960938 m 0
 137.321289062 255.834960938 129.31640625 256.538085938 121.508789062 257.940429688 c 0
 83.375 264.790039062 52.099609375 287.901367188 28.5498046875 326.631835938 c 0
 26.6630859375 329.735351562 25.1591796875 333.055664062 24.0703125 336.521484375 c 0
 14.8310546875 365.924804688 16.1826171875 399.577148438 27.876953125 431.276367188 c 0
 33.0888671875 445.403320312 40.2314453125 458.915039062 49.1123046875 471.564453125 c 1
 18.0439453125 500.91015625 4.3076171875 543.134765625 12.17578125 591.360351562 c 0
 13.140625 597.267578125 15.2744140625 602.924804688 18.451171875 607.999023438 c 0
 40.154296875 642.651367188 76.87890625 665.461914062 116.69140625 669.018554688 c 0
 138.669921875 670.981445312 160.60546875 667.19921875 181.891601562 657.775390625 c 0
 203.508789062 648.205078125 223.954101562 632.916992188 242.659179688 612.336914062 c 0
 259.375 593.9453125 258.016601562 565.485351562 239.624023438 548.76953125 c 0
 221.233398438 532.0546875 192.772460938 533.4140625 176.05859375 551.8046875 c 0
 163.7265625 565.374023438 144.809570312 581.170898438 124.698242188 579.376953125 c 0
 114.352539062 578.453125 105.849609375 573.07421875 99.9775390625 566.932617188 c 1
 99.2041015625 544.991210938 109.93359375 531.936523438 134.473632812 524.140625 c 0
 150.546875 519.03515625 162.415039062 505.369140625 165.221679688 488.739257812 c 0
 168.02734375 472.109375 161.296875 455.305664062 147.788085938 445.208984375 c 0
 115.017578125 420.71484375 104.846679688 389.311523438 108.75390625 368.263671875 c 1
 120.130859375 351.6328125 129.961914062 347.865234375 137.420898438 346.526367188 c 0
 149.186523438 344.412109375 171.37890625 346.297851562 210.30078125 367.28125 c 0
 232.176757812 379.07421875 259.47265625 370.901367188 271.266601562 349.0234375 c 0
 283.059570312 327.147460938 274.883789062 299.8515625 253.0078125 288.05859375 c 0
 212.986328125 266.482421875 177.578125 255.836914062 145.555664062 255.834960938 c 0
EndSplineSet
EndChar

StartChar: F
Encoding: 70 70 37
Width: 359
Flags: HW
HStem: 555.22 87.2998<133.526 312.622>
VStem: 84.3919 89.96<290.689 395.323>
LayerCount: 2
Fore
SplineSet
310.811523438 416.280273438 m 2
 172.202148438 396.41015625 l 1
 174.311523438 373.209960938 175.041992188 350.099609375 174.3515625 327.5 c 0
 173.6015625 303.129882812 153.612304688 283.889648438 129.391601562 283.889648438 c 0
 128.931640625 283.889648438 128.461914062 283.889648438 127.981445312 283.91015625 c 0
 103.141601562 284.669921875 83.6318359375 305.4296875 84.3916015625 330.26953125 c 0
 87.6416015625 436 54.072265625 537.530273438 19.2314453125 583.169921875 c 0
 9.6123046875 595.76953125 7.33203125 612.509765625 13.2314453125 627.219726562 c 0
 19.1318359375 641.940429688 32.341796875 652.459960938 48.01171875 654.9296875 c 0
 116.731445312 665.740234375 225.801757812 657.240234375 284.561523438 642.51953125 c 0
 308.671875 636.48046875 323.311523438 612.040039062 317.271484375 587.9296875 c 0
 311.231445312 563.8203125 286.791992188 549.1796875 262.692382812 555.219726562 c 0
 230.391601562 563.309570312 177.631835938 569.209960938 129.551757812 569.809570312 c 1
 138.791992188 548.5 146.921875 525.01953125 153.721679688 499.83984375 c 0
 155.032226562 494.990234375 156.282226562 490.120117188 157.471679688 485.219726562 c 1
 298.032226562 505.370117188 l 2
 322.631835938 508.900390625 345.431640625 491.8203125 348.961914062 467.209960938 c 0
 352.4921875 442.610351562 335.412109375 419.809570312 310.811523438 416.280273438 c 2
EndSplineSet
EndChar

StartChar: G
Encoding: 71 71 38
Width: 409
Flags: HW
HStem: 265.123 89.9844<354.415 393.103> 288.722 90.002<150.367 229.155> 529.686 121.436<193.847 253.071>
VStem: 10.0672 89.9336<393.336 492.383>
LayerCount: 2
Fore
SplineSet
354.3984375 265.115234375 m 0xb0
 330.267578125 265.11328125 306.796875 275.908203125 284.611328125 297.211914062 c 0
 278.373046875 303.202148438 272.501953125 309.71875 266.953125 316.391601562 c 1
 237.385742188 297.997070312 200.891601562 288.723632812 157.853515625 288.721679688 c 0
 155.337890625 288.721679688 152.80859375 288.752929688 150.247070312 288.817382812 c 0
 147.478515625 288.884765625 144.721679688 289.209960938 142.012695312 289.78515625 c 0
 104.309570312 297.791992188 73.97265625 312.737304688 51.845703125 334.20703125 c 0
 27.7734375 357.563476562 13.78125 387.765625 10.2578125 423.973632812 c 0
 10.1611328125 424.966796875 10.09765625 425.962890625 10.0673828125 426.959960938 c 0
 8.0029296875 494.612304688 53.8916015625 560.96484375 92.7509765625 604.71484375 c 0
 93.962890625 606.080078125 95.2568359375 607.369140625 96.6240234375 608.576171875 c 0
 116.534179688 626.140625 135.961914062 638.853515625 154.366210938 646.361328125 c 0
 177.514648438 655.802734375 199.391601562 657.404296875 219.393554688 651.12109375 c 0
 235.963867188 645.916015625 265.443359375 630.283203125 276.7109375 584.064453125 c 0
 282.59765625 559.91796875 267.794921875 535.573242188 243.6484375 529.685546875 c 0
 219.509765625 523.80078125 195.15625 538.6015625 189.270507812 562.748046875 c 0
 189.219726562 562.958007812 189.16796875 563.162109375 189.116210938 563.360351562 c 1
 182.984375 560.958984375 172.512695312 555.186523438 158.189453125 542.8515625 c 0
 121.46875 500.954101562 99.8701171875 459.4765625 100.000976562 431.106445312 c 0
 102.375976562 410.018554688 111.514648438 389.35546875 156.672851562 378.723632812 c 1x70
 207.598632812 378.447265625 227.397460938 396.120117188 237.891601562 409.638671875 c 0
 246.41796875 420.623046875 259.540039062 427.043945312 273.4375 427.043945312 c 0
 273.518554688 427.043945312 273.599609375 427.043945312 273.681640625 427.043945312 c 0
 287.668945312 426.967773438 300.82421875 420.392578125 309.28125 409.251953125 c 0
 312.173828125 405.443359375 315.109375 401.473632812 317.94921875 397.635742188 c 0
 326.143554688 386.561523438 334.6171875 375.112304688 342.814453125 366.3359375 c 0
 350.216796875 358.412109375 354.4609375 355.83984375 355.920898438 355.107421875 c 0
 380.024414062 354.565429688 399.55078125 335.016601562 399.87109375 310.713867188 c 0
 400.200195312 285.864257812 380.321289062 265.452148438 355.471679688 265.123046875 c 0
 355.114257812 265.1171875 354.75390625 265.115234375 354.3984375 265.115234375 c 0xb0
EndSplineSet
EndChar

StartChar: H
Encoding: 72 72 39
Width: 403
Flags: HW
HStem: 398.36 88.71<189.754 250.987>
VStem: 63.2279 89.3994<285.969 363.515>
LayerCount: 2
Fore
SplineSet
362.3671875 278.23046875 m 0
 357.747070312 276.73046875 353.077148438 276.01953125 348.477539062 276.01953125 c 0
 329.497070312 276.01953125 311.846679688 288.129882812 305.676757812 307.16015625 c 0
 296.27734375 336.150390625 287.27734375 366.809570312 278.577148438 396.459960938 c 0
 278.38671875 397.08984375 278.20703125 397.719726562 278.016601562 398.360351562 c 0
 239.426757812 397.790039062 209.477539062 390.780273438 188.77734375 377.459960938 c 0
 168.626953125 364.48046875 157.13671875 345.3203125 152.626953125 317.139648438 c 0
 149.107421875 295.120117188 130.096679688 279.25 108.237304688 279.25 c 0
 106.747070312 279.25 105.247070312 279.3203125 103.727539062 279.469726562 c 0
 80.02734375 281.83984375 62.27734375 302.259765625 63.2275390625 326.059570312 c 0
 66.38671875 404.41015625 48.3974609375 493.91015625 13.88671875 571.599609375 c 0
 3.796875 594.309570312 14.02734375 620.900390625 36.7373046875 630.990234375 c 0
 59.45703125 641.080078125 86.046875 630.849609375 96.13671875 608.139648438 c 0
 117.897460938 559.150390625 133.817382812 507.190429688 143.306640625 455.169921875 c 1
 172.166992188 472.870117188 208.237304688 483.549804688 250.987304688 487.0703125 c 1
 240.107421875 520.309570312 228.647460938 551.120117188 216.157226562 576.059570312 c 0
 205.02734375 598.280273438 214.02734375 625.3203125 236.247070312 636.450195312 c 0
 258.466796875 647.580078125 285.506835938 638.580078125 296.626953125 616.360351562 c 0
 323.676757812 562.349609375 344.647460938 490.900390625 364.9375 421.809570312 c 0
 373.466796875 392.75 382.287109375 362.709960938 391.296875 334.91015625 c 0
 398.95703125 311.26953125 386.006835938 285.889648438 362.3671875 278.23046875 c 0
EndSplineSet
EndChar

StartChar: I
Encoding: 73 73 40
Width: 198
Flags: HW
HStem: 310.784 21G<134.042 145.774>
LayerCount: 2
Fore
SplineSet
143.13671875 310.784179688 m 0
 124.947265625 310.784179688 107.822265625 321.889648438 101.024414062 339.916015625 c 0
 94.5146484375 357.174804688 87.9326171875 375.034179688 81.56640625 392.3046875 c 0
 59.56640625 451.994140625 36.8173828125 513.716796875 14.9970703125 556.119140625 c 0
 3.625 578.217773438 12.3212890625 605.349609375 34.4189453125 616.721679688 c 0
 56.517578125 628.091796875 83.6513671875 619.399414062 95.0224609375 597.299804688 c 0
 119.360351562 550.00390625 143.077148438 485.658203125 166.013671875 423.4296875 c 0
 172.321289062 406.31640625 178.84375 388.619140625 185.233398438 371.676757812 c 0
 194.00390625 348.422851562 182.263671875 322.462890625 159.009765625 313.692382812 c 0
 153.780273438 311.71875 148.412109375 310.784179688 143.13671875 310.784179688 c 0
EndSplineSet
EndChar

StartChar: J
Encoding: 74 74 41
Width: 265
Flags: HW
VStem: 165.076 90.4072<307.54 374.542>
LayerCount: 2
Fore
SplineSet
153.086914062 216.87109375 m 0
 143.412109375 216.87109375 132.8046875 217.786132812 121.166015625 219.87109375 c 2
 48.9072265625 229.752929688 l 2
 24.283203125 233.120117188 7.052734375 255.811523438 10.419921875 280.435546875 c 0
 13.7880859375 305.05859375 36.482421875 322.291015625 61.1015625 318.922851562 c 2
 134.333007812 308.908203125 l 2
 135.021484375 308.814453125 135.709960938 308.703125 136.39453125 308.577148438 c 0
 153.336914062 305.452148438 162.348632812 307.323242188 165.075195312 308.556640625 c 0
 166.130859375 312.221679688 166.348632812 324.828125 156.349609375 347.54296875 c 0
 156.170898438 347.94921875 155.998046875 348.357421875 155.83203125 348.768554688 c 0
 124.091796875 427.07421875 71.1767578125 508.852539062 32.240234375 559.276367188 c 0
 17.0517578125 578.946289062 20.68359375 607.20703125 40.3544921875 622.396484375 c 0
 60.0234375 637.584960938 88.2841796875 633.953125 103.474609375 614.282226562 c 0
 124.099609375 587.573242188 194.736328125 492.080078125 238.997070312 383.174804688 c 0
 249.41015625 359.346679688 254.958007812 336.931640625 255.482421875 316.543945312 c 0
 256.122070312 291.8046875 249.28125 269.655273438 235.704101562 252.490234375 c 0
 224.296875 238.068359375 199.598632812 216.873046875 153.086914062 216.87109375 c 0
EndSplineSet
EndChar

StartChar: K
Encoding: 75 75 42
Width: 491
Flags: HW
LayerCount: 2
Fore
SplineSet
472.759765625 282.3203125 m 0
 463.958984375 270.16015625 450.208984375 263.700195312 436.259765625 263.700195312 c 0
 427.119140625 263.700195312 417.889648438 266.469726562 409.918945312 272.240234375 c 0
 363.029296875 306.16015625 292.979492188 336.83984375 184.619140625 370.709960938 c 1
 190.2890625 339.5703125 195.349609375 308.330078125 200.259765625 278.01953125 c 0
 204.229492188 253.48046875 187.569335938 230.379882812 163.0390625 226.400390625 c 0
 160.599609375 226 158.168945312 225.809570312 155.779296875 225.809570312 c 0
 134.099609375 225.809570312 114.999023438 241.530273438 111.418945312 263.620117188 c 0
 92.7998046875 378.540039062 69.6298828125 521.549804688 19.6494140625 585 c 0
 4.26953125 604.530273438 7.6396484375 632.8203125 27.1591796875 648.200195312 c 0
 46.6796875 663.5703125 74.9794921875 660.209960938 90.349609375 640.690429688 c 0
 122.299804688 600.129882812 144.349609375 542.959960938 161.059570312 479.549804688 c 1
 191.799804688 524.459960938 214.168945312 571.549804688 229.08984375 622.5703125 c 0
 236.059570312 646.419921875 261.059570312 660.099609375 284.909179688 653.129882812 c 0
 308.759765625 646.16015625 322.44921875 621.169921875 315.469726562 597.309570312 c 0
 299.6796875 543.299804688 276.899414062 493.150390625 246.359375 445.370117188 c 1
 345.279296875 412.51953125 413.2890625 380.879882812 462.668945312 345.16015625 c 0
 482.809570312 330.58984375 487.319335938 302.459960938 472.759765625 282.3203125 c 0
EndSplineSet
EndChar

StartChar: L
Encoding: 76 76 43
Width: 328
Flags: HW
VStem: 11.9379 89.665<365.264 643.063>
LayerCount: 2
Fore
SplineSet
189.938476562 260.149414062 m 0
 156.002929688 260.1484375 115.403320312 267.803710938 67.2197265625 283.20703125 c 0
 51.2138671875 288.323242188 39.3935546875 301.9296875 36.5634765625 318.493164062 c 0
 19.4150390625 418.874023438 4.5634765625 523.506835938 11.9375 608.696289062 c 0
 14.080078125 633.45703125 35.8935546875 651.791015625 60.650390625 649.6484375 c 0
 85.41015625 647.504882812 103.745117188 625.6953125 101.602539062 600.934570312 c 0
 95.736328125 533.163085938 106.608398438 446.889648438 120.651367188 361.249023438 c 1
 174.797851562 346.704101562 201.091796875 349.426757812 212.5 352.780273438 c 0
 222.615234375 355.752929688 227.225585938 360.340820312 232.229492188 372.416015625 c 0
 241.745117188 395.375976562 268.069335938 406.2734375 291.029296875 396.759765625 c 0
 313.98828125 387.245117188 324.887695312 360.919921875 315.373046875 337.9609375 c 0
 299.893554688 300.60546875 274.543945312 277.20703125 237.877929688 266.431640625 c 0
 223.642578125 262.249023438 207.700195312 260.150390625 189.938476562 260.149414062 c 0
EndSplineSet
EndChar

StartChar: M
Encoding: 77 77 44
Width: 459
Flags: HW
VStem: 356.61 88.3809<318.533 460.881>
LayerCount: 2
Fore
SplineSet
54.966796875 256.283203125 m 0
 45.8837890625 256.283203125 36.716796875 259.024414062 28.7724609375 264.72265625 c 0
 8.5791015625 279.208984375 3.9521484375 307.32421875 18.439453125 327.517578125 c 0
 51.4892578125 373.5859375 56.373046875 458.572265625 58.765625 549.001953125 c 0
 59.1767578125 564.529296875 67.5654296875 578.747070312 80.9599609375 586.614257812 c 0
 94.3525390625 594.481445312 110.857421875 594.8828125 124.6171875 587.680664062 c 0
 162.037109375 568.094726562 202.107421875 536.82421875 237.943359375 499.873046875 c 1
 252.959960938 529.055664062 265.524414062 565.202148438 271.626953125 599.147460938 c 0
 274.287109375 613.956054688 284.174804688 626.454101562 297.97265625 632.454101562 c 0
 311.770507812 638.453125 327.653320312 637.16015625 340.299804688 629.0078125 c 0
 405.237304688 587.143554688 425.447265625 482.043945312 444.991210938 380.404296875 c 0
 446.067382812 374.807617188 447.138671875 369.234375 448.21484375 363.697265625 c 0
 452.94921875 339.299804688 437.010742188 315.682617188 412.612304688 310.947265625 c 0
 409.717773438 310.384765625 406.831054688 310.114257812 403.989257812 310.114257812 c 0
 382.874023438 310.11328125 364.036132812 325.044921875 359.862304688 346.547851562 c 0
 358.778320312 352.134765625 357.696289062 357.759765625 356.610351562 363.408203125 c 0
 348.653320312 404.788085938 340.442382812 447.489257812 329.505859375 482.999023438 c 1
 318.583007812 457.90625 300.375 422.658203125 275.169921875 395.686523438 c 0
 266.170898438 386.057617188 253.396484375 380.858398438 240.23828125 381.459960938 c 0
 227.073242188 382.061523438 214.833007812 388.404296875 206.75 398.813476562 c 0
 188.41796875 422.420898438 167.004882812 444.91796875 145.005859375 464.107421875 c 1
 143.34765625 441.53515625 141.005859375 419.451171875 137.571289062 398.702148438 c 0
 128.958007812 346.642578125 113.909179688 306.197265625 91.56640625 275.052734375 c 0
 82.779296875 262.805664062 68.9736328125 256.283203125 54.966796875 256.283203125 c 0
EndSplineSet
EndChar

StartChar: N
Encoding: 78 78 45
Width: 428
Flags: HW
VStem: 328.51 90.0371<437.242 577.819>
LayerCount: 2
Fore
SplineSet
54.978515625 290.53515625 m 0
 48.3720703125 290.53515625 41.6650390625 291.99609375 35.32421875 295.080078125 c 0
 12.9765625 305.953125 3.6728515625 332.8828125 14.544921875 355.232421875 c 0
 42.33203125 412.346679688 47.5302734375 510.6796875 51.7080078125 589.69140625 c 2
 52.1201171875 597.463867188 l 2
 53.1826171875 617.420898438 67.279296875 634.286132812 86.7314453125 638.872070312 c 0
 106.186523438 643.456054688 126.329101562 634.665039062 136.193359375 617.284179688 c 0
 138.841796875 612.6171875 141.47265625 607.975585938 144.083007812 603.368164062 c 0
 169.828125 557.936523438 194.145507812 515.025390625 216.377929688 482.8828125 c 0
 240.9609375 447.342773438 255.149414062 436.599609375 261.379882812 433.361328125 c 0
 276.899414062 429.631835938 296.39453125 427.491210938 307.528320312 435.927734375 c 0
 319.983398438 445.36328125 327.590820312 471.048828125 328.509765625 506.583007812 c 1
 323.250976562 562.995117188 307.055664062 584.59765625 280.98828125 602.606445312 c 0
 260.541015625 616.732421875 255.416015625 644.759765625 269.541992188 665.208007812 c 0
 283.66796875 685.65625 311.6953125 690.782226562 332.145507812 676.654296875 c 0
 358.283203125 658.596679688 377.671875 637.512695312 391.420898438 612.198242188 c 0
 406.0703125 585.22265625 414.891601562 552.4453125 418.387695312 511.989257812 c 0
 418.521484375 510.440429688 418.575195312 508.884765625 418.546875 507.330078125 c 0
 417.370117188 439.943359375 398.301757812 391.783203125 361.87109375 364.186523438 c 0
 344.7734375 351.236328125 324.536132812 343.416015625 301.721679688 340.946289062 c 0
 281.56640625 338.763671875 259.21484375 340.84375 235.283203125 347.127929688 c 0
 233.5625 347.580078125 231.87109375 348.1328125 230.216796875 348.78515625 c 0
 201.208984375 360.213867188 174.11328125 385.78125 142.361328125 431.685546875 c 0
 138.502929688 437.263671875 134.625 443.0703125 130.7265625 449.075195312 c 1
 124.284179688 400.541992188 113.836914062 353.59765625 95.4775390625 315.860351562 c 0
 87.6884765625 299.850585938 71.6591796875 290.53515625 54.978515625 290.53515625 c 0
EndSplineSet
EndChar

StartChar: O
Encoding: 79 79 46
Width: 381
Flags: HW
HStem: 293.181 90.1709<121.888 201.543 201.728 256.718> 489.071 103.661<110.49 278.082>
VStem: 281.337 90.1602<408.217 489.328>
LayerCount: 2
Fore
SplineSet
201.563476562 293.163085938 m 0
 201.133789062 293.163085938 200.706054688 293.168945312 200.275390625 293.180664062 c 0
 146.65234375 294.716796875 105.626953125 304.430664062 74.853515625 322.87890625 c 0
 33.6455078125 347.583007812 11.2236328125 387.62109375 10.0126953125 438.666992188 c 0
 9.931640625 442.0703125 10.23828125 445.470703125 10.923828125 448.8046875 c 0
 19.7705078125 491.796875 35.67578125 528.256835938 58.197265625 557.171875 c 0
 78.11328125 582.7421875 103.138671875 602.005859375 130.5703125 612.880859375 c 0
 151.905273438 621.336914062 175.837890625 612.349609375 186.590820312 592.732421875 c 1
 193.630859375 593.171875 200.58984375 593.341796875 207.421875 593.234375 c 0
 244.329101562 592.65625 276.59765625 584.405273438 303.331054688 568.7109375 c 0
 339.407226562 547.533203125 362.708984375 514.134765625 370.717773438 472.125976562 c 0
 371.323242188 468.948242188 371.584960938 465.713867188 371.497070312 462.48046875 c 0
 370.036132812 408.53125 354.822265625 370.521484375 323.618164062 342.859375 c 0
 295.579101562 318.00390625 258.711914062 305.504882812 211.98046875 294.383789062 c 0
 208.56640625 293.572265625 205.0703125 293.163085938 201.563476562 293.163085938 c 0
100.228515625 435.983398438 m 1
 101.912109375 414.548828125 111.209960938 406.015625 121.127929688 400.0703125 c 0
 137.18359375 390.4453125 162.688476562 384.828125 197.000976562 383.3515625 c 1
 264.814453125 399.967773438 279.163085938 412.7578125 281.336914062 459.630859375 c 1
 277.70703125 473.764648438 270.13671875 483.833984375 257.766601562 491.094726562 c 0
 230.095703125 507.33984375 182.854492188 507.448242188 134.479492188 491.376953125 c 0
 129.84375 489.836914062 125.134765625 489.092773438 120.501953125 489.071289062 c 0
 112.618164062 475.858398438 105.376953125 458.56640625 100.228515625 435.983398438 c 1
EndSplineSet
EndChar

StartChar: P
Encoding: 80 80 47
Width: 315
Flags: HW
HStem: 413.495 90.1699<140.469 198.413>
VStem: 13.059 292.156
LayerCount: 2
Fore
SplineSet
135.46875 279.053710938 m 0
 119.237304688 279.053710938 103.561523438 287.862304688 95.533203125 303.248046875 c 0
 56.388671875 378.28125 27.6376953125 435.8359375 14.1484375 493.329101562 c 0
 13.5859375 495.724609375 13.2216796875 498.1640625 13.05859375 500.620117188 c 0
 12.814453125 504.287109375 12.38671875 508.421875 11.9326171875 512.798828125 c 0
 9.8271484375 533.106445312 6.9423828125 560.91796875 18.568359375 588.75390625 c 0
 31.9912109375 620.896484375 61.0263671875 644.268554688 104.866210938 658.221679688 c 0
 156.955078125 674.883789062 207.352539062 669.422851562 246.708984375 642.823242188 c 0
 280.614257812 619.907226562 302.485351562 583.7890625 305.21484375 546.205078125 c 0
 305.384765625 543.876953125 305.37109375 541.5390625 305.178710938 539.212890625 c 0
 300.377929688 481.532226562 276.987304688 442.944335938 235.65625 424.524414062 c 0
 204.907226562 410.8203125 170.999023438 411.830078125 140.46875 413.495117188 c 1
 150.666015625 392.411132812 162.373046875 369.712890625 175.329101562 344.877929688 c 0
 186.82421875 322.842773438 178.28125 295.662109375 156.24609375 284.166992188 c 0
 149.59765625 280.697265625 142.481445312 279.053710938 135.46875 279.053710938 c 0
106.845703125 504.907226562 m 0
 106.862304688 504.907226562 106.875976562 504.907226562 106.892578125 504.907226562 c 0
 118.038085938 504.89453125 129.146484375 504.26953125 139.890625 503.665039062 c 0
 162.69921875 502.379882812 186.284179688 501.052734375 199.016601562 506.727539062 c 0
 202.245117188 508.166015625 211.776367188 512.415039062 215.072265625 542.36328125 c 0
 213.474609375 550.19140625 207.32421875 560.813476562 196.311523438 568.256835938 c 0
 180.068359375 579.236328125 157.907226562 580.6953125 132.224609375 572.482421875 c 0
 115.403320312 567.127929688 104.270507812 560.424804688 101.6171875 554.072265625 c 0
 98.828125 547.393554688 100.162109375 534.52734375 101.452148438 522.083007812 c 0
 101.838867188 518.35546875 102.235351562 514.533203125 102.55859375 510.62109375 c 0
 103.03515625 508.698242188 103.537109375 506.764648438 104.064453125 504.82421875 c 0
 104.984375 504.877929688 105.911132812 504.907226562 106.845703125 504.907226562 c 0
EndSplineSet
EndChar

StartChar: Q
Encoding: 81 81 48
Width: 411
Flags: HW
HStem: 195.32 89.9893<284.248 337.87> 596.37 21G<182.217 193.367>
LayerCount: 2
Fore
SplineSet
383.62109375 302.009765625 m 0
 363.831054688 317.040039062 335.6015625 313.190429688 320.571289062 293.400390625 c 0
 315.951171875 287.330078125 311.510742188 285.330078125 310.081054688 285.309570312 c 0
 310.071289062 285.309570312 310.071289062 285.309570312 310.061523438 285.309570312 c 0
 308.920898438 285.309570312 304.231445312 287.16015625 297.681640625 295.41015625 c 0
 295.241210938 298.48046875 292.411132812 301.219726562 289.271484375 303.559570312 c 0
 283.431640625 307.900390625 277.670898438 311.490234375 272.010742188 314.4296875 c 1
 302.161132812 325.75 327.880859375 342.219726562 348.061523438 363.370117188 c 0
 383.081054688 400.040039062 399.731445312 449.559570312 394.920898438 502.809570312 c 0
 394.561523438 506.780273438 393.681640625 510.690429688 392.291015625 514.4296875 c 0
 376.821289062 556.0703125 351.241210938 584.469726562 316.241210938 598.849609375 c 0
 288.05078125 610.4296875 255.811523438 612.169921875 217.681640625 604.16015625 c 0
 208.30078125 602.190429688 198.510742188 599.599609375 188.220703125 596.370117188 c 1
 176.2109375 616.190429688 150.811523438 623.799804688 129.701171875 613.290039062 c 0
 61.44140625 579.299804688 18.111328125 519.209960938 10.8115234375 448.419921875 c 0
 10.80078125 448.26953125 10.78125 448.120117188 10.771484375 447.969726562 c 0
 7.1015625 408.389648438 16.53125 375.5 38.80078125 350.209960938 c 0
 68.6015625 316.360351562 114.130859375 304.549804688 159.720703125 300.169921875 c 1
 141.021484375 286.08984375 121.911132812 266.41015625 99.431640625 241.33984375 c 0
 82.8408203125 222.83984375 84.3916015625 194.389648438 102.891601562 177.799804688 c 0
 111.481445312 170.08984375 122.220703125 166.299804688 132.920898438 166.299804688 c 0
 145.260742188 166.299804688 157.55078125 171.349609375 166.44140625 181.259765625 c 0
 181.010742188 197.509765625 197.791015625 215.620117188 211.701171875 226.620117188 c 0
 222.880859375 235.469726562 227.391601562 235.889648438 227.391601562 235.889648438 c 2
 227.411132812 235.889648438 228.811523438 235.690429688 231.891601562 233.830078125 c 0
 254.061523438 208.620117188 281.931640625 195.040039062 311.03125 195.3203125 c 0
 341.821289062 195.650390625 371.411132812 211.549804688 392.231445312 238.959960938 c 0
 407.271484375 258.75 403.411132812 286.98046875 383.62109375 302.009765625 c 0
106.340820312 409.690429688 m 0
 104.391601562 411.900390625 98.4814453125 418.620117188 100.361328125 439.419921875 c 0
 102.361328125 458.450195312 109.000976562 475.9296875 119.791015625 491.200195312 c 1
 132.12109375 483.940429688 147.701171875 482.66015625 161.661132812 489.16015625 c 0
 219.151367188 515.900390625 259.651367188 524.799804688 282.03125 515.610351562 c 0
 288.431640625 512.98046875 297.581054688 507.3203125 305.670898438 488.709960938 c 1
 307.641601562 433.690429688 266.670898438 396.389648438 194.7109375 388.059570312 c 1
 147.041015625 389.950195312 117.311523438 397.23046875 106.340820312 409.690429688 c 0
EndSplineSet
EndChar

StartChar: R
Encoding: 82 82 49
Width: 433
Flags: HW
HStem: 527.508 90.0801<121.546 224.328>
VStem: 87.7792 86.7891<281.364 340.632>
LayerCount: 2
Fore
SplineSet
378.643554688 250.885742188 m 0
 366.983398438 250.884765625 355.333007812 255.387695312 346.521484375 264.368164062 c 0
 303.200195312 308.514648438 245.311523438 336.1328125 187.69921875 340.137695312 c 0
 183.098632812 340.458007812 178.6875 341.46484375 174.568359375 343.059570312 c 1
 175.470703125 337.244140625 176.303710938 331.35546875 177.060546875 325.40234375 c 0
 180.1953125 300.748046875 162.75 278.219726562 138.096679688 275.084960938 c 0
 113.44921875 271.9453125 90.9140625 289.393554688 87.779296875 314.048828125 c 0
 77.2841796875 396.580078125 50.1337890625 464.30859375 18.6962890625 542.733398438 c 0
 16.8779296875 547.267578125 15.0517578125 551.826171875 13.2177734375 556.413085938 c 0
 7.58984375 570.486328125 9.423828125 586.446289062 18.0986328125 598.875 c 0
 26.7724609375 611.303710938 41.111328125 618.532226562 56.2705078125 618.103515625 c 0
 72.833984375 617.63671875 89.0146484375 617.612304688 104.66015625 617.587890625 c 0
 144.23828125 617.52734375 181.622070312 617.470703125 214.395507812 609.963867188 c 0
 257.78515625 600.026367188 288.208984375 578.234375 307.405273438 543.341796875 c 0
 309.205078125 540.071289062 310.591796875 536.587890625 311.530273438 532.973632812 c 0
 324.87109375 481.662109375 321.836914062 440.747070312 302.251953125 407.890625 c 0
 301.4453125 406.538085938 300.612304688 405.202148438 299.754882812 403.884765625 c 1
 304.690429688 401.74609375 309.591796875 399.483398438 314.462890625 397.091796875 c 0
 350.186523438 379.563476562 382.584960938 356.1171875 410.760742188 327.405273438 c 0
 428.166015625 309.666015625 427.8984375 281.174804688 410.158203125 263.767578125 c 0
 401.399414062 255.171875 390.016601562 250.88671875 378.643554688 250.885742188 c 0
121.545898438 527.5078125 m 1
 135.584960938 491.287109375 148.555664062 455.049804688 158.876953125 416.728515625 c 1
 164.27734375 422.17578125 171.120117188 426.294921875 178.95703125 428.436523438 c 0
 203.346679688 435.102539062 218.819335938 443.693359375 224.9453125 453.969726562 c 0
 232.182617188 466.11328125 229.873046875 486.87109375 225.946289062 504.103515625 c 1
 212.05078125 523.50390625 182.720703125 526.984375 121.545898438 527.5078125 c 1
EndSplineSet
EndChar

StartChar: S
Encoding: 83 83 50
Width: 407
Flags: HW
HStem: 302.98 90.167<113.976 306.039> 320.016 87.5615<97.1017 306.039> 484.356 89.9424<147.549 267.109>
LayerCount: 2
Fore
SplineSet
253.786132812 302.98046875 m 0xa0
 216.75390625 302.978515625 172.596679688 308.836914062 125.56640625 320.015625 c 0
 101.387695312 325.762695312 86.4453125 350.0234375 92.1923828125 374.203125 c 0
 97.9404296875 398.381835938 122.198242188 413.325195312 146.379882812 407.577148438 c 0x60
 191.073242188 396.953125 231.352539062 391.962890625 262.870117188 393.147460938 c 0
 292.53125 394.260742188 303.900390625 400.345703125 307.098632812 402.571289062 c 0
 302.202148438 431.58984375 288.015625 456.576171875 267.872070312 471.485351562 c 0
 251.6328125 483.504882812 233.138671875 488.0078125 212.921875 484.875 c 0
 210.9765625 484.57421875 209.013671875 484.400390625 207.046875 484.356445312 c 0
 170.927734375 483.533203125 133.280273438 491.223632812 101.017578125 505.994140625 c 0
 61.4736328125 524.096679688 31.6005859375 551.880859375 14.6298828125 586.342773438 c 0
 8.2216796875 599.356445312 8.478515625 614.66015625 15.3203125 627.451171875 c 0
 22.1630859375 640.241210938 34.7509765625 648.94921875 49.1328125 650.83984375 c 0
 91.943359375 656.469726562 120.209960938 670.247070312 126.645507812 676.805664062 c 0
 138.709960938 697.678710938 165.235351562 705.403320312 186.700195312 694.00390625 c 0
 208.6484375 682.345703125 216.993164062 655.102539062 205.334960938 633.154296875 c 0
 193.575195312 611.010742188 170.765625 595.440429688 146.313476562 584.572265625 c 1
 164.294921875 577.658203125 184.2734375 574.224609375 202.490234375 574.298828125 c 0
 244.959960938 580.01171875 287.06640625 569.250976562 321.41796875 543.82421875 c 0
 361.495117188 514.159179688 388.9296875 466.163085938 396.688476562 412.140625 c 0
 396.848632812 411.028320312 396.966796875 409.91015625 397.04296875 408.788085938 c 0
 399.030273438 379.470703125 388.002929688 353.060546875 365.98828125 334.421875 c 0
 342.3984375 314.44921875 306.728515625 303.888671875 259.967773438 303.03515625 c 0
 257.932617188 302.999023438 255.8671875 302.98046875 253.786132812 302.98046875 c 0xa0
125.857421875 675.383789062 m 1
 125.854492188 675.37890625 125.852539062 675.374023438 125.849609375 675.369140625 c 1
 125.8515625 675.374023438 125.854492188 675.377929688 125.857421875 675.383789062 c 1
EndSplineSet
EndChar

StartChar: T
Encoding: 84 84 51
Width: 355
Flags: HW
HStem: 570.22 92.0801<18.0439 171.629>
VStem: 174.748 89.5<284.47 566.696>
LayerCount: 2
Fore
SplineSet
305.778320312 581.049804688 m 0
 289.927734375 579.26953125 274.377929688 577.700195312 259.118164062 576.360351562 c 1
 270.967773438 481.900390625 272.627929688 397.049804688 264.248046875 318 c 0
 261.797851562 294.900390625 242.278320312 277.740234375 219.547851562 277.740234375 c 0
 217.967773438 277.740234375 216.368164062 277.8203125 214.748046875 278 c 0
 190.038085938 280.620117188 172.127929688 302.780273438 174.748046875 327.490234375 c 0
 182.568359375 401.16015625 180.727539062 481.059570312 169.078125 570.900390625 c 1
 154.647460938 570.450195312 140.467773438 570.219726562 126.5078125 570.219726562 c 0
 101.047851562 570.219726562 76.337890625 570.969726562 52.2177734375 572.469726562 c 0
 27.408203125 574.009765625 8.5478515625 595.370117188 10.087890625 620.169921875 c 0
 11.6376953125 644.98046875 32.998046875 663.83984375 57.7978515625 662.299804688 c 0
 129.377929688 657.849609375 207.198242188 660.530273438 295.717773438 670.490234375 c 0
 320.408203125 673.26953125 342.6875 655.5 345.467773438 630.799804688 c 0
 348.248046875 606.110351562 330.477539062 583.830078125 305.778320312 581.049804688 c 0
EndSplineSet
EndChar

StartChar: U
Encoding: 85 85 52
Width: 369
Flags: HW
VStem: 10.1312 89.7422<477.161 641.449>
LayerCount: 2
Fore
SplineSet
226.731445312 279.698242188 m 0
 226.21484375 279.698242188 225.700195312 279.708007812 225.182617188 279.724609375 c 0
 190.711914062 280.911132812 159.609375 289.935546875 132.735351562 306.548828125 c 0
 106.713867188 322.633789062 84.54296875 345.95703125 66.8388671875 375.8671875 c 0
 36.1806640625 427.662109375 17.6318359375 500.856445312 10.130859375 599.630859375 c 0
 8.25 624.412109375 26.814453125 646.02734375 51.5947265625 647.909179688 c 0
 76.3798828125 649.786132812 97.9921875 631.2265625 99.873046875 606.4453125 c 0
 106.213867188 522.942382812 121.158203125 460.788085938 144.2890625 421.708984375 c 0
 164.057617188 388.309570312 188.796875 372.190429688 224.111328125 369.877929688 c 1
 249.387695312 374.34375 256.749023438 380.439453125 260.295898438 385.330078125 c 0
 268.387695312 396.486328125 275.286132812 426.540039062 262.859375 506.194335938 c 0
 261.70703125 509.37890625 260.65625 512.716796875 259.517578125 516.333007812 c 0
 253.62890625 535.041992188 243.774414062 566.35546875 210.922851562 594.418945312 c 0
 192.02734375 610.561523438 189.795898438 638.966796875 205.940429688 657.86328125 c 0
 222.083007812 676.759765625 250.487304688 678.990234375 269.3828125 662.846679688 c 0
 321.868164062 618.0078125 337.73828125 567.584960938 345.365234375 543.352539062 c 0
 346.088867188 541.053710938 347.065429688 537.953125 347.517578125 536.73046875 c 0
 349.155273438 533.111328125 350.305664062 529.291015625 350.940429688 525.368164062 c 0
 366.543945312 428.876953125 361.22265625 371.193359375 333.149414062 332.486328125 c 0
 306.556640625 295.82421875 266.032226562 285.305664062 233.697265625 280.23828125 c 0
 231.392578125 279.879882812 229.063476562 279.698242188 226.731445312 279.698242188 c 0
347.232421875 537.353515625 m 1
 347.235351562 537.34765625 347.23828125 537.341796875 347.241210938 537.3359375 c 1
 347.23828125 537.341796875 347.235351562 537.34765625 347.232421875 537.353515625 c 1
EndSplineSet
EndChar

StartChar: V
Encoding: 86 86 53
Width: 368
Flags: HW
HStem: 664.198 20G<301.11 326.075>
VStem: 268.678 90<485.66 677.61>
LayerCount: 2
Fore
SplineSet
244.170898438 295.298828125 m 0
 229.67578125 295.298828125 215.946289062 302.3046875 207.459960938 314.286132812 c 0
 112.915039062 447.737304688 52.1513671875 514.532226562 28.8447265625 531.182617188 c 0
 8.623046875 545.629882812 3.9404296875 573.736328125 18.3876953125 593.958007812 c 0
 32.8359375 614.178710938 60.939453125 618.861328125 81.1630859375 604.415039062 c 0
 121.379882812 575.682617188 184.24609375 497.256835938 232.106445312 433.329101562 c 1
 256.607421875 505.826171875 268.880859375 574.758789062 268.677734375 639.055664062 c 0
 268.599609375 663.909179688 288.682617188 684.119140625 313.536132812 684.198242188 c 0
 313.583007812 684.198242188 313.633789062 684.198242188 313.680664062 684.198242188 c 0
 338.46875 684.198242188 358.599609375 664.146484375 358.677734375 639.33984375 c 0
 358.990234375 540.625976562 334.333007812 433.939453125 285.395507812 322.2421875 c 0
 278.885742188 307.384765625 264.883789062 297.1796875 248.748046875 295.534179688 c 0
 247.217773438 295.375976562 245.690429688 295.298828125 244.170898438 295.298828125 c 0
EndSplineSet
EndChar

StartChar: W
Encoding: 87 87 54
Width: 502
Flags: HW
HStem: 542.316 89.9727<315.85 396.112>
VStem: 10.5761 88.8604<460.868 589.193>
LayerCount: 2
Fore
SplineSet
125.409179688 304.583007812 m 0
 111.297851562 304.583007812 97.78515625 311.233398438 89.201171875 322.87109375 c 0
 60.5068359375 361.766601562 31.1220703125 415.396484375 10.576171875 543.325195312 c 0
 6.634765625 567.86328125 23.33203125 590.950195312 47.87109375 594.890625 c 0
 72.412109375 598.831054688 95.49609375 582.134765625 99.4365234375 557.595703125 c 0
 112.4453125 476.600585938 128.340820312 432.295898438 144.663085938 402.662109375 c 1
 173.717773438 415.481445312 199.469726562 438.723632812 222.797851562 473.046875 c 0
 231.484375 485.826171875 246.099609375 493.264648438 261.563476562 492.723632812 c 0
 277.006835938 492.192382812 291.09765625 483.774414062 298.883789062 470.42578125 c 0
 315.272460938 442.333984375 341.794921875 425.92578125 362.540039062 416.813476562 c 1
 388.721679688 432.1484375 399.797851562 455.477539062 402.568359375 498.244140625 c 1
 396.234375 539.918945312 378.213867188 542.885742188 355.436523438 542.31640625 c 0
 330.583984375 541.708007812 309.953125 561.341796875 309.3359375 586.188476562 c 0
 308.720703125 611.033203125 328.36328125 631.672851562 353.208007812 632.2890625 c 0
 391.123046875 633.227539062 422.478515625 623.172851562 446.415039062 602.403320312 c 0
 471.512695312 580.625976562 486.977539062 548.110351562 492.384765625 505.7578125 c 0
 492.723632812 503.106445312 492.825195312 500.4296875 492.688476562 497.759765625 c 0
 489.858398438 442.451171875 475.26953125 364.49609375 381.673828125 326.23046875 c 0
 371.787109375 322.188476562 360.784179688 321.794921875 350.6328125 325.120117188 c 0
 315.873046875 336.508789062 285.151367188 354.2421875 260.412109375 376.814453125 c 1
 223.9296875 339.065429688 181.723632812 315.14453125 134.40625 305.493164062 c 0
 131.41015625 304.880859375 128.39453125 304.583007812 125.409179688 304.583007812 c 0
EndSplineSet
EndChar

StartChar: X
Encoding: 88 88 55
Width: 423
Flags: HW
VStem: 85.2109 86.3896<245.353 340.707>
LayerCount: 2
Fore
SplineSet
400.920898438 314.219726562 m 0
 392.12109375 305.3203125 380.520507812 300.870117188 368.930664062 300.870117188 c 0
 357.490234375 300.870117188 346.05078125 305.200195312 337.280273438 313.879882812 c 0
 308.831054688 342.030273438 269.000976562 381.459960938 221.930664062 421.099609375 c 1
 203.310546875 372.870117188 186.590820312 323.309570312 171.600585938 271.98046875 c 0
 165.87109375 252.330078125 147.911132812 239.580078125 128.430664062 239.580078125 c 0
 124.250976562 239.580078125 120.000976562 240.169921875 115.791015625 241.400390625 c 0
 91.9306640625 248.360351562 78.240234375 273.349609375 85.2109375 297.209960938 c 0
 103.510742188 359.870117188 124.260742188 420.01953125 147.780273438 478.419921875 c 1
 112.690429688 502.969726562 75.3408203125 525.259765625 36.9306640625 542.110351562 c 0
 14.1708984375 552.099609375 3.8203125 578.639648438 13.80078125 601.400390625 c 0
 23.7802734375 624.16015625 50.3310546875 634.51953125 73.0908203125 624.530273438 c 0
 109.661132812 608.490234375 146.440429688 588.049804688 184.2109375 562.719726562 c 1
 200.310546875 597.580078125 217.520507812 631.919921875 235.880859375 665.900390625 c 0
 247.690429688 687.76953125 274.990234375 695.919921875 296.860351562 684.099609375 c 0
 318.73046875 672.290039062 326.87109375 644.98046875 315.060546875 623.120117188 c 0
 294.610351562 585.26953125 275.670898438 546.959960938 258.140625 507.919921875 c 1
 310.8203125 465.360351562 357.73046875 420.259765625 400.581054688 377.849609375 c 0
 418.250976562 360.370117188 418.400390625 331.879882812 400.920898438 314.219726562 c 0
EndSplineSet
EndChar

StartChar: Y
Encoding: 89 89 56
Width: 350
Flags: HW
VStem: 10.2071 89.9609<579.121 710.573> 154.128 89.4697<278.612 478.659> 241.658 85.6104<590.1 708.719>
LayerCount: 2
Fore
SplineSet
323.817382812 542.83984375 m 0xa0
 304.947265625 511.790039062 273.897460938 495.139648438 243.59765625 485.540039062 c 1
 250.177734375 433.639648438 251.357421875 376.490234375 247.237304688 311.9296875 c 0
 245.70703125 288.099609375 225.907226562 269.799804688 202.3671875 269.799804688 c 0
 201.407226562 269.799804688 200.4375 269.830078125 199.45703125 269.889648438 c 0
 174.657226562 271.48046875 155.827148438 292.870117188 157.41796875 317.669921875 c 0
 161.217773438 377.120117188 160.147460938 429.099609375 154.127929688 475.639648438 c 1xc0
 121.267578125 478.530273438 84.8974609375 488.419921875 56.4677734375 516.5703125 c 0
 38.95703125 533.91015625 26.267578125 556.6796875 18.77734375 584.23046875 c 0
 11.9775390625 609.209960938 9.177734375 638.419921875 10.20703125 673.530273438 c 0
 10.9375 698.370117188 31.6279296875 717.900390625 56.5078125 717.190429688 c 0
 81.34765625 716.459960938 100.897460938 695.73046875 100.16796875 670.879882812 c 0
 98.8271484375 625.150390625 105.427734375 594.75 119.797851562 580.51953125 c 0
 131.547851562 568.879882812 153.967773438 563.709960938 188.27734375 564.740234375 c 1
 228.477539062 571.8203125 242.357421875 582.099609375 246.887695312 589.5703125 c 0
 253.647460938 600.6796875 251.787109375 624.009765625 241.657226562 655.259765625 c 0
 233.987304688 678.900390625 246.9375 704.280273438 270.577148438 711.940429688 c 0
 294.217773438 719.610351562 319.607421875 706.66015625 327.267578125 683.01953125 c 0
 346.397460938 624.009765625 345.267578125 578.16015625 323.817382812 542.83984375 c 0xa0
EndSplineSet
EndChar

StartChar: Z
Encoding: 90 90 57
Width: 390
Flags: HW
HStem: 581 87.6299<15.6808 97.5799>
LayerCount: 2
Fore
SplineSet
353.953125 334.799804688 m 0
 333.533203125 325.809570312 314.853515625 316.66015625 296.7734375 307.8203125 c 0
 253.153320312 286.469726562 216.313476562 268.440429688 182.903320312 268.4296875 c 0
 171.182617188 268.4296875 159.8828125 270.66015625 148.86328125 275.73046875 c 0
 145.873046875 277.110351562 143.04296875 278.809570312 140.432617188 280.799804688 c 0
 102.752929688 309.5 86.5830078125 352.059570312 92.373046875 407.299804688 c 0
 92.603515625 409.48046875 92.86328125 411.690429688 93.1630859375 413.919921875 c 1
 91.203125 413.830078125 89.29296875 413.780273438 87.4326171875 413.780273438 c 0
 75.04296875 413.780273438 64.6728515625 415.830078125 55.2734375 420.01953125 c 0
 35.103515625 429.009765625 27.103515625 444.719726562 23.6328125 451.759765625 c 0
 9.8232421875 469.950195312 11.783203125 496 28.86328125 511.879882812 c 0
 47.0634765625 528.809570312 75.533203125 527.76953125 92.453125 509.580078125 c 0
 94.0029296875 507.919921875 95.373046875 506.25 96.5927734375 504.620117188 c 0
 101.962890625 505.440429688 109.903320312 507 121.36328125 509.969726562 c 1
 130.012695312 530.610351562 140.552734375 552.599609375 153.0234375 576.009765625 c 1
 112.813476562 571.780273438 76.962890625 573.459960938 44.7529296875 581 c 0
 20.552734375 586.669921875 5.533203125 610.879882812 11.193359375 635.080078125 c 0
 16.86328125 659.280273438 41.0732421875 674.299804688 65.2734375 668.629882812 c 0
 107.233398438 658.809570312 161.22265625 663.559570312 230.323242188 683.16015625 c 0
 248.2734375 688.25 267.502929688 681.740234375 278.663085938 666.790039062 c 0
 289.823242188 651.83984375 290.603515625 631.549804688 280.623046875 615.790039062 c 0
 265.453125 591.830078125 252.5234375 570.049804688 241.5234375 550.259765625 c 1
 259.682617188 557.0703125 279.2734375 564.620117188 300.243164062 572.889648438 c 0
 323.373046875 582 349.502929688 570.650390625 358.61328125 547.530273438 c 0
 367.733398438 524.41015625 356.373046875 498.26953125 333.252929688 489.16015625 c 0
 274.943359375 466.1796875 227.802734375 448.83984375 190.302734375 436.650390625 c 1
 185.403320312 420.629882812 182.922851562 407.91015625 181.8828125 397.919921875 c 0
 179.61328125 376.309570312 183.462890625 365.349609375 188.012695312 359.129882812 c 0
 191.493164062 359.870117188 197.063476562 361.440429688 205.533203125 364.759765625 c 0
 219.922851562 370.400390625 237.203125 378.860351562 257.212890625 388.650390625 c 0
 275.203125 397.459960938 295.603515625 407.440429688 317.682617188 417.169921875 c 0
 340.422851562 427.1796875 366.983398438 416.860351562 377.002929688 394.120117188 c 0
 387.012695312 371.370117188 376.703125 344.8203125 353.953125 334.799804688 c 0
EndSplineSet
EndChar

StartChar: bracketleft
Encoding: 91 91 58
Width: 280
Flags: HW
HStem: 282.368 86.8877<130.099 264.665> 604.589 89.8291<110.509 212.552>
VStem: 38.678 89.6934<354.148 559.409>
LayerCount: 2
Fore
SplineSet
83.67578125 260.887695312 m 0
 72.1201171875 260.88671875 60.9765625 265.336914062 52.5859375 273.357421875 c 0
 43.7216796875 281.829101562 38.69921875 293.55078125 38.677734375 305.813476562 c 0
 38.4873046875 419.885742188 35.1083984375 548.553710938 11.4931640625 637.950195312 c 0
 7.859375 651.703125 10.9423828125 666.365234375 19.80859375 677.489257812 c 0
 28.6748046875 688.61328125 42.287109375 694.883789062 56.49609375 694.41796875 c 0
 109.288085938 692.661132812 144.009765625 696.024414062 172.607421875 705.655273438 c 0
 196.162109375 713.590820312 221.68359375 700.92578125 229.618164062 677.372070312 c 0
 237.55078125 653.819335938 224.887695312 628.294921875 201.334960938 620.36328125 c 0
 171.494140625 610.311523438 140.408203125 606.055664062 110.508789062 604.588867188 c 1
 123.474609375 528.288085938 127.359375 439.044921875 128.37109375 354.1484375 c 1
 159.95703125 357.338867188 188.171875 362.337890625 213.790039062 369.255859375 c 0
 237.783203125 375.734375 262.485351562 361.536132812 268.96484375 337.541992188 c 0
 275.443359375 313.547851562 261.244140625 288.844726562 237.250976562 282.368164062 c 0
 193.176757812 270.467773438 143.583984375 263.455078125 85.6376953125 260.9296875 c 0
 84.982421875 260.901367188 84.328125 260.887695312 83.67578125 260.887695312 c 0
EndSplineSet
EndChar

StartChar: backslash
Encoding: 92 92 59
Width: 375
Flags: HW
LayerCount: 2
Fore
SplineSet
320.356445312 289.580078125 m 0
 307.142578125 289.580078125 294.053710938 295.37109375 285.166992188 306.498046875 c 2
 269.213867188 326.477539062 l 2
 175.485351562 443.888671875 69.25 576.965820312 28.6298828125 606.34765625 c 0
 8.4931640625 620.913085938 3.9765625 649.045898438 18.5419921875 669.182617188 c 0
 33.1083984375 689.3203125 61.240234375 693.834960938 81.376953125 679.271484375 c 0
 128.532226562 645.163085938 210.37109375 544.447265625 339.55078125 382.627929688 c 2
 355.489257812 362.666015625 l 2
 371 343.247070312 367.831054688 314.931640625 348.412109375 299.420898438 c 0
 340.120117188 292.797851562 330.203125 289.580078125 320.356445312 289.580078125 c 0
EndSplineSet
EndChar

StartChar: bracketright
Encoding: 93 93 60
Width: 289
Flags: HW
HStem: 251.532 89.958<66.7073 177.708> 606.505 89.918<16.6426 155.093>
VStem: 156.403 90.5381<407.056 607.86>
LayerCount: 2
Fore
SplineSet
105.020507812 251.532226562 m 0
 81.0732421875 251.53125 61.15625 270.404296875 60.09765625 294.563476562 c 0
 59.009765625 319.391601562 78.255859375 340.40234375 103.084960938 341.490234375 c 0
 128.583007812 342.607421875 154.067382812 345.745117188 179.256835938 350.85546875 c 1
 164.146484375 418.318359375 156.604492188 503.211914062 156.40234375 607.860351562 c 1
 128.560546875 605.151367188 94.4736328125 604.732421875 53.0732421875 606.504882812 c 0
 28.244140625 607.569335938 8.9765625 628.560546875 10.0419921875 653.389648438 c 0
 11.1044921875 678.219726562 32.0869140625 697.473632812 56.9267578125 696.422851562 c 0
 141.9765625 692.776367188 173.438476562 700.061523438 184.62109375 704.727539062 c 0
 198.666015625 710.58984375 214.719726562 708.954101562 227.293945312 700.384765625 c 0
 239.868164062 691.815429688 247.260742188 677.469726562 246.940429688 662.255859375 c 0
 243.877929688 516.241210938 254.12890625 405.102539062 277.40625 331.928710938 c 0
 281.071289062 320.40625 279.9453125 307.892578125 274.283203125 297.208984375 c 0
 268.619140625 286.526367188 258.893554688 278.571289062 247.299804688 275.138671875 c 0
 201.486328125 261.575195312 154.291992188 253.647460938 107.025390625 251.576171875 c 0
 106.354492188 251.546875 105.684570312 251.532226562 105.020507812 251.532226562 c 0
EndSplineSet
EndChar

StartChar: asciicircum
Encoding: 94 94 61
Width: 342
Flags: HW
LayerCount: 2
Fore
SplineSet
54.962890625 505.739257812 m 0
 46.7568359375 505.739257812 38.453125 507.982421875 31 512.681640625 c 0
 9.9794921875 525.939453125 3.685546875 553.727539062 16.9423828125 574.749023438 c 0
 54.5615234375 634.3984375 93.6494140625 685.30859375 133.12109375 726.068359375 c 0
 149.01953125 742.484375 174.697265625 744.376953125 192.830078125 730.471679688 c 0
 286.740234375 658.458984375 313.412109375 625.9140625 325.305664062 607.69921875 c 0
 338.892578125 586.888671875 333.036132812 559.004882812 312.227539062 545.41796875 c 0
 291.416015625 531.830078125 263.532226562 537.686523438 249.946289062 558.49609375 c 0
 243.817382812 567.8828125 225.46875 589.33984375 170.619140625 633.509765625 c 1
 144.532226562 602.90625 118.548828125 567.141601562 93.0673828125 526.740234375 c 0
 84.5107421875 513.170898438 69.900390625 505.739257812 54.962890625 505.739257812 c 0
EndSplineSet
EndChar

StartChar: underscore
Encoding: 95 95 62
Width: 268
Flags: HW
HStem: 234.208 90.8652<46.8136 250.12> 257.083 86.8555<15.9649 165.597>
VStem: 11.5839 245.358
LayerCount: 2
Fore
SplineSet
188.674804688 234.208007812 m 0xa0
 141.487304688 234.208007812 79.0419921875 247.353515625 43.21875 257.083007812 c 0
 19.234375 263.596679688 5.0712890625 288.319335938 11.583984375 312.303710938 c 0
 18.09765625 336.288085938 42.818359375 350.451171875 66.8056640625 343.938476562 c 0x60
 133.811523438 325.741210938 189.831054688 322.038085938 202.36328125 325.073242188 c 0
 226.478515625 331.110351562 250.907226562 316.458007812 256.942382812 292.349609375 c 0
 262.979492188 268.2421875 248.325195312 243.802734375 224.216796875 237.766601562 c 0
 214.239257812 235.268554688 202.072265625 234.208007812 188.674804688 234.208007812 c 0xa0
EndSplineSet
EndChar

StartChar: grave
Encoding: 96 96 63
Width: 216
Flags: HW
HStem: 607.792 21G<156.13 167.652> 680.267 87.9395<16.0236 82.0038>
LayerCount: 2
Fore
SplineSet
161.337890625 607.791992188 m 0
 150.920898438 607.791992188 140.456054688 611.387695312 131.951171875 618.73046875 c 0
 67.6611328125 674.227539062 47.5185546875 679.813476562 45.4326171875 680.266601562 c 0
 21.1494140625 685.555664062 5.7509765625 709.529296875 11.0400390625 733.813476562 c 0
 16.330078125 758.095703125 40.2998046875 773.4921875 64.5859375 768.206054688 c 0
 94.52734375 761.684570312 132.263671875 737.356445312 190.76171875 686.857421875 c 0
 209.57421875 670.6171875 211.659179688 642.201171875 195.419921875 623.387695312 c 0
 186.521484375 613.079101562 173.96484375 607.791992188 161.337890625 607.791992188 c 0
EndSplineSet
EndChar

StartChar: a
Encoding: 97 97 64
Width: 435
Flags: HW
HStem: 270.332 90.6436<103.279 198.255> 280.874 88.792<341.831 419.071> 450.637 89.9053<138.711 232.553>
LayerCount: 2
Fore
SplineSet
135.0859375 270.33203125 m 0xa0
 93.6279296875 270.33203125 59.19921875 283.393554688 36.625 308.0703125 c 0
 20.2578125 325.9609375 2.875 357.923828125 13.009765625 408.595703125 c 0
 22.8603515625 457.629882812 53.888671875 500.255859375 96.0185546875 522.659179688 c 0
 117.23828125 533.943359375 140.4921875 539.959960938 165.134765625 540.541992188 c 0
 190.689453125 541.140625 217.14453125 535.8203125 243.775390625 524.715820312 c 0
 266.712890625 515.151367188 277.553710938 488.801757812 267.990234375 465.86328125 c 0
 265.997070312 461.084960938 263.275390625 456.830078125 260.008789062 453.17578125 c 1
 261.96875 453.471679688 263.9609375 453.639648438 265.975585938 453.674804688 c 0
 282.263671875 453.963867188 297.51171875 445.352539062 305.69140625 431.208984375 c 0
 320.95703125 404.811523438 352.263671875 375.544921875 387.793945312 369.666015625 c 0
 412.314453125 365.609375 428.901367188 342.443359375 424.844726562 317.923828125 c 0
 420.788085938 293.405273438 397.615234375 276.814453125 373.103515625 280.874023438 c 0x60
 333.37109375 287.447265625 299.459960938 307.036132812 273.05859375 330.776367188 c 1
 268.258789062 324.727539062 262.841796875 318.828125 256.561523438 313.161132812 c 0
 232.90625 291.8203125 202.409179688 278.720703125 160.584960938 271.939453125 c 0
 159.811523438 271.814453125 159.034179688 271.708984375 158.25390625 271.624023438 c 0
 150.3203125 270.759765625 142.5859375 270.33203125 135.0859375 270.33203125 c 0xa0
169.0859375 450.63671875 m 0
 157.896484375 450.63671875 147.603515625 448.158203125 138.2734375 443.197265625 c 0
 119.684570312 433.311523438 105.84375 413.763671875 101.252929688 390.908203125 c 0
 100.264648438 385.962890625 98.44140625 373.833007812 103.029296875 368.818359375 c 0
 108.196289062 363.169921875 123.872070312 358.611328125 147.375976562 360.975585938 c 0xa0
 195.555664062 368.999023438 202.890625 383.219726562 220.409179688 417.182617188 c 0
 222.513671875 421.262695312 224.690429688 425.482421875 227.0390625 429.879882812 c 0
 228.75390625 433.08984375 230.826171875 436.038085938 233.19140625 438.682617188 c 1
 225.318359375 437.484375 217.024414062 438.359375 209.134765625 441.649414062 c 0
 194.76953125 447.639648438 181.385742188 450.63671875 169.0859375 450.63671875 c 0
EndSplineSet
EndChar

StartChar: b
Encoding: 98 98 65
Width: 457
Flags: HW
HStem: 460.63 90<229.353 332.147>
LayerCount: 2
Fore
SplineSet
438.743164062 443.740234375 m 0
 428.2734375 475.669921875 402.34375 504.080078125 365.723632812 523.73046875 c 0
 333.43359375 541.049804688 294.883789062 550.599609375 257.163085938 550.629882812 c 2
 256.413085938 550.629882812 l 2
 232.93359375 550.25 210.203125 542.290039062 190.11328125 527.469726562 c 1
 159.743164062 597.209960938 127.243164062 663.009765625 94.1533203125 721.379882812 c 0
 81.9033203125 743 54.43359375 750.58984375 32.8134765625 738.330078125 c 0
 11.193359375 726.080078125 3.603515625 698.610351562 15.86328125 676.990234375 c 0
 65.61328125 589.23046875 114.073242188 483.58984375 155.5234375 373.150390625 c 1
 149.323242188 368.080078125 144.403320312 361.299804688 141.573242188 353.190429688 c 0
 133.383789062 329.73046875 145.763671875 304.059570312 169.223632812 295.870117188 c 0
 174.483398438 294.030273438 179.703125 292.299804688 184.873046875 290.6796875 c 1
 191.393554688 272.299804688 208.703125 260.740234375 227.252929688 260.740234375 c 0
 232.013671875 260.740234375 236.853515625 261.5 241.61328125 263.110351562 c 0
 248.643554688 265.48046875 254.703125 269.41015625 259.54296875 274.389648438 c 1
 272.133789062 272.9296875 284.502929688 272.209960938 296.68359375 272.209960938 c 0
 311.723632812 272.209960938 326.483398438 273.309570312 341.013671875 275.509765625 c 0
 343.583007812 275.900390625 346.11328125 276.509765625 348.573242188 277.330078125 c 0
 393.413085938 292.349609375 422.453125 314.809570312 437.34375 346.009765625 c 0
 450.712890625 374.01953125 451.172851562 406 438.743164062 443.740234375 c 0
356.123046875 384.780273438 m 0
 352.743164062 377.700195312 341.002929688 370.190429688 323.663085938 363.950195312 c 0
 301.473632812 361.01953125 278.61328125 361.669921875 253.973632812 366.040039062 c 1
 245.502929688 389.740234375 236.693359375 413.299804688 227.583007812 436.610351562 c 1
 236.053710938 450.940429688 247.383789062 460.299804688 257.553710938 460.629882812 c 0
 280.243164062 460.530273438 304.133789062 454.629882812 323.172851562 444.419921875 c 0
 338.853515625 436.009765625 350.083007812 425.26953125 353.243164062 415.650390625 c 0
 356.5234375 405.6796875 359.68359375 392.240234375 356.123046875 384.780273438 c 0
EndSplineSet
EndChar

StartChar: c
Encoding: 99 99 66
Width: 329
Flags: HW
HStem: 287.859 89.9102<118.246 234.904> 474.892 87.916<122.719 236.084>
VStem: 10.0227 89.9805<397.077 452.635>
LayerCount: 2
Fore
SplineSet
170.98828125 287.767578125 m 0
 128.310546875 287.766601562 79.8466796875 309.081054688 47.01953125 342.3984375 c 0
 22.16796875 367.622070312 9.384765625 396.366210938 10.0224609375 425.564453125 c 0
 10.2626953125 459.284179688 30.4375 494.744140625 65.470703125 522.959960938 c 0
 84.650390625 538.408203125 106.78515625 550.435546875 129.483398438 557.745117188 c 0
 156.053710938 566.30078125 182.754882812 568.052734375 206.69921875 562.807617188 c 0
 230.9765625 557.491210938 246.346679688 533.5 241.029296875 509.22265625 c 0
 235.713867188 484.946289062 211.724609375 469.576171875 187.443359375 474.891601562 c 0
 170.755859375 478.547851562 145.755859375 470.7265625 125.236328125 455.43359375 c 0
 106.771484375 441.670898438 100.313476562 428.27734375 100.021484375 424.880859375 c 0
 100.021484375 424.46484375 100.015625 424.048828125 100.002929688 423.6328125 c 0
 99.9267578125 420.987304688 102.827148438 413.990234375 111.129882812 405.564453125 c 0
 126.733398438 389.7265625 152.10546875 377.907226562 170.58984375 377.76953125 c 0
 193.896484375 379.30859375 224.350585938 385.203125 239.724609375 404.302734375 c 0
 255.307617188 423.663085938 283.634765625 426.725585938 302.99609375 411.140625 c 0
 322.354492188 395.557617188 325.416992188 367.23046875 309.833984375 347.870117188 c 0
 295.100585938 329.56640625 275.733398438 315.139648438 252.271484375 304.993164062 c 0
 230.060546875 295.38671875 204.005859375 289.622070312 174.833007812 287.859375 c 0
 174.135742188 287.817382812 173.436523438 287.791015625 172.73828125 287.78125 c 0
 172.158203125 287.771484375 171.571289062 287.767578125 170.98828125 287.767578125 c 0
EndSplineSet
EndChar

StartChar: d
Encoding: 100 100 67
Width: 347
Flags: HW
HStem: 262.485 90.001<113.806 228.668> 446.802 90.3721<115.108 200.628>
VStem: 9.99999 90.001<363.106 430.139> 141.413 89.7256<637.838 722.108> 247.229 89.9971<372.496 426.891>
LayerCount: 2
Fore
SplineSet
163.8828125 262.485351562 m 0
 122.8828125 262.484375 86.93359375 273.002929688 59.908203125 292.903320312 c 0
 27.724609375 316.602539062 10 352.543945312 10 394.106445312 c 0
 10 431.575195312 25.1279296875 465.287109375 53.7490234375 491.595703125 c 0
 76.7509765625 512.7421875 107.161132812 527.806640625 141.689453125 535.1640625 c 0
 142.735351562 535.38671875 143.790039062 535.573242188 144.849609375 535.720703125 c 0
 164.134765625 538.411132812 183.116210938 538.826171875 200.904296875 537.173828125 c 1
 196.606445312 546.20703125 192.25390625 555.267578125 187.943359375 564.240234375 c 0
 154.317382812 634.236328125 142.45703125 660.592773438 141.413085938 681.484375 c 0
 140.171875 706.305664062 159.288085938 727.43359375 184.111328125 728.673828125 c 0
 208.206054688 729.876953125 228.803710938 711.915039062 231.138671875 688.170898438 c 0
 234.182617188 675.828125 254.302734375 633.944335938 269.067382812 603.211914062 c 0
 310.2109375 517.568359375 337.213867188 458.581054688 337.2265625 421.544921875 c 0
 337.65625 370.827148438 318.224609375 328.768554688 281.020507812 299.91015625 c 0
 250.672851562 276.37109375 210.493164062 263.431640625 164.823242188 262.495117188 c 0
 164.513671875 262.48828125 164.185546875 262.485351562 163.8828125 262.485351562 c 0
158.908203125 446.801757812 m 0
 131.37890625 440.5546875 100.000976562 423.201171875 100.000976562 394.106445312 c 0
 100.000976562 380.99609375 104.094726562 372.133789062 113.276367188 365.374023438 c 0
 124.484375 357.12109375 142.28515625 352.549804688 163.4375 352.486328125 c 0
 195.200195312 353.221679688 247.80078125 363.166015625 247.229492188 420.9296875 c 0
 247.227539062 421.109375 247.227539062 421.288085938 247.227539062 421.467773438 c 0
 247.205078125 421.951171875 247.073242188 423.603515625 246.291015625 427.05078125 c 0
 238.053710938 428.766601562 230.209960938 432.806640625 223.80859375 439.165039062 c 0
 218.866210938 442.84765625 194.280273438 451.379882812 158.908203125 446.801757812 c 0
247.228515625 421.420898438 m 1
 247.23828125 421.420898438 l 1
 247.228515625 421.420898438 l 1
223.454101562 439.51953125 m 1
 223.459960938 439.514648438 223.46484375 439.509765625 223.469726562 439.50390625 c 1
 223.46484375 439.509765625 223.459960938 439.514648438 223.454101562 439.51953125 c 1
231.298828125 686.018554688 m 1
 231.299804688 686.005859375 231.30078125 685.991210938 231.301757812 685.9765625 c 1
 231.30078125 685.991210938 231.299804688 686.004882812 231.298828125 686.018554688 c 1
EndSplineSet
EndChar

StartChar: e
Encoding: 101 101 68
Width: 368
Flags: HW
HStem: 253.953 90<122.084 293.211> 402.881 89.9971<177.322 216.678> 495.941 89.249<177.51 217.226>
LayerCount: 2
Fore
SplineSet
180.520507812 253.953125 m 0
 135.783203125 253.953125 93.470703125 269.815429688 61.3740234375 298.619140625 c 0
 28.7255859375 327.918945312 10 368.419921875 10 409.737304688 c 0
 10 446.8359375 25.0595703125 485.848632812 51.314453125 516.774414062 c 0
 81.919921875 552.823242188 125.654296875 576.481445312 177.787109375 585.190429688 c 0
 179.633789062 585.499023438 181.498046875 585.69140625 183.370117188 585.767578125 c 0
 214.749023438 587.046875 239.57421875 583.598632812 259.256835938 575.23046875 c 0
 285.013671875 564.279296875 302.522460938 544.266601562 308.55859375 518.879882812 c 0
 309.49609375 514.936523438 309.896484375 510.885742188 309.749023438 506.836914062 c 0
 309.125 489.661132812 306.5859375 464.28125 291.805664062 442.2734375 c 0
 279.50390625 423.95703125 255.033203125 402.286132812 208.147460938 402.880859375 c 2
 108.260742188 403.573242188 l 2
 105.536132812 403.591796875 102.87109375 403.8515625 100.284179688 404.333984375 c 1
 103.77734375 371.087890625 139.099609375 343.953125 180.521484375 343.953125 c 0
 229.541992188 343.953125 266.712890625 350.916015625 290.999023438 364.650390625 c 0
 312.6328125 376.8828125 340.086914062 369.263671875 352.3203125 347.62890625 c 0
 364.552734375 325.995117188 356.93359375 298.541015625 335.298828125 286.306640625 c 0
 296.796875 264.536132812 246.168945312 253.953125 180.520507812 253.953125 c 0
177.322265625 493.096679688 m 1
 208.91796875 492.877929688 l 2
 209.029296875 492.876953125 209.141601562 492.875976562 209.251953125 492.875 c 0
 213.633789062 492.806640625 216.2421875 493.2421875 217.587890625 493.573242188 c 0
 217.65625 493.759765625 217.729492188 493.969726562 217.8046875 494.208007812 c 1
 212.450195312 495.315429688 203.64453125 496.33203125 189.889648438 495.94140625 c 0
 185.518554688 495.13671875 181.329101562 494.182617188 177.322265625 493.096679688 c 1
EndSplineSet
EndChar

StartChar: f
Encoding: 102 102 69
Width: 343
Flags: HW
HStem: 399.75 102.44<253.616 315.743>
LayerCount: 2
Fore
SplineSet
299.734375 488.309570312 m 0
 269.034179688 496.290039062 233.604492188 500.959960938 196.484375 502.190429688 c 1
 173.774414062 536.049804688 151.833984375 564.830078125 135.00390625 586.91015625 c 0
 134.174804688 588 133.354492188 589.0703125 132.543945312 590.129882812 c 1
 134.814453125 590.0703125 137.124023438 590.169921875 139.444335938 590.450195312 c 0
 185.814453125 596.150390625 208.864257812 616.610351562 220.043945312 632.76953125 c 0
 229.624023438 646.639648438 239.384765625 670.040039062 231.424804688 702.790039062 c 0
 230.944335938 704.780273438 230.32421875 706.73046875 229.57421875 708.639648438 c 0
 206.424804688 767.450195312 155.57421875 791.389648438 93.564453125 772.690429688 c 0
 93.50390625 772.669921875 93.4541015625 772.650390625 93.39453125 772.639648438 c 0
 44.5341796875 757.690429688 24.5341796875 726.290039062 16.3544921875 702.580078125 c 0
 7.7939453125 677.75 7.884765625 649.610351562 16.6142578125 618.9296875 c 0
 24.994140625 589.5 39.064453125 565.700195312 49.384765625 550.919921875 c 0
 49.6748046875 550.509765625 49.974609375 550.099609375 50.2744140625 549.690429688 c 0
 54.2841796875 544.349609375 58.724609375 538.51953125 63.4345703125 532.349609375 c 0
 71.9140625 521.219726562 81.384765625 508.799804688 91.384765625 495.200195312 c 1
 72.904296875 487.8203125 60.9443359375 468.719726562 63.4443359375 448.030273438 c 0
 66.4248046875 423.360351562 88.833984375 405.76953125 113.514648438 408.75 c 0
 124.75390625 410.110351562 136.124023438 411.08984375 147.494140625 411.700195312 c 1
 163.784179688 384.5 179.3046875 355.030273438 192.244140625 323.83984375 c 0
 199.434570312 306.51953125 216.174804688 296.0703125 233.833984375 296.0703125 c 0
 239.57421875 296.0703125 245.4140625 297.1796875 251.0546875 299.51953125 c 0
 274.00390625 309.040039062 284.904296875 335.360351562 275.384765625 358.3203125 c 0
 268.5546875 374.790039062 261.094726562 390.809570312 253.224609375 406.3203125 c 1
 261.583984375 404.870117188 269.57421875 403.16015625 277.114257812 401.200195312 c 0
 280.904296875 400.219726562 284.71484375 399.75 288.454101562 399.75 c 0
 308.454101562 399.75 326.71484375 413.1796875 331.984375 433.450195312 c 0
 338.224609375 457.5 323.793945312 482.0703125 299.734375 488.309570312 c 0
101.434570312 673.23046875 m 0
 102.25390625 675.599609375 104.4140625 681.870117188 119.64453125 686.549804688 c 0
 130.264648438 689.740234375 136.014648438 689.1796875 137.744140625 688.349609375 c 0
 138.6640625 687.900390625 140.384765625 686.280273438 142.404296875 682.860351562 c 1
 139.364257812 681.76953125 134.8046875 680.559570312 128.46484375 679.780273438 c 0
 116.984375 678.370117188 107.0546875 672.759765625 100.014648438 664.669921875 c 1
 100.114257812 667.870117188 100.583984375 670.759765625 101.434570312 673.23046875 c 0
EndSplineSet
EndChar

StartChar: g
Encoding: 103 103 70
Width: 423
Flags: HW
HStem: 272.679 89.998<100.541 212.436> 447.433 90.0029<143.181 226.031>
LayerCount: 2
Fore
SplineSet
342.79296875 -94 m 0
 303.125976562 -94 241.627929688 -74.74609375 198.276367188 -55.6640625 c 0
 123.499023438 -22.7490234375 87.1474609375 13.1162109375 87.1474609375 53.982421875 c 0
 87.1474609375 81.322265625 106.513671875 102.205078125 121.080078125 115.53515625 c 0
 134.994140625 128.266601562 153.520507812 141.704101562 174.654296875 154.391601562 c 0
 195.041992188 166.630859375 243.232421875 193.227539062 285.900390625 199.19921875 c 1
 262.0390625 309.274414062 l 1
 229.411132812 286.197265625 186.609375 272.678710938 141.510742188 272.678710938 c 0
 55.1728515625 272.678710938 10 328.284179688 10 383.212890625 c 0
 10 423.649414062 48.51171875 463.633789062 71.4677734375 483.869140625 c 0
 94.1630859375 503.875 139.229492188 537.435546875 186.06640625 537.435546875 c 0
 230.8359375 537.435546875 269.015625 518.442382812 296.478515625 482.5078125 c 0
 315.735351562 457.310546875 329.858398438 423.3515625 338.45703125 381.576171875 c 2
 386.515625 159.885742188 l 1
 429.1875 3.974609375 413.506835938 -43.830078125 395.048828125 -68.041015625 c 0
 382.28515625 -84.78125 363.727539062 -94 342.79296875 -94 c 0
186.40625 53.1123046875 m 1
 197.369140625 45.08203125 216.814453125 33.5634765625 248.0625 21.0234375 c 0
 277.165039062 9.3447265625 304.62890625 1.6259765625 323.859375 -1.86328125 c 1
 324.439453125 14.5615234375 322.111328125 47.8369140625 306.405273438 110.59375 c 0
 305.029296875 110.467773438 303.633789062 110.403320312 302.223632812 110.403320312 c 0
 293.421875 110.403320312 267.432617188 103.248046875 231.905273438 83.5361328125 c 0
 211.166992188 72.029296875 196.03515625 61.162109375 186.40625 53.1123046875 c 1
100.297851562 380.551757812 m 1
 102.696289062 370.047851562 119.2890625 362.676757812 141.509765625 362.676757812 c 0
 178.879882812 362.676757812 214.302734375 378.365234375 227.653320312 400.827148438 c 0
 229.84765625 404.517578125 232.487304688 407.783203125 235.463867188 410.58984375 c 0
 217.860351562 447.431640625 195.826171875 447.432617188 186.06640625 447.432617188 c 0
 179.071289062 447.432617188 160.114257812 440.418945312 136.560546875 421.09765625 c 0
 116.251953125 404.44140625 103.857421875 387.829101562 100.297851562 380.551757812 c 1
EndSplineSet
EndChar

StartChar: h
Encoding: 104 104 71
Width: 479
Flags: HW
HStem: 426.283 90<266.91 330.513>
LayerCount: 2
Fore
SplineSet
424.14453125 304.568359375 m 0
 407.927734375 304.568359375 392.265625 313.358398438 384.23046875 328.72265625 c 0
 346.728515625 400.431640625 310.880859375 426.29296875 295.711914062 426.29296875 c 0
 295.626953125 426.29296875 295.543945312 426.291992188 295.4609375 426.291015625 c 0
 295.153320312 426.28515625 294.846679688 426.287109375 294.541015625 426.283203125 c 0
 291.28125 426.291992188 282.803710938 426.295898438 269.624023438 408.794921875 c 0
 258.05078125 393.428710938 246.393554688 369.099609375 233.987304688 334.419921875 c 0
 227.421875 316.06640625 209.7890625 304.041015625 190.302734375 304.595703125 c 0
 170.818359375 305.166015625 153.916992188 318.21484375 148.43359375 336.919921875 c 0
 110.01171875 468.008789062 73.9208984375 545.78125 19.7099609375 614.306640625 c 0
 4.291015625 633.797851562 7.5908203125 662.098632812 27.08203125 677.517578125 c 0
 46.5712890625 692.938476562 74.873046875 689.637695312 90.29296875 670.146484375 c 0
 134.889648438 613.774414062 169.21875 551.12109375 200.583984375 466.62890625 c 1
 211.885742188 480.87109375 224.370117188 492.185546875 237.739257812 500.296875 c 0
 255.134765625 510.849609375 274.12890625 516.2265625 294.197265625 516.283203125 c 0
 374.96875 517.458007812 435.205078125 425.4609375 463.982421875 370.431640625 c 0
 475.500976562 348.409179688 466.983398438 321.21875 444.961914062 309.702148438 c 0
 438.302734375 306.219726562 431.170898438 304.569335938 424.14453125 304.568359375 c 0
EndSplineSet
EndChar

StartChar: i
Encoding: 105 105 72
Width: 315
Flags: HW
HStem: 614.99 87.7607<55.9353 140.757> 623.263 90<16.5146 101.965>
VStem: 10 134.925<629.778 699.31>
LayerCount: 2
Fore
SplineSet
169.911132812 295.234375 m 0x20
 158.004882812 295.234375 135.517578125 299.23046875 118.689453125 325.989257812 c 0
 112.215820312 336.283203125 106.754882812 349.564453125 101.501953125 367.784179688 c 0
 93.5146484375 395.490234375 85.5849609375 435.811523438 74.986328125 502.611328125 c 0
 71.0908203125 527.157226562 87.8330078125 550.211914062 112.37890625 554.107421875 c 0
 136.92578125 557.999023438 159.979492188 541.259765625 163.875 516.71484375 c 0
 171.297851562 469.931640625 177.272460938 437.150390625 182.680664062 413.547851562 c 0
 185.139648438 402.814453125 187.296875 394.859375 189.086914062 389.009765625 c 1
 197.846679688 393.275390625 209.375976562 402.307617188 230.2421875 421.368164062 c 0
 248.59375 438.12890625 277.055664062 436.841796875 293.817382812 418.493164062 c 0
 310.578125 400.142578125 309.291015625 371.6796875 290.940429688 354.91796875 c 0
 251.47265625 318.866210938 221.725585938 295.234375 169.911132812 295.234375 c 0x20
102.18359375 614.990234375 m 0xa0
 97.5244140625 614.990234375 92.7890625 615.71875 88.1220703125 617.252929688 c 0
 75.4794921875 621.409179688 65.2646484375 623.262695312 55 623.262695312 c 0
 30.146484375 623.262695312 10 643.41015625 10 668.262695312 c 0
 10 693.116210938 30.146484375 713.262695312 55 713.262695312 c 0x60
 74.9599609375 713.262695312 94.4169921875 709.922851562 116.229492188 702.750976562 c 0
 139.83984375 694.989257812 152.686523438 669.557617188 144.924804688 645.948242188 c 0
 138.698242188 627.004882812 121.092773438 614.990234375 102.18359375 614.990234375 c 0xa0
EndSplineSet
EndChar

StartChar: j
Encoding: 106 106 73
Width: 326
Flags: HW
HStem: -64 90<111.546 213.166> 136.662 89.998<111.672 177.824> 605.82 21G<88.6079 100.164>
VStem: 9.99998 90.001<39.3049 126.449> 85.1143 88.458<429.161 536.792>
LayerCount: 2
Fore
SplineSet
168.076171875 -64 m 0xe8
 128.100585938 -64 89.8994140625 -51.0546875 60.5087890625 -27.5498046875 c 0
 28.41015625 -1.8779296875 10 34.625 10 72.5966796875 c 0xf0
 10 135.314453125 36.7783203125 171.956054688 59.2421875 191.653320312 c 0
 84.5966796875 213.883789062 118.544921875 226.633789062 152.380859375 226.633789062 c 0
 155.616210938 226.633789062 158.772460938 226.6484375 161.84375 226.66015625 c 0
 167.34375 226.68359375 172.725585938 226.706054688 177.98046875 226.6484375 c 1
 177.249023438 228.427734375 176.514648438 230.2109375 175.779296875 232 c 0
 139.331054688 320.578125 98.01953125 420.973632812 85.1142578125 489.8046875 c 0
 80.5341796875 514.232421875 96.623046875 537.747070312 121.049804688 542.327148438 c 0
 145.47265625 546.908203125 168.9921875 530.819335938 173.572265625 506.390625 c 0
 184.770507812 446.66015625 225.932617188 346.625976562 259.0078125 266.247070312 c 0
 282.40625 209.383789062 302.61328125 160.274414062 311.461914062 128.561523438 c 0
 311.637695312 127.931640625 311.799804688 127.297851562 311.947265625 126.662109375 c 0
 323.40625 77.3896484375 313.076171875 27.84765625 283.606445312 -9.2607421875 c 0
 255.982421875 -44.0478515625 213.872070312 -64 168.076171875 -64 c 0xe8
169.815429688 136.682617188 m 0
 167.194335938 136.682617188 164.624023438 136.671875 162.224609375 136.662109375 c 0
 159.030273438 136.6484375 155.747070312 136.634765625 152.381835938 136.634765625 c 0
 143.634765625 136.634765625 100.000976562 133.547851562 100.000976562 72.59765625 c 0
 100.000976562 47.775390625 131.811523438 26 168.077148438 26 c 0
 191.720703125 26 205.626953125 37.26171875 213.129882812 46.7099609375 c 0
 225.2578125 61.982421875 229.379882812 83.3154296875 224.495117188 105.3671875 c 0
 222.69140625 111.696289062 220.200195312 119.239257812 217.168945312 127.7421875 c 1
 209.20703125 128.275390625 201.342773438 130.919921875 194.479492188 135.715820312 c 0
 189.391601562 136.541992188 179.26953125 136.682617188 169.815429688 136.682617188 c 0
189.819335938 139.451171875 m 1
 189.827148438 139.444335938 189.8359375 139.435546875 189.842773438 139.428710938 c 1
 189.8359375 139.436523438 189.827148438 139.444335938 189.819335938 139.451171875 c 1
92.95703125 605.8203125 m 0
 84.2587890625 605.8203125 75.4697265625 608.3359375 67.7294921875 613.587890625 c 2
 42.03125 631.026367188 l 2
 21.4658203125 644.981445312 16.1064453125 672.96484375 30.0615234375 693.530273438 c 0
 44.0166015625 714.094726562 72.001953125 719.454101562 92.5654296875 705.499023438 c 2
 118.264648438 688.060546875 l 2
 138.830078125 674.106445312 144.188476562 646.122070312 130.233398438 625.556640625 c 0
 121.53125 612.731445312 107.37109375 605.8203125 92.95703125 605.8203125 c 0
EndSplineSet
EndChar

StartChar: k
Encoding: 107 107 74
Width: 468
Flags: HW
LayerCount: 2
Fore
SplineSet
445.689453125 325.620117188 m 0
 422.619140625 348.940429688 384.649414062 366.129882812 325.989257812 379.200195312 c 1
 336.159179688 396.08984375 344.979492188 412.240234375 352.219726562 427.23046875 c 0
 371.299804688 466.76953125 378.399414062 495.849609375 374.549804688 518.76953125 c 0
 371.569335938 536.48046875 358.349609375 550.73046875 340.909179688 555.01953125 c 0
 295.659179688 566.139648438 238.379882812 567.58984375 166.4296875 559.389648438 c 1
 141.26953125 631.08984375 116.489257812 685.959960938 92.75 722.509765625 c 0
 79.2099609375 743.349609375 51.33984375 749.280273438 30.5 735.740234375 c 0
 9.6494140625 722.200195312 3.7294921875 694.330078125 17.26953125 673.490234375 c 0
 56.3193359375 613.370117188 103.83984375 478.940429688 144.389648438 313.889648438 c 0
 149.439453125 293.370117188 167.819335938 279.620117188 188.059570312 279.620117188 c 0
 191.609375 279.620117188 195.219726562 280.040039062 198.830078125 280.9296875 c 0
 213.19921875 284.459960938 224.25 294.530273438 229.580078125 307.200195312 c 1
 234.1796875 304.73046875 239.229492188 303.040039062 244.559570312 302.290039062 c 0
 347.029296875 287.759765625 374.599609375 269.509765625 381.69921875 262.330078125 c 0
 390.5 253.4296875 402.08984375 248.98046875 413.689453125 248.98046875 c 0
 425.129882812 248.98046875 436.559570312 253.309570312 445.330078125 261.98046875 c 0
 463.009765625 279.459960938 463.159179688 307.950195312 445.689453125 325.620117188 c 0
220.119140625 381.33984375 m 1
 211.909179688 412.639648438 203.399414062 442.98046875 194.739257812 471.830078125 c 1
 224.859375 474.58984375 251.569335938 475.280273438 274.69921875 473.900390625 c 1
 264.859375 452.209960938 247.619140625 420.879882812 220.119140625 381.33984375 c 1
EndSplineSet
EndChar

StartChar: l
Encoding: 108 108 75
Width: 299
Flags: HW
VStem: 10.3147 89.3789<484.479 678.592>
LayerCount: 2
Fore
SplineSet
141.303710938 268.459960938 m 0
 132.694335938 268.459960938 123.94921875 269.517578125 114.791015625 271.8828125 c 0
 111.643554688 272.696289062 108.592773438 273.84765625 105.693359375 275.318359375 c 0
 77.130859375 289.798828125 60.2392578125 326.298828125 43.365234375 409.987304688 c 0
 32.6650390625 463.055664062 22.1630859375 534.524414062 10.314453125 634.903320312 c 0
 7.400390625 659.584960938 25.046875 681.955078125 49.728515625 684.868164062 c 0
 74.412109375 687.779296875 96.7802734375 670.133789062 99.693359375 645.453125 c 0
 109.916015625 558.849609375 119.28515625 493.141601562 128.334960938 444.575195312 c 0
 137.375 396.068359375 144.877929688 371.61328125 149.500976562 359.728515625 c 1
 159.05859375 361.96875 172.745117188 367.409179688 192.33203125 375.353515625 c 0
 202.936523438 379.655273438 214.956054688 384.53125 228.75390625 389.799804688 c 0
 251.96875 398.66796875 277.981445312 387.033203125 286.84765625 363.814453125 c 0
 295.712890625 340.596679688 284.079101562 314.587890625 260.862304688 305.721679688 c 0
 247.928710938 300.783203125 236.365234375 296.091796875 226.163085938 291.954101562 c 0
 193.801757812 278.827148438 168.241210938 268.459960938 141.303710938 268.459960938 c 0
EndSplineSet
EndChar

StartChar: m
Encoding: 109 109 76
Width: 489
Flags: HW
VStem: 69.2483 88.2334<288.29 387.676>
LayerCount: 2
Fore
SplineSet
434.17578125 274.921875 m 0
 413.551757812 274.920898438 394.958007812 289.188476562 390.291015625 310.15625 c 0
 388.125976562 319.884765625 385.9375 330.10546875 383.818359375 339.989257812 c 0
 377.375 370.05859375 370.711914062 401.154296875 363.071289062 426.783203125 c 0
 361.6640625 431.50390625 360.31640625 435.721679688 359.03515625 439.491210938 c 1
 355.073242188 434.3046875 351.0234375 428.763671875 346.907226562 423.1328125 c 0
 333.161132812 404.328125 317.58203125 383.012695312 297.311523438 363.184570312 c 0
 286.987304688 353.0859375 272.442382812 348.552734375 258.20703125 351.006835938 c 0
 243.973632812 353.458007812 231.78125 362.591796875 225.4296875 375.564453125 c 0
 216.979492188 392.8203125 205.512695312 412.1328125 193.90625 428.66796875 c 1
 192.001953125 423.967773438 189.928710938 418.572265625 187.689453125 412.380859375 c 0
 177.073242188 383.036132812 166.4609375 346.391601562 157.481445312 314.416992188 c 0
 151.549804688 293.295898438 131.25390625 279.53125 109.435546875 281.833007812 c 0
 87.619140625 284.135742188 70.6416015625 301.833984375 69.248046875 323.727539062 c 0
 66.0625 373.795898438 57.94140625 443.9765625 24.33984375 475.254882812 c 0
 6.1484375 492.189453125 5.1279296875 520.663085938 22.0615234375 538.853515625 c 0
 38.9951171875 557.043945312 67.46875 558.065429688 85.66015625 541.131835938 c 0
 101.307617188 526.567382812 113.5703125 509.2734375 123.223632812 490.362304688 c 1
 127.375 498.287109375 131.541015625 505.086914062 135.780273438 510.873046875 c 0
 155.990234375 538.462890625 178.510742188 543.306640625 193.84375 542.515625 c 0
 201.077148438 542.140625 208.114257812 540.026367188 214.356445312 536.349609375 c 0
 234.083007812 524.73046875 254.873046875 499.443359375 272.288085938 473.565429688 c 1
 272.942382812 474.458984375 273.596679688 475.352539062 274.248046875 476.244140625 c 0
 294.708007812 504.237304688 315.866210938 533.181640625 347.844726562 548.684570312 c 0
 359.889648438 554.525390625 373.911132812 554.697265625 386.096679688 549.16015625 c 0
 419.235351562 534.096679688 435.397460938 495.669921875 445.775390625 463.875 c 0
 456.083984375 432.294921875 464.083984375 394.95703125 471.821289062 358.84765625 c 0
 473.999023438 348.688476562 476.0546875 339.091796875 478.143554688 329.708984375 c 0
 483.541015625 305.450195312 468.251953125 281.407226562 443.993164062 276.0078125 c 0
 440.702148438 275.2734375 437.413085938 274.921875 434.17578125 274.921875 c 0
168.263671875 459.059570312 m 1
 168.263671875 459.059570312 168.264648438 459.05859375 168.265625 459.05859375 c 1
 168.265625 459.05859375 168.264648438 459.05859375 168.263671875 459.059570312 c 1
EndSplineSet
EndChar

StartChar: n
Encoding: 110 110 77
Width: 371
Flags: HW
HStem: 255.38 297.963
VStem: 70.205 88.5576<261.943 378.396> 271.89 89.3691<280.777 421.675>
LayerCount: 2
Fore
SplineSet
114.138671875 255.379882812 m 0
 93.1025390625 255.379882812 74.751953125 270.01953125 70.205078125 290.733398438 c 0
 62.8330078125 324.317382812 54.1767578125 362.686523438 44.7216796875 393.016601562 c 0
 32.7373046875 431.462890625 24.712890625 439.995117188 23.8369140625 440.840820312 c 0
 5.908203125 458.051757812 5.326171875 486.538085938 22.5361328125 504.466796875 c 0
 39.74609375 522.397460938 68.2333984375 522.978515625 86.162109375 505.767578125 c 0
 98.0439453125 494.362304688 108.194335938 478.432617188 117.6640625 455.953125 c 1
 120 460.037109375 122.409179688 464.037109375 124.884765625 467.942382812 c 0
 139.270507812 490.624023438 155.536132812 509.327148438 173.233398438 523.53125 c 0
 193.568359375 539.853515625 215.280273438 549.883789062 237.764648438 553.342773438 c 0
 240.030273438 553.692382812 242.317382812 553.866210938 244.608398438 553.866210938 c 0
 260.473632812 553.866210938 283.727539062 547.75 304.403320312 518.61328125 c 0
 314.068359375 504.9921875 322.674804688 487.338867188 330.716796875 464.643554688 c 0
 344.178710938 426.658203125 355.025390625 376.915039062 361.258789062 324.580078125 c 0
 364.198242188 299.90234375 346.575195312 277.512695312 321.897460938 274.573242188 c 0
 320.090820312 274.358398438 318.29296875 274.25390625 316.51953125 274.252929688 c 0
 294.041992188 274.250976562 274.615234375 291.064453125 271.889648438 313.935546875 c 0
 267.446289062 351.25 260.166992188 388.056640625 251.396484375 417.575195312 c 0
 245.420898438 437.678710938 240.008789062 450.34375 236.0234375 458.052734375 c 1
 224.372070312 450.616210938 212.002929688 437.264648438 200.888671875 419.741210938 c 0
 180.139648438 387.025390625 165.1796875 342.522460938 158.762695312 294.4296875 c 0
 155.874023438 272.78125 137.857421875 256.331054688 116.03515625 255.420898438 c 0
 115.401367188 255.392578125 114.768554688 255.379882812 114.138671875 255.379882812 c 0
EndSplineSet
EndChar

StartChar: o
Encoding: 111 111 78
Width: 363
Flags: HW
HStem: 261.448 90.001<120.897 241.239> 546 20G<159.615 184.603 215.779 232.05>
VStem: 10 89.999<373.118 450.758> 263.99 90<373.888 445.672>
LayerCount: 2
Fore
SplineSet
178.540039062 261.448242188 m 0
 139.618164062 261.448242188 99.357421875 275.412109375 68.0810546875 299.759765625 c 0
 30.626953125 328.916015625 10 369.5390625 10 414.146484375 c 0
 10 452.947265625 30.74609375 492.485351562 66.91796875 522.624023438 c 0
 100.00390625 550.189453125 140.689453125 566 178.540039062 566 c 0
 190.666015625 566 201.670898438 561.205078125 209.762695312 553.40625 c 0
 210.625 553.5078125 211.497070312 553.598632812 212.376953125 553.6796875 c 0
 213.734375 553.803710938 215.09765625 553.866210938 216.4609375 553.866210938 c 0
 247.638671875 553.866210938 281.741210938 536.279296875 310.024414062 505.615234375 c 0
 337.963867188 475.322265625 353.990234375 438.51171875 353.990234375 404.624023438 c 0
 353.990234375 366.123046875 332.247070312 328.032226562 294.337890625 300.118164062 c 0
 260.962890625 275.541992188 218.755859375 261.448242188 178.540039062 261.448242188 c 0
137.939453125 462.978515625 m 1
 133.262695312 460.17578125 128.73828125 456.986328125 124.528320312 453.478515625 c 0
 109.3984375 440.873046875 99.9990234375 425.801757812 99.9990234375 414.146484375 c 0
 99.9990234375 375.30078125 145.744140625 351.44921875 178.5390625 351.44921875 c 0
 199.654296875 351.44921875 222.994140625 359.3515625 240.97265625 372.590820312 c 0
 254.955078125 382.885742188 263.990234375 395.459960938 263.990234375 404.624023438 c 0
 263.990234375 415.11328125 256.631835938 430.205078125 245.244140625 443.073242188 c 0
 234.829101562 454.840820312 224.770507812 460.874023438 219.296875 462.994140625 c 0
 218.0390625 461.829101562 216.010742188 459.71875 213.084960938 456.016601562 c 0
 197.672851562 436.51953125 169.375 433.20703125 149.876953125 448.619140625 c 0
 144.774414062 452.65234375 140.779296875 457.568359375 137.939453125 462.978515625 c 1
216.143554688 463.875976562 m 1
 216.14453125 463.875976562 216.143554688 463.875976562 216.143554688 463.875976562 c 1
EndSplineSet
EndChar

StartChar: p
Encoding: 112 112 79
Width: 362
Flags: HW
HStem: 255.37 90<158.244 204.521 207.761 243.375> 467.57 90<119.237 239.168> 544.36 21G<80.2108 95.5058>
VStem: 262.491 90<364.49 444.444>
LayerCount: 2
Fore
SplineSet
146.701171875 557.5703125 m 0xd0
 125.361328125 557.5703125 104.640625 553.01953125 86.37109375 544.360351562 c 1xb0
 74.05078125 556.309570312 55.4111328125 560.639648438 38.4208984375 553.900390625 c 0
 15.3212890625 544.740234375 4.0205078125 518.580078125 13.1806640625 495.48046875 c 0
 43.0908203125 420.059570312 60.5908203125 300.639648438 79.111328125 174.200195312 c 0
 83.130859375 146.790039062 87.28125 118.440429688 91.6005859375 90.2900390625 c 0
 95.0205078125 68.0400390625 114.19140625 52.1103515625 136.03125 52.1103515625 c 0
 138.30078125 52.1103515625 140.600585938 52.2900390625 142.911132812 52.6396484375 c 0
 167.470703125 56.41015625 184.331054688 79.3798828125 180.560546875 103.950195312 c 0
 176.291015625 131.790039062 172.161132812 159.98046875 168.161132812 187.25 c 0
 164.640625 211.290039062 161.151367188 235.08984375 157.611328125 258.440429688 c 1
 171.081054688 256.349609375 186.380859375 255.370117188 204.520507812 255.370117188 c 0
 205.470703125 255.370117188 206.420898438 255.370117188 207.380859375 255.379882812 c 2
 207.760742188 255.379882812 l 2
 240.170898438 255.379882812 275.380859375 271.889648438 304.491210938 300.76953125 c 0
 334.991210938 331.040039062 352.491210938 369.139648438 352.491210938 405.299804688 c 0
 352.491210938 478.91015625 298.430664062 557.5703125 146.701171875 557.5703125 c 0xd0
241.100585938 364.66015625 m 0
 227.670898438 351.33984375 213.571289062 345.379882812 207.791015625 345.379882812 c 2
 207.100585938 345.379882812 l 2
 206.170898438 345.370117188 205.270507812 345.370117188 204.37109375 345.370117188 c 0
 161.840820312 345.370117188 151.000976562 351.610351562 140.491210938 361.830078125 c 1
 134.071289062 396.559570312 127.081054688 429.389648438 119.100585938 459.5 c 1
 122.661132812 462.33984375 131.970703125 467.5703125 146.701171875 467.5703125 c 0xd0
 199.331054688 467.5703125 227.111328125 455.889648438 241.151367188 446.08984375 c 0
 255.7109375 435.919921875 262.491210938 422.959960938 262.491210938 405.299804688 c 0
 262.491210938 393.509765625 254.090820312 377.549804688 241.100585938 364.66015625 c 0
EndSplineSet
EndChar

StartChar: q
Encoding: 113 113 80
Width: 436
Flags: HW
HStem: -64 89.999<247.712 331.001> 114.147 89.999<252.075 323.092> 267.106 90<102.019 165.865> 516.012 20G<167.397 189.766 204.994 217.716>
VStem: 10.0042 90<371.223 411.243> 154.164 90.001<32.2747 111.999> 169.696 98.8975<357.246 438.344> 336.409 90<30.4739 100.87>
LayerCount: 2
Fore
SplineSet
295.521484375 -64 m 0xfb
 256.967773438 -64 223.595703125 -53.4541015625 199.01171875 -33.5029296875 c 0
 178.552734375 -16.8994140625 154.1640625 14.365234375 154.1640625 69.01171875 c 0xfd
 154.1640625 106.670898438 157.520507812 150.973632812 161.07421875 197.876953125 c 0
 162.798828125 220.649414062 164.58203125 244.18359375 166.076171875 268.071289062 c 1
 160.991210938 267.430664062 155.82421875 267.106445312 150.60546875 267.106445312 c 0
 133.583007812 267.106445312 75.140625 270.052734375 37.779296875 307.977539062 c 0
 19.365234375 326.66796875 9.76953125 350.299804688 10.00390625 376.3515625 c 0
 9.80078125 408.703125 25.2109375 441.505859375 54.5966796875 471.258789062 c 0
 92.8515625 509.990234375 146.556640625 536.01171875 188.23828125 536.01171875 c 0
 191.29296875 536.01171875 194.279296875 535.70703125 197.163085938 535.126953125 c 0
 200.233398438 535.7109375 203.388671875 536.01171875 206.598632812 536.01171875 c 0
 228.833984375 536.01171875 247.736328125 519.772460938 251.0859375 497.791015625 c 0
 254.26171875 476.948242188 256.423828125 455.737304688 257.79296875 434.333007812 c 1
 264.51953125 410.306640625 268.59375 394.475585938 268.59375 380.91796875 c 0
 268.59375 365.931640625 265.361328125 351.01953125 259.319335938 337.176757812 c 1
 258.18359375 290.849609375 254.888671875 245.010742188 251.611328125 201.573242188 c 1
 261.499023438 203.268554688 271.153320312 204.083007812 280.029296875 204.14453125 c 0
 280.133789062 204.146484375 280.241210938 204.146484375 280.346679688 204.146484375 c 0
 315.383789062 204.146484375 351.772460938 189.258789062 380.180664062 163.302734375 c 0
 409.55859375 136.459960938 426.409179688 101.59375 426.409179688 67.6435546875 c 0
 426.409179688 33.560546875 413.735351562 1.251953125 390.720703125 -23.33203125 c 0
 366.171875 -49.556640625 332.362304688 -64 295.521484375 -64 c 0xfb
245.122070312 105.694335938 m 1
 244.520507812 92.68359375 244.165039062 80.3837890625 244.165039062 69.0107421875 c 0
 244.165039062 53.978515625 244.165039062 25.9990234375 295.521484375 25.9990234375 c 0
 322.079101562 25.9990234375 336.409179688 47.4560546875 336.409179688 67.64453125 c 0
 336.409179688 84.6943359375 308.803710938 114.041992188 280.497070312 114.147460938 c 0
 265.193359375 114.005859375 251.744140625 109.475585938 245.122070312 105.694335938 c 1
163.22265625 438.885742188 m 1
 149.130859375 432.54296875 132.53125 422.087890625 118.630859375 408.014648438 c 0
 104.772460938 393.982421875 99.935546875 382.45703125 100.004882812 376.850585938 c 0
 100.009765625 376.44140625 100.008789062 376.03125 100.00390625 375.62109375 c 0
 99.9765625 373.751953125 100.124023438 372.936523438 101.895507812 371.139648438 c 0
 108.59765625 364.336914062 127.948242188 357.106445312 150.608398438 357.106445312 c 0
 158.666992188 357.106445312 165.064453125 359.798828125 169.696289062 363.666015625 c 1xfb
 169.797851562 382.418945312 169.452148438 401.071289062 168.495117188 419.44921875 c 0
 166.598632812 426.213867188 164.813476562 432.68359375 163.22265625 438.885742188 c 1
EndSplineSet
EndChar

StartChar: r
Encoding: 114 114 81
Width: 252
Flags: HW
HStem: 450.788 80.1357<149.679 238.115>
VStem: 60.2235 88.2158<336.471 406.385>
LayerCount: 2
Fore
SplineSet
103.522460938 329.922851562 m 0
 83.677734375 329.922851562 65.7373046875 343.094726562 60.2236328125 362.803710938 c 0
 52.556640625 390.208984375 37.130859375 410.485351562 26.2509765625 419.51953125 c 0
 7.1318359375 435.3984375 4.5048828125 463.76953125 20.3828125 482.888671875 c 0
 32.9072265625 497.96875 53.203125 502.788085938 70.599609375 496.362304688 c 1
 76.994140625 508.7734375 86.017578125 519.478515625 98.55078125 528.094726562 c 0
 101.096679688 529.845703125 103.817382812 531.329101562 106.668945312 532.5234375 c 0
 131.826171875 543.053710938 184.502929688 548.356445312 217.97265625 530.923828125 c 0
 240.014648438 519.444335938 248.577148438 492.267578125 237.096679688 470.225585938 c 0
 225.72265625 448.387695312 198.944335938 439.778320312 177.010742188 450.788085938 c 0
 171.64453125 452.602539062 158.526367188 452.447265625 149.240234375 451.18359375 c 0
 148.508789062 448.434570312 147.657226562 443.952148438 147.12109375 436.932617188 c 0
 146.086914062 423.409179688 146.506835938 404.745117188 148.439453125 378.198242188 c 0
 150.120117188 355.147460938 134.0625 334.572265625 111.293945312 330.59765625 c 0
 108.6875 330.142578125 106.088867188 329.922851562 103.522460938 329.922851562 c 0
177.260742188 450.700195312 m 1
 177.260742188 450.700195312 l 1
EndSplineSet
EndChar

StartChar: s
Encoding: 115 115 82
Width: 297
Flags: HW
HStem: 227.501 90<69.9141 186.119>
VStem: 9.99999 277.858
LayerCount: 2
Fore
SplineSet
145.13671875 227.500976562 m 0
 102.282226562 227.500976562 61.3408203125 229.965820312 31.4443359375 259.731445312 c 0
 13.8330078125 277.266601562 13.7705078125 305.758789062 31.3056640625 323.37109375 c 0
 48.83984375 340.983398438 77.333984375 341.045898438 94.9443359375 323.509765625 c 0
 98.94921875 319.5234375 115.836914062 317.500976562 145.13671875 317.500976562 c 0
 161.186523438 317.500976562 176.256835938 319.97265625 186.939453125 323.018554688 c 1
 183.1875 325.705078125 178.373046875 328.873046875 172.216796875 332.516601562 c 0
 154.768554688 342.844726562 133.342773438 353.099609375 112.624023438 363.016601562 c 0
 91.1826171875 373.280273438 70.9296875 382.973632812 54.7939453125 392.833984375 c 0
 42.54296875 400.3203125 10 420.20703125 10 455.50390625 c 0
 10 465.801757812 13.2099609375 485.540039062 34.708984375 502.024414062 c 0
 42.2607421875 507.814453125 51.6884765625 512.955078125 63.53515625 517.741210938 c 0
 83.1708984375 525.674804688 106.978515625 531.522460938 123.494140625 535.03125 c 0
 147.801757812 540.193359375 171.698242188 524.673828125 176.861328125 500.36328125 c 0
 181.861328125 476.829101562 167.47265625 453.68359375 144.494140625 447.545898438 c 1
 146.952148438 446.364257812 149.299804688 445.240234375 151.48046875 444.197265625 c 0
 179.224609375 430.916992188 207.9140625 417.184570312 231.725585938 401.434570312 c 0
 245.609375 392.251953125 287.858398438 364.307617188 287.858398438 319.541992188 c 0
 287.858398438 302.599609375 281.42578125 260.915039062 221.841796875 239.783203125 c 0
 190.588867188 228.697265625 157.788085938 227.500976562 145.13671875 227.500976562 c 0
EndSplineSet
EndChar

StartChar: t
Encoding: 116 116 83
Width: 343
Flags: HW
HStem: 250.72 90<146.836 230.733> 385.91 95.4102<20.3434 55.1672> 436.95 89<152.729 279.337>
VStem: 57.3176 89.21<342.782 385.91 510.34 635.834> 64.7278 89.8193<511.98 641.283>
LayerCount: 2
Fore
SplineSet
325.857421875 334.740234375 m 0xb0
 298.45703125 294.120117188 247.357421875 250.719726562 186.1171875 250.719726562 c 0
 155.677734375 250.719726562 131.02734375 256.599609375 110.77734375 268.690429688 c 0
 83.6474609375 284.879882812 65.927734375 310.91015625 58.126953125 346.049804688 c 0
 57.767578125 347.66015625 57.4970703125 349.290039062 57.3173828125 350.9296875 c 0xb0
 56.0869140625 362.190429688 55.4169921875 373.900390625 55.1669921875 385.91015625 c 1
 55.037109375 385.91015625 l 2
 37.6669921875 385.91015625 21.126953125 396.01953125 13.7578125 412.950195312 c 0
 3.8271484375 435.73046875 14.2578125 462.25 37.037109375 472.1796875 c 0
 44.3876953125 475.379882812 51.697265625 478.4296875 59.0078125 481.3203125 c 1
 59.517578125 488 60.037109375 494.6796875 60.5673828125 501.330078125 c 0
 63.537109375 539.059570312 66.357421875 574.700195312 64.7275390625 600.129882812 c 0
 63.1474609375 624.940429688 81.9677734375 646.330078125 106.767578125 647.91015625 c 0
 131.567382812 649.490234375 152.967773438 630.669921875 154.546875 605.870117188 c 0xc8
 156.307617188 578.23046875 154.247070312 545.370117188 151.546875 510.33984375 c 1
 176.717773438 516.330078125 203.747070312 521.400390625 234.057617188 525.950195312 c 0
 258.647460938 529.650390625 281.557617188 512.709960938 285.247070312 488.139648438 c 0
 288.9375 463.559570312 272.0078125 440.639648438 247.427734375 436.950195312 c 0
 211.857421875 431.610351562 178.916992188 425.41015625 145.327148438 415.759765625 c 1
 144.7578125 396.919921875 144.967773438 379.0703125 146.52734375 363.190429688 c 0
 149.876953125 349.200195312 154.907226562 340.719726562 186.1171875 340.719726562 c 0
 206.517578125 340.719726562 233.907226562 359.370117188 251.237304688 385.0703125 c 0
 265.137695312 405.669921875 293.107421875 411.110351562 313.70703125 397.209960938 c 0
 334.307617188 383.3203125 339.747070312 355.349609375 325.857421875 334.740234375 c 0xb0
EndSplineSet
EndChar

StartChar: u
Encoding: 117 117 84
Width: 286
Flags: HW
HStem: 256.109 90<132.56 178.23>
VStem: 10.2059 89.5938<388.779 510.976> 186.255 90<350.219 463.802>
LayerCount: 2
Fore
SplineSet
158.397460938 256.109375 m 0
 134.291015625 256.109375 110.88671875 264.581054688 90.7158203125 280.608398438 c 0
 74.59375 293.418945312 60.3271484375 311.092773438 48.310546875 333.142578125 c 0
 28.58984375 369.329101562 15.0576171875 417.314453125 10.2060546875 468.258789062 c 0
 7.849609375 493 25.99609375 514.966796875 50.7373046875 517.323242188 c 0
 75.4716796875 519.6796875 97.4453125 501.533203125 99.7998046875 476.791992188 c 0
 107.510742188 395.825195312 139.125976562 346.109375 158.396484375 346.109375 c 0
 175.834960938 346.109375 186.254882812 381.254882812 186.254882812 415.235351562 c 0
 186.254882812 434.364257812 173.911132812 458.235351562 168.251953125 464.08984375 c 0
 149.17578125 479.451171875 145.868164062 507.330078125 160.958007812 526.744140625 c 0
 176.2109375 546.368164062 204.482421875 549.911132812 224.103515625 534.66015625 c 0
 252.860351562 512.309570312 276.254882812 458.736328125 276.254882812 415.236328125 c 0
 276.255859375 320.056640625 228.892578125 256.109375 158.397460938 256.109375 c 0
168.85546875 463.614257812 m 1
 168.862304688 463.609375 168.869140625 463.603515625 168.875 463.598632812 c 1
 168.868164062 463.603515625 168.861328125 463.609375 168.85546875 463.614257812 c 1
EndSplineSet
EndChar

StartChar: v
Encoding: 118 118 85
Width: 288
Flags: HW
HStem: 282.562 279.857<194.744 214.71>
VStem: 188.229 90<402.959 555.904>
LayerCount: 2
Fore
SplineSet
174.7265625 282.561523438 m 0
 164.192382812 282.561523438 153.642578125 286.243164062 145.1484375 293.653320312 c 0
 120.5859375 315.081054688 36.4921875 416.041015625 13.671875 469.108398438 c 0
 3.8544921875 491.940429688 14.4033203125 518.407226562 37.2353515625 528.224609375 c 0
 60.068359375 538.04296875 86.5341796875 527.494140625 96.3525390625 504.662109375 c 0
 106.369140625 481.3671875 141.575195312 434.305664062 169.811523438 400.018554688 c 1
 182.051757812 429.403320312 188.229492188 468.66796875 188.229492188 517.418945312 c 0
 188.229492188 542.272460938 208.375976562 562.418945312 233.229492188 562.418945312 c 0
 258.08203125 562.418945312 278.229492188 542.272460938 278.229492188 517.418945312 c 0
 278.229492188 414.485351562 254.561523438 341.756835938 205.874023438 295.079101562 c 0
 197.19140625 286.754882812 185.967773438 282.561523438 174.7265625 282.561523438 c 0
EndSplineSet
EndChar

StartChar: w
Encoding: 119 119 86
Width: 380
Flags: HW
LayerCount: 2
Fore
SplineSet
82.89453125 255.001953125 m 0
 67.87109375 255.000976562 53.908203125 259.981445312 42.5927734375 269.709960938 c 0
 39.7109375 272.188476562 37.1552734375 275.022460938 34.9853515625 278.142578125 c 0
 15.2998046875 306.456054688 11.158203125 362.049804688 10.2919921875 384.637695312 c 0
 9.150390625 414.385742188 10.4140625 470.631835938 31.7060546875 513.099609375 c 0
 42.84375 535.318359375 69.8837890625 544.299804688 92.1025390625 533.16015625 c 0
 114.319335938 522.021484375 123.299804688 494.981445312 112.161132812 472.763671875 c 0
 103.801757812 456.090820312 99.2861328125 426.186523438 100.080078125 392.771484375 c 0
 100.314453125 382.928710938 100.984375 373.823242188 101.888671875 365.717773438 c 1
 103.436523438 367.661132812 105.008789062 369.745117188 106.591796875 371.974609375 c 0
 120.201171875 391.151367188 129.505859375 413.76953125 132.790039062 435.666015625 c 0
 135.841796875 456.013671875 152.307617188 471.700195312 172.779296875 473.763671875 c 0
 193.245117188 475.829101562 212.515625 463.743164062 219.567382812 444.4140625 c 0
 238.451171875 392.654296875 247.96484375 382.841796875 258.918945312 382.841796875 c 0
 270.99609375 382.841796875 273.408203125 386.23828125 274.438476562 387.688476562 c 0
 275.87890625 389.716796875 280.58203125 397.896484375 280.58203125 417.95703125 c 0
 280.58203125 438.842773438 260.8671875 461.319335938 244.543945312 466.002929688 c 0
 220.655273438 472.858398438 206.845703125 497.780273438 213.700195312 521.668945312 c 0
 220.553710938 545.556640625 245.475585938 559.3671875 269.366210938 552.512695312 c 0
 295.76953125 544.936523438 320.71484375 527.5390625 339.607421875 503.524414062 c 0
 359.581054688 478.1328125 370.58203125 447.745117188 370.58203125 417.95703125 c 0
 370.58203125 340.784179688 327.795898438 292.842773438 258.919921875 292.842773438 c 0
 237.86328125 292.842773438 208.834960938 298.697265625 183.297851562 324.5390625 c 1
 161.595703125 292.483398438 134.387695312 269.215820312 109.728515625 260.049804688 c 0
 100.635742188 256.669921875 91.5859375 255.002929688 82.89453125 255.001953125 c 0
109.787109375 328.064453125 m 1
 109.787109375 328.064453125 109.787109375 328.063476562 109.788085938 328.063476562 c 1
 109.788085938 328.061523438 109.788085938 328.063476562 109.787109375 328.064453125 c 1
EndSplineSet
EndChar

StartChar: x
Encoding: 120 120 87
Width: 377
Flags: HW
LayerCount: 2
Fore
SplineSet
348.751953125 317.030273438 m 0
 340.751953125 311.209960938 331.481445312 308.41015625 322.291992188 308.41015625 c 0
 308.391601562 308.41015625 294.69140625 314.830078125 285.881835938 326.919921875 c 0
 269.322265625 349.66015625 248.631835938 373.450195312 226.971679688 396.139648438 c 1
 213.572265625 369.650390625 200.141601562 342.25 187.202148438 315.83984375 c 0
 183.091796875 307.48046875 178.9921875 299.110351562 174.901367188 290.780273438 c 0
 167.08203125 274.860351562 151.1015625 265.620117188 134.481445312 265.620117188 c 0
 127.822265625 265.620117188 121.051757812 267.110351562 114.662109375 270.25 c 0
 92.3623046875 281.209960938 83.171875 308.1796875 94.1318359375 330.48046875 c 0
 98.2119140625 338.780273438 102.301757812 347.120117188 106.381835938 355.459960938 c 0
 124.372070312 392.150390625 142.021484375 428.16015625 159.251953125 461.490234375 c 1
 148.6015625 471 138.612304688 479.559570312 129.76171875 486.860351562 c 1
 126.44140625 484.190429688 122.791992188 480.879882812 119.032226562 476.849609375 c 0
 108.6015625 465.6796875 101.032226562 452.790039062 99.26171875 443.209960938 c 0
 94.76171875 418.76953125 71.2919921875 402.599609375 46.8515625 407.110351562 c 0
 22.412109375 411.610351562 6.251953125 435.0703125 10.751953125 459.51953125 c 0
 15.751953125 486.669921875 31.2021484375 515.01953125 54.26171875 539.349609375 c 0
 67.322265625 553.129882812 94.0419921875 577.240234375 126.181640625 583.860351562 c 0
 138.711914062 586.450195312 151.7421875 583.580078125 162.021484375 575.98046875 c 0
 173.51171875 567.48046875 187.872070312 555.91015625 203.811523438 542.16015625 c 1
 221.541992188 571.41015625 238.671875 595.469726562 255.112304688 611.860351562 c 0
 272.702148438 629.41015625 301.202148438 629.370117188 318.751953125 611.780273438 c 0
 336.301757812 594.1796875 336.26171875 565.690429688 318.662109375 548.139648438 c 0
 305.072265625 534.58984375 288.801757812 509.98046875 271.291992188 479.450195312 c 1
 303.202148438 447.58984375 334.782226562 412.66015625 358.631835938 379.900390625 c 0
 373.26171875 359.809570312 368.841796875 331.66015625 348.751953125 317.030273438 c 0
EndSplineSet
EndChar

StartChar: y
Encoding: 121 121 88
Width: 379
Flags: HW
HStem: -195.434 88.75<168.803 278.65> 284.033 88.3193<104.092 179.15>
VStem: 10.0148 90.0781<375.295 529.427>
LayerCount: 2
Fore
SplineSet
274.932617188 -197.939453125 m 0
 264.482421875 -197.939453125 254.020507812 -197.178710938 243.938476562 -196.447265625 c 0
 239.083984375 -196.09375 234.0625 -195.73046875 229.043945312 -195.43359375 c 0
 228.456054688 -195.400390625 227.869140625 -195.353515625 227.283203125 -195.295898438 c 0
 175.787109375 -190.231445312 137.139648438 -176.372070312 109.133789062 -152.930664062 c 0
 85.08203125 -132.798828125 70.001953125 -106.765625 63.0302734375 -73.3427734375 c 0
 62.400390625 -70.322265625 62.0830078125 -67.2431640625 62.0830078125 -64.15625 c 0
 62.0830078125 14.4326171875 156.791015625 97.6708984375 242.102539062 122.473632812 c 1
 232.951171875 184.959960938 225.83203125 249.129882812 220.99609375 312.780273438 c 1
 193.735351562 294.930664062 157.05859375 284.033203125 106.916992188 284.033203125 c 0
 76.6513671875 284.033203125 50.51953125 299.368164062 33.3349609375 327.21484375 c 0
 12.46484375 361.034179688 9.765625 405.997070312 10.0146484375 429.788085938 c 0
 10.4013671875 466.83203125 17.6669921875 502.118164062 29.947265625 526.596679688 c 0
 41.0927734375 548.811523438 68.1337890625 557.786132812 90.3486328125 546.639648438 c 0
 112.5625 535.495117188 121.537109375 508.453125 110.391601562 486.239257812 c 0
 104.793945312 475.08203125 99.18359375 449.811523438 100.092773438 420.6953125 c 0
 100.897460938 394.897460938 106.517578125 379.5078125 110.125 374.05078125 c 1
 156.973632812 374.62890625 174.075195312 387.853515625 182.8828125 397.856445312 c 0
 199.456054688 416.674804688 207.9296875 450.223632812 214.62109375 483.673828125 c 0
 219.137695312 506.258789062 239.979492188 521.786132812 262.916015625 519.655273438 c 0
 285.850585938 517.521484375 303.471679688 498.413085938 303.744140625 475.380859375 c 0
 304.671875 396.974609375 312.138671875 190.825195312 361.294921875 -29.4716796875 c 0
 361.374023438 -29.828125 361.450195312 -30.1865234375 361.520507812 -30.544921875 c 0
 371.954101562 -83.318359375 377.489257812 -136.809570312 347.625 -170.58203125 c 0
 327.735351562 -193.073242188 301.375 -197.939453125 274.932617188 -197.939453125 c 0
235.260742188 -105.646484375 m 0
 240.553710938 -105.96484375 245.583984375 -106.331054688 250.458007812 -106.68359375 c 0
 259.375 -107.331054688 271.729492188 -108.234375 279.494140625 -107.951171875 c 1
 280.264648438 -100.166015625 280.131835938 -83.0849609375 273.333007812 -48.525390625 c 0
 267.466796875 -22.19921875 261.973632812 4.951171875 256.887695312 32.6552734375 c 1
 234.151367188 24.220703125 209.703125 9.2568359375 189.494140625 -9.0009765625 c 0
 165.264648438 -30.8916015625 154.66015625 -50.4248046875 152.505859375 -60.6103515625 c 1
 155.3984375 -70.87109375 159.860351562 -78.0263671875 166.8984375 -83.916015625 c 0
 180.07421875 -94.943359375 203.703125 -102.452148438 235.260742188 -105.646484375 c 0
111.4921875 372.352539062 m 1
 111.501953125 372.352539062 l 1
 111.4921875 372.352539062 l 1
EndSplineSet
EndChar

StartChar: z
Encoding: 122 122 89
Width: 410
Flags: HW
HStem: -111.329 89.999<141.504 288.188> 75.7451 90<159.181 305.94> 469.095 89.6787<16.2355 142.201>
VStem: 36.3943 90.002<-4.35746 45.4341>
LayerCount: 2
Fore
SplineSet
205.331054688 -111.329101562 m 0
 169.66015625 -111.329101562 129.876953125 -99.5673828125 98.9130859375 -79.8681640625 c 0
 58.5966796875 -54.21875 36.39453125 -18.4453125 36.39453125 20.861328125 c 0
 36.39453125 58.4736328125 60.7724609375 95.8193359375 105.037109375 126.015625 c 0
 141.502929688 150.892578125 184.053710938 165.745117188 218.860351562 165.745117188 c 0
 246.958984375 165.745117188 277.467773438 165.744140625 306.6328125 158.268554688 c 1
 303.397460938 175.112304688 298.314453125 192.798828125 291.7734375 209.49609375 c 0
 278.877929688 242.409179688 264.486328125 261.235351562 254.918945312 268.244140625 c 0
 221.0859375 287.541992188 174.463867188 307.819335938 112.0546875 297.345703125 c 0
 95.45703125 294.560546875 78.6953125 301.272460938 68.6005859375 314.73828125 c 0
 58.5068359375 328.204101562 56.7724609375 346.176757812 64.1025390625 361.326171875 c 0
 76.2666015625 386.466796875 102.916992188 419.790039062 133.776367188 458.375976562 c 0
 137.391601562 462.897460938 141.034179688 467.451171875 144.659179688 472.001953125 c 1
 112.275390625 467.626953125 80.689453125 466.591796875 51.197265625 469.094726562 c 0
 26.4326171875 471.197265625 8.0625 492.975585938 10.1640625 517.740234375 c 0
 12.2666015625 542.50390625 34.0439453125 560.87109375 58.80859375 558.7734375 c 0
 110.71484375 554.366210938 171.87890625 564.092773438 231.021484375 586.161132812 c 0
 246.751953125 592.032226562 264.44140625 588.655273438 276.904296875 577.405273438 c 0
 289.368164062 566.155273438 294.532226562 548.903320312 290.299804688 532.655273438 c 0
 282.131835938 501.3046875 252.272460938 462.442382812 204.064453125 402.1640625 c 0
 199.9609375 397.033203125 195.762695312 391.784179688 191.584960938 386.529296875 c 1
 237.802734375 378.889648438 274.470703125 360.852539062 301.454101562 345.306640625 c 0
 302.337890625 344.797851562 303.204101562 344.258789062 304.05078125 343.69140625 c 0
 339.70703125 319.784179688 362.624023438 275.373046875 375.572265625 242.326171875 c 0
 391.513671875 201.6328125 400.658203125 157.07421875 400.658203125 120.077148438 c 0
 400.658203125 79.9453125 398.302734375 49.205078125 393.245117188 23.3369140625 c 0
 387.083007812 -8.18359375 376.592773438 -33.185546875 361.17578125 -53.1005859375 c 0
 321.219726562 -104.7109375 256.901367188 -111.329101562 205.331054688 -111.329101562 c 0
126.396484375 20.666015625 m 0
 126.545898438 13.6689453125 134.688476562 4.0419921875 147.223632812 -3.93359375 c 0
 163.833984375 -14.5009765625 186.641601562 -21.330078125 205.331054688 -21.330078125 c 0
 264.380859375 -21.330078125 281.603515625 -8.865234375 290.010742188 1.994140625 c 0
 298.822265625 13.375 304.689453125 32.3203125 307.84765625 60.173828125 c 0
 306.086914062 61.064453125 304.366210938 62.0791015625 302.693359375 63.2236328125 c 0
 285.701171875 74.845703125 257.229492188 75.7451171875 218.861328125 75.7451171875 c 0
 206.206054688 75.7451171875 181.873046875 68.7529296875 158.354492188 53.4013671875 c 0
 135.967773438 38.7900390625 127.095703125 24.9169921875 126.396484375 20.666015625 c 0
EndSplineSet
EndChar

StartChar: braceleft
Encoding: 123 123 90
Width: 285
Flags: HW
HStem: 160.092 90.5508<157.073 253.235>
VStem: 23.2623 90.0059<547.288 585.745>
LayerCount: 2
Fore
SplineSet
164.116210938 160.091796875 m 0
 139.131835938 160.08984375 113.423828125 167.024414062 91.357421875 188.21875 c 0
 88.58984375 190.876953125 86.1748046875 193.877929688 84.1689453125 197.150390625 c 0
 65.2890625 227.940429688 65.8876953125 267.224609375 67.92578125 287.90234375 c 0
 69.82421875 307.172851562 74.220703125 325.674804688 80.73828125 342.33984375 c 1
 72.3701171875 344.728515625 62.29296875 346.778320312 51.6865234375 347.561523438 c 0
 31.2744140625 349.0703125 14.451171875 364.1640625 10.7470703125 384.293945312 c 0
 7.0419921875 404.423828125 17.388671875 424.517578125 35.9267578125 433.1953125 c 0
 59.9208984375 444.42578125 78.5966796875 458.538085938 89.5322265625 469.32421875 c 1
 78.5537109375 476.419921875 65.6103515625 485.483398438 54.259765625 497.13671875 c 0
 33.69140625 518.252929688 23.2626953125 542.51171875 23.2626953125 569.23828125 c 0
 23.2626953125 590.618164062 31.0126953125 621.986328125 67.9375 650.00390625 c 0
 88.2265625 665.399414062 115.5390625 678.625 151.436523438 690.439453125 c 0
 175.043945312 698.208984375 200.479492188 685.369140625 208.25 661.760742188 c 0
 216.018554688 638.154296875 203.1796875 612.717773438 179.571289062 604.94921875 c 0
 123.06640625 586.353515625 114.069335938 570.657226562 113.268554688 569.00390625 c 0
 113.643554688 560.4453125 134.290039062 547.450195312 145.427734375 540.439453125 c 0
 161.801757812 530.131835938 177.268554688 520.397460938 184.951171875 501.926757812 c 0
 185.451171875 500.725585938 185.8984375 499.50390625 186.29296875 498.263671875 c 0
 192.754882812 477.9140625 192.401367188 445.556640625 154.240234375 406.787109375 c 1
 165.58984375 398.618164062 173.533203125 389.180664062 178.271484375 378.314453125 c 0
 186.283203125 359.939453125 183.873046875 339.654296875 171.869140625 323.706054688 c 0
 164.692382812 313.434570312 159.200195312 296.412109375 157.491210938 279.075195312 c 0
 156.203125 266.001953125 157.30078125 256.491210938 158.666015625 250.642578125 c 1
 170.504882812 247.8046875 194.65234375 255.498046875 215.416015625 262.997070312 c 0
 238.790039062 271.438476562 264.583984375 259.330078125 273.0234375 235.955078125 c 0
 281.463867188 212.580078125 269.357421875 186.787109375 245.981445312 178.346679688 c 0
 225.590820312 170.983398438 195.422851562 160.09375 164.116210938 160.091796875 c 0
EndSplineSet
EndChar

StartChar: bar
Encoding: 124 124 91
Width: 130
Flags: HW
VStem: 10.0233 89.9541<341.285 634.677>
LayerCount: 2
Fore
SplineSet
75.451171875 234.111328125 m 0
 52.517578125 234.111328125 32.9208984375 251.559570312 30.7060546875 274.852539062 c 0
 21.1240234375 375.6015625 13.005859375 501.244140625 10.0234375 594.940429688 c 0
 9.232421875 619.780273438 28.7275390625 640.55859375 53.568359375 641.348632812 c 0
 78.4248046875 642.142578125 99.1865234375 622.643554688 99.9775390625 597.803710938 c 0
 102.90625 505.829101562 110.883789062 382.408203125 120.301757812 283.374023438 c 0
 122.655273438 258.6328125 104.505859375 236.66796875 79.7646484375 234.315429688 c 0
 78.31640625 234.178710938 76.876953125 234.111328125 75.451171875 234.111328125 c 0
EndSplineSet
EndChar

StartChar: braceright
Encoding: 125 125 92
Width: 242
Flags: HW
HStem: 168.428 90<71.8144 138.123> 606.652 89.4336<18.9497 111.073>
VStem: 11.0562 200.56<609.634 674.498> 65.2603 166.245<191.202 251.855>
LayerCount: 2
Fore
SplineSet
110.258789062 168.427734375 m 0xd0
 85.4580078125 168.427734375 65.3232421875 188.500976562 65.2607421875 213.31640625 c 0xd0
 65.19921875 238.169921875 85.2958984375 258.366210938 110.1484375 258.427734375 c 2
 110.739257812 258.428710938 l 2
 122.186523438 258.45703125 131.594726562 258.751953125 138.919921875 259.311523438 c 1
 131.333984375 297.6171875 108.506835938 349.62109375 90.072265625 372.712890625 c 0
 77.9111328125 387.946289062 76.939453125 409.278320312 87.66796875 425.552734375 c 0
 89.7353515625 428.690429688 91.912109375 431.622070312 94.166015625 434.368164062 c 1
 91.240234375 435.7265625 88.369140625 437.227539062 85.5693359375 438.903320312 c 0
 69.1796875 448.704101562 60.76171875 467.78125 64.568359375 486.493164062 c 0
 72.4970703125 525.4765625 89.48828125 561.125 103.140625 589.768554688 c 0
 105.547851562 594.818359375 108.370117188 600.73828125 111.07421875 606.65234375 c 1
 96.869140625 607.497070312 79.7490234375 607.052734375 64.6591796875 603.740234375 c 0
 40.3876953125 598.4140625 16.38671875 613.76953125 11.056640625 638.044921875 c 0
 5.7275390625 662.319335938 21.0869140625 686.318359375 45.3623046875 691.647460938 c 0
 76.0927734375 698.392578125 106.749023438 697.326171875 122.290039062 696.0859375 c 0
 170.036132812 692.283203125 186.227539062 679.260742188 191.547851562 674.982421875 c 0
 204.301757812 664.724609375 211.616210938 649.9453125 211.616210938 634.432617188 c 0xe0
 211.616210938 608.178710938 198.99609375 581.702148438 184.383789062 551.044921875 c 0
 177.821289062 537.275390625 170.783203125 522.510742188 164.798828125 507.401367188 c 1
 178.603515625 504.083007812 193.430664062 499.901367188 207.595703125 492.608398438 c 0
 228.114257812 482.044921875 237.314453125 457.670898438 228.896484375 436.18359375 c 0
 219.415039062 411.982421875 199.6796875 400.075195312 184.54296875 391.494140625 c 1
 209.7421875 345.1640625 231.505859375 281.594726562 231.505859375 236.633789062 c 0
 231.505859375 215.696289062 220.780273438 196.94921875 202.079101562 185.200195312 c 0
 192.380859375 179.107421875 180.591796875 174.842773438 166.0390625 172.1640625 c 0
 146.211914062 168.514648438 124.99609375 168.462890625 110.95703125 168.4296875 c 2
 110.373046875 168.427734375 l 2
 110.3359375 168.427734375 110.296875 168.427734375 110.258789062 168.427734375 c 0xd0
EndSplineSet
EndChar

